<?xml version="1.0" standalone="no"?>
<!DOCTYPE svg PUBLIC "-//W3C//DTD SVG 1.1//EN" "http://www.w3.org/Graphics/SVG/1.1/DTD/svg11.dtd" >
<svg>
<metadata>
Created by FontForge 20120731 at Sat Jan 14 07:58:13 2017
 By Apache
Copyright (c) 2013 by Moinzek. All rights reserved.
</metadata>
<defs>
<font id="Glamor-BoldExtended" horiz-adv-x="199" >
  <font-face 
    font-family="Glamor Ext"
    font-weight="700"
    font-stretch="expanded"
    units-per-em="1000"
    panose-1="0 0 0 0 0 0 0 0 0 0"
    ascent="702"
    descent="-298"
    x-height="405"
    cap-height="706"
    bbox="-101 -300 1476 923"
    underline-thickness="4"
    underline-position="-445"
    unicode-range="U+0002-2122"
  />
<missing-glyph horiz-adv-x="1200" 
 />
    <glyph glyph-name=".notdef" horiz-adv-x="1200" 
 />
    <glyph glyph-name="NULL" horiz-adv-x="0" 
 />
    <glyph glyph-name="NULL" horiz-adv-x="0" 
 />
    <glyph glyph-name="nonmarkingreturn" unicode="&#xd;" horiz-adv-x="0" 
 />
    <glyph glyph-name="space" unicode=" " horiz-adv-x="360" 
 />
    <glyph glyph-name="uni0002" horiz-adv-x="555" 
d="M519 0h-147v377h-336v29h483v-406z" />
    <glyph glyph-name="exclam" unicode="!" 
d="M85 196v507h29v-507h-29zM99 0q-26 0 -44.5 18.5t-18.5 44.5t18.5 44.5t44.5 18.5t45 -18.5t19 -44.5t-19 -44.5t-45 -18.5z" />
    <glyph glyph-name="quotedbl" unicode="&#x22;" horiz-adv-x="439" 
d="M261 550v26q51 0 77 17q-15 -1 -29.5 2.5t-25.5 11t-18 18.5t-7 24q0 23 21 40t51 17t51.5 -17t21.5 -40q0 -43 -38 -71t-104 -28zM108 550q-29 0 -50.5 16.5t-21.5 39.5q0 44 38 71.5t104 28.5v-27q-53 0 -77 -17q15 1 29.5 -2.5t25.5 -11t18 -18.5t7 -24
q0 -23 -21.5 -39.5t-51.5 -16.5z" />
    <glyph glyph-name="numbersign" unicode="#" horiz-adv-x="552" 
d="M431 283l-48 -160h133v-29h-142l-28 -94l-34 7l27 87h-191l-28 -94l-34 7l27 87h-77v29h85l48 160h-133v28h142l28 95l34 -7l-27 -88h191l28 95l34 -7l-27 -88h77v-28h-85zM205 283l-48 -160h190l48 160h-190z" />
    <glyph glyph-name="dollar" unicode="$" horiz-adv-x="679" 
d="M353 708q54 -2 86 -34.5t32 -77.5q0 -26 -22 -44.5t-52 -18.5q-26 0 -44 12v-32q69 -4 122.5 -20.5t91 -47.5t57 -78t19.5 -111q0 -53 -22.5 -99t-62 -80.5t-92.5 -55t-113 -22.5v-95h-35v95q-65 3 -117 24t-88.5 55.5t-56.5 80.5t-20 97q0 26 22 44.5t53 18.5
t52.5 -18.5t21.5 -44.5q0 -17 -9.5 -31t-24.5 -22.5t-34 -10t-37 5.5q21 -76 81 -120.5t157 -49.5v458q-50 7 -80 35.5t-30 74.5q0 47 30 75t80 35v97h35v-95zM353 678v-31q11 8 24 11t27 1q-22 17 -51 19zM318 676q-35 -6 -55.5 -26.5t-20.5 -53.5t20.5 -53.5t55.5 -26.5
v160zM493 353q0 54 -40 88.5t-100 41.5v-455q30 2 55.5 13t44 28.5t29.5 40t11 48.5v195z" />
    <glyph glyph-name="percent" unicode="%" horiz-adv-x="439" 
d="M164 483q-26 0 -49.5 9t-41 24t-27.5 35t-10 43t10 43.5t27.5 35.5t40.5 23.5t50 8.5q26 0 49.5 -8.5t41 -23.5t27.5 -35.5t10 -43.5t-10 -43t-27.5 -35t-41 -24t-49.5 -9zM63 -1l-31 10l344 699l31 -12zM275 0q-26 0 -49.5 9t-41 24t-27.5 35t-10 43t10 43.5t27.5 35.5
t40.5 24t50 9q26 0 49.5 -9t41 -24t27.5 -35.5t10 -43.5t-10 -43t-27.5 -35t-41 -24t-49.5 -9zM202 642q0 14 -11 24t-27 10t-27.5 -10t-11.5 -24v-96q0 -14 11.5 -24t27.5 -10q17 0 27.5 10t10.5 24v96zM313 160q0 14 -11 23.5t-27 9.5t-27.5 -9.5t-11.5 -23.5v-97
q0 -14 11.5 -24t27.5 -10q17 0 27.5 9t10.5 25v97z" />
    <glyph glyph-name="ampersand" unicode="&#x26;" horiz-adv-x="738" 
d="M627 193q-33 0 -55.5 21t-18.5 49q-23 -23 -23 -55q0 -45 -18 -83t-50.5 -65.5t-78 -43.5t-100.5 -16q-53 0 -98 15.5t-78 42.5t-52 64.5t-19 82.5q0 47 18 86t51 66.5t79 43t102 15.5q60 0 94.5 -31t34.5 -81q0 -26 -21.5 -44.5t-53.5 -18.5q-31 0 -53 19t-22 45
q0 14 7 26t19 20.5t27.5 13t32.5 2.5q-23 19 -68 19q-41 0 -69 -23.5t-28 -57.5v-194q0 -34 28 -57.5t69 -23.5q48 0 87 13.5t66.5 37t43 56t15.5 71.5q0 43 -22.5 77t-57 62.5t-74.5 53t-76 47.5q-21 14 -41 29.5t-36.5 33.5t-26.5 38.5t-10 44.5q0 49 36.5 80.5t95.5 31.5
q62 0 97 -30t35 -82q0 -26 -22 -44.5t-53 -18.5t-53 18.5t-22 44.5q0 14 7 26.5t18.5 21t27 13t32.5 2.5q-25 19 -67 19q-44 0 -70.5 -22.5t-26.5 -59.5q0 -19 8.5 -35.5t22.5 -31.5t30.5 -28t33.5 -24q33 -22 68.5 -43.5t68 -45.5t59 -52t40.5 -62q17 23 45.5 35t64.5 12
q32 0 53.5 -18.5t21.5 -44.5t-21.5 -44.5t-53.5 -18.5z" />
    <glyph glyph-name="quotesingle" unicode="'" 
d="M39 550v26q44 0 67 17q-29 -2 -49.5 15.5t-20.5 40.5t18.5 40t44.5 17q27 0 45.5 -17t18.5 -40q0 -43 -33 -71t-91 -28z" />
    <glyph glyph-name="parenleft" unicode="(" horiz-adv-x="435" 
d="M36 353q0 64 24 126.5t70.5 113t114 81.5t154.5 32v-30q-48 0 -88 -14t-69 -38t-45 -56.5t-16 -69.5v-290q0 -37 16.5 -69.5t45.5 -56.5t69 -38t87 -14v-30q-93 0 -161.5 28.5t-113.5 77t-66.5 112.5t-21.5 135z" />
    <glyph glyph-name="parenright" unicode=")" horiz-adv-x="435" 
d="M36 0v30q48 0 88 14t69 38t45.5 56.5t16.5 69.5v290q0 37 -16.5 69.5t-45.5 56.5t-69 38t-88 14v30q87 -1 154.5 -32t114 -81.5t70.5 -113t24 -126.5t-24 -127t-70.5 -113.5t-114 -81.5t-154.5 -31z" />
    <glyph glyph-name="asterisk" unicode="*" horiz-adv-x="319" 
d="M224 559l-36 30h-12v-10l35 -30q0 -22 -14 -35.5t-38 -13.5q-23 0 -37.5 13t-14.5 36l36 30v10h-13l-35 -30q-26 0 -42.5 12t-16.5 32t16.5 31.5t42.5 11.5l35 -30h13v11l-36 30q0 22 14.5 35.5t37.5 13.5q24 0 38 -13.5t14 -35.5l-35 -30v-11h12l36 30q26 0 42.5 -11.5
t16.5 -31.5t-16.5 -32t-42.5 -12z" />
    <glyph glyph-name="plus" unicode="+" horiz-adv-x="552" 
d="M293 186v-186h-34v186h-223v28h223v186h34v-186h223v-28h-223z" />
    <glyph glyph-name="comma" unicode="," 
d="M39 -49v26q44 0 67 17q-29 -2 -49.5 15t-20.5 40t18.5 40t44.5 17t45 -17t19 -40q0 -45 -32 -71.5t-92 -26.5z" />
    <glyph glyph-name="hyphen" unicode="-" horiz-adv-x="552" 
d="M36 200v26h480v-26h-480z" />
    <glyph glyph-name="period" unicode="." 
d="M99 0q-26 0 -44.5 17.5t-18.5 41.5q0 25 18.5 42.5t44.5 17.5t45 -17.5t19 -42.5q0 -24 -19 -41.5t-45 -17.5z" />
    <glyph glyph-name="slash" unicode="/" horiz-adv-x="438" 
d="M63 -3l-31 11q88 178 171.5 349t171.5 349l31 -12z" />
    <glyph glyph-name="zero" unicode="0" horiz-adv-x="559" 
d="M279 0q-46 0 -82 18.5t-63 48.5t-46 68t-30.5 77.5t-16.5 76.5t-5 64t5 64t16.5 76t30.5 77.5t46 68.5t63 48.5t82 18.5t82.5 -18.5t63.5 -48.5t45.5 -68.5t30.5 -77.5t17 -76t5 -64q0 -28 -5 -64.5t-17 -76t-30.5 -77.5t-45.5 -68t-63.5 -48.5t-82.5 -18.5zM375 594
q0 34 -28 58t-68 24q-20 0 -37 -6.5t-30 -17.5t-20.5 -26t-7.5 -32v-97q0 -22 7 -39t19 -31.5t28.5 -27t35.5 -24.5l54 -36t47 -41v296zM375 209q0 21 -7 38.5t-19.5 31.5t-29 27t-35.5 25q-26 17 -53 35t-47 42v-297q0 -17 7.5 -32t20.5 -26t30 -17.5t37 -6.5q40 0 68 24
t28 58v98z" />
    <glyph glyph-name="one" unicode="1" horiz-adv-x="432" 
d="M36 0v29l108 1v646h-108v30h252v-676l108 -1v-29h-360z" />
    <glyph glyph-name="two" unicode="2" horiz-adv-x="559" 
d="M393 0h-357q0 54 18.5 93t50 69t74 55t91.5 52q18 10 37 25t34 33t24.5 37t9.5 37v193q0 35 -28 58.5t-70 23.5q-76 0 -125.5 -31.5t-69.5 -88.5q18 6 36.5 4t33 -10t23.5 -22t9 -30q0 -26 -22 -44.5t-52 -18.5q-21 0 -35 6.5t-22.5 16.5t-12.5 23t-4 26q0 47 17.5 84
t49 62.5t76.5 38.5t99 13t99.5 -15.5t77.5 -43.5t50 -66.5t18 -84.5t-20 -82t-52.5 -65.5t-74 -54t-85.5 -48.5q-36 -20 -74 -41t-69 -46.5t-52.5 -56.5t-24.5 -71h321q37 0 64 19q-33 -3 -57 16t-24 46q0 26 21.5 44.5t52.5 18.5q35 0 55 -20t20 -47q0 -51 -36.5 -79
t-94.5 -28z" />
    <glyph glyph-name="three" unicode="3" horiz-adv-x="559" 
d="M278 0q-55 0 -99.5 15t-76 42.5t-49 65.5t-17.5 85q0 27 21 45t53 18q30 0 52 -18.5t22 -44.5q0 -17 -9 -30.5t-24 -21.5t-33 -10t-36 4q20 -58 70 -89t125 -31q42 0 70 23t28 58v194q0 36 -26.5 58.5t-69.5 22.5q-17 0 -34 -3t-30.5 -10t-22 -19t-8.5 -29h-35
q0 26 12.5 43t31 27t40.5 14.5t42 6.5q33 2 52.5 16t19.5 42v144q0 26 -19 42t-49 16q-62 0 -85 -43q19 0 32.5 -11t13.5 -28q0 -16 -13 -27.5t-32 -11.5t-32.5 11.5t-13.5 27.5q0 49 34.5 80.5t93.5 31.5q39 0 73.5 -12t60 -33.5t40.5 -51t15 -63.5q0 -47 -28.5 -85
t-75.5 -58q35 -11 64.5 -30.5t51 -45t33.5 -56t12 -63.5q0 -46 -18.5 -84t-51 -65.5t-77.5 -43t-98 -15.5z" />
    <glyph glyph-name="four" unicode="4" horiz-adv-x="561" 
d="M412 194v-194h-147v193h-240l362 516l30 -15l-331 -471h312q42 0 64 19q-17 -2 -32 2t-26.5 13t-18.5 21t-7 26q0 26 21.5 45t51.5 19q31 0 52.5 -18.5t21.5 -44.5q0 -45 -30.5 -76t-82.5 -35z" />
    <glyph glyph-name="five" unicode="5" horiz-adv-x="559" 
d="M333 615q-15 6 -24 17.5t-9 26.5q0 19 16 33t39 14t39 -14t16 -33q0 -21 -11 -35.5t-28 -24t-36.5 -14t-37.5 -5.5v-165q47 -5 88.5 -21.5t72 -43.5t48 -63t17.5 -79t-19 -81t-52 -66t-77.5 -44.5t-95.5 -16.5q-53 0 -97.5 14.5t-76.5 41t-50.5 64t-18.5 83.5
q0 26 19.5 47t54.5 21q30 0 52 -18.5t22 -44.5q0 -17 -9 -30.5t-24 -21.5t-33 -10t-36 4q20 -58 70 -89t127 -31q40 0 68 23.5t28 57.5v194q0 34 -27 57.5t-67 23.5h-132v223h133q28 0 51 6z" />
    <glyph glyph-name="six" unicode="6" horiz-adv-x="559" 
d="M280 0q-50 0 -94 14t-77 40t-52.5 61.5t-19.5 79.5v300q-1 98 63 154.5t180 56.5q58 0 94 -31.5t36 -81.5q0 -26 -22 -44t-52 -18t-51.5 18.5t-21.5 44.5q0 14 6.5 26t18 21t26 13.5t31.5 2.5q-23 19 -65 19q-43 0 -69.5 -22t-26.5 -59v-212q34 33 96 33q50 0 94 -16.5
t77 -45t52.5 -66t19.5 -80.5t-19 -81t-52 -66t-77.5 -44.5t-94.5 -16.5zM376 305q0 34 -28 57.5t-68 23.5q-43 0 -69.5 -22.5t-26.5 -58.5q0 -26 24.5 -43t64.5 -34q26 -12 53.5 -24t49.5 -29v130zM287 188q-26 12 -53.5 24t-49.5 29v-130q0 -34 28 -57.5t68 -23.5t68 23.5
t28 58.5q0 25 -24.5 42t-64.5 34z" />
    <glyph glyph-name="seven" unicode="7" horiz-adv-x="562" 
d="M179 0h-150l339 676h-200q-42 0 -65 -19q16 2 31 -2.5t26.5 -13.5t18 -21t6.5 -26q0 -26 -21.5 -44.5t-52.5 -18.5q-32 0 -52 18.5t-21 44.5q-1 25 8.5 45.5t26.5 35.5t41 23t53 8h366z" />
    <glyph glyph-name="eight" unicode="8" horiz-adv-x="559" 
d="M279 0q-50 0 -94 16.5t-77 45t-52.5 66t-19.5 80.5q0 33 12 63.5t33 56t50.5 45t64.5 30.5q-47 20 -75 58t-28 85q0 33 14.5 62t40 51t59 34.5t72.5 12.5t73 -12.5t59.5 -34.5t40 -51t14.5 -62q0 -47 -28.5 -85t-75.5 -58q36 -11 65.5 -30.5t50.5 -45t33 -56t12 -63.5
q0 -47 -17.5 -85.5t-49.5 -65.5t-77 -42t-100 -15zM347 618q0 24 -19.5 41t-48.5 17q-28 0 -47.5 -17t-19.5 -41q0 -20 19.5 -31t42.5 -22q19 -8 37.5 -16.5t35.5 -19.5v89zM284 527q-18 8 -36.5 16.5t-35.5 19.5v-89q0 -24 19.5 -41t47.5 -17q30 0 49 16t19 42
q0 17 -17 28.5t-46 24.5zM375 304q0 35 -28 58.5t-68 23.5q-20 0 -37 -6.5t-30 -17.5t-20.5 -26t-7.5 -32q0 -26 24.5 -42.5t63.5 -33.5q26 -12 53.5 -24t49.5 -29v129zM287 188q-27 11 -54.5 23.5t-48.5 29.5v-130q0 -16 7.5 -31t20 -26t30 -18t37.5 -7q40 0 68 24t28 58
q0 26 -24.5 43t-63.5 34z" />
    <glyph glyph-name="nine" unicode="9" horiz-adv-x="559" 
d="M523 210q0 -47 -17 -86t-48.5 -66.5t-77 -42.5t-101.5 -15q-57 0 -93.5 31t-36.5 80q0 26 21.5 44.5t52.5 18.5q30 0 52 -18.5t22 -44.5q0 -14 -7 -26t-18 -20.5t-26.5 -13t-31.5 -2.5q23 -19 65 -19t69 23t27 59v211q-35 -33 -96 -33q-50 0 -94 16.5t-77 45t-52.5 66
t-19.5 80.5t19 81t52 66t77.5 44.5t94.5 16.5q49 0 93.5 -14t78 -40t53 -62t19.5 -80v-300zM279 676q-40 0 -67.5 -24t-27.5 -58q0 -26 24.5 -43t63.5 -34q26 -11 53.5 -23t49.5 -30v130q0 35 -28 58.5t-68 23.5zM287 478q-27 11 -54 23.5t-49 29.5v-130q0 -34 27.5 -58
t67.5 -24q43 0 69.5 23t26.5 59q0 26 -24.5 43t-63.5 34z" />
    <glyph glyph-name="colon" unicode=":" 
d="M99 283q-26 0 -44.5 17.5t-18.5 43.5t18.5 44t44.5 18t45 -18t19 -44t-19 -43.5t-45 -17.5zM99 0q-26 0 -44.5 18t-18.5 43q0 26 18.5 44t44.5 18t45 -18t19 -44q0 -25 -19 -43t-45 -18z" />
    <glyph glyph-name="semicolon" unicode=";" 
d="M99 282q-26 0 -44.5 18t-18.5 44t18.5 44t44.5 18t45 -18t19 -44t-19 -44t-45 -18zM39 -49v29q45 0 67 19q-16 -2 -29 3t-22 13.5t-14 20t-5 23.5q0 26 18.5 44t44.5 18t45 -18t19 -44q0 -46 -33.5 -77t-90.5 -31z" />
    <glyph glyph-name="less" unicode="&#x3c;" horiz-adv-x="319" 
d="M266 -3l-236 206l236 207l22 -21l-211 -186l212 -187z" />
    <glyph glyph-name="equal" unicode="=" horiz-adv-x="552" 
d="M36 278v28h480v-28h-480zM36 100v27h480v-27h-480z" />
    <glyph glyph-name="greater" unicode="&#x3e;" horiz-adv-x="319" 
d="M54 -3l-24 19l212 187l-212 186l24 21l235 -207z" />
    <glyph glyph-name="question" unicode="?" horiz-adv-x="559" 
d="M297 281v-85h-35v123q52 0 82.5 23.5t30.5 58.5v193q0 37 -27 59.5t-70 22.5q-77 0 -126.5 -31.5t-69.5 -88.5q18 6 36.5 4t33 -10t23.5 -22t9 -30q0 -26 -22 -44.5t-52 -18.5q-32 0 -53 19t-21 45q0 45 16.5 82.5t48 65.5t76 43.5t101.5 15.5q55 0 100.5 -15t77.5 -42
t49.5 -65.5t17.5 -86.5q0 -41 -17 -78.5t-47.5 -67t-72 -48.5t-89.5 -22zM279 0q-30 0 -51.5 18.5t-21.5 44.5t21.5 44.5t51.5 18.5q31 0 52.5 -18.5t21.5 -44.5t-21.5 -44.5t-52.5 -18.5z" />
    <glyph glyph-name="at" unicode="@" horiz-adv-x="763" 
d="M664 -58q-31 11 -31 42q0 19 16.5 32t39.5 13t39.5 -13.5t16.5 -31.5q0 -23 -14.5 -38t-35 -24t-43.5 -13t-40 -4h-231q-75 0 -141 23.5t-115.5 64.5t-78 96t-28.5 118t28.5 118t78 96t115.5 65t141 24t141.5 -24t116 -65t78 -96t28.5 -118q0 -115 -98 -207h-168v17
q-48 -17 -98 -17q-51 0 -96 16.5t-79 44.5t-53.5 65.5t-19.5 80.5t19.5 80.5t53 65.5t79 44t96.5 16q53 0 98 -16v37l150 -126v-279q38 38 59 83.5t21 94.5q0 57 -26 106.5t-70.5 86.5t-104 58.5t-127.5 21.5t-127.5 -21.5t-104 -58.5t-70.5 -86.5t-26 -106.5t26 -106.5
t70.5 -86.5t104 -58.5t127.5 -21.5h231q25 0 52 8zM479 304q0 16 -7.5 31t-21 25.5t-31.5 17t-38 6.5q-40 0 -68.5 -23.5t-28.5 -57.5v-192q0 -34 28 -58t69 -24t69.5 23.5t28.5 57.5v194z" />
    <glyph glyph-name="A" unicode="A" horiz-adv-x="1032" 
d="M618 0v29h104l-135 261h-259l-134 -261h104v-29h-262v29h119q87 169 176.5 340t184.5 360l361 -700h119v-29h-378zM458 541l-115 -222h229z" />
    <glyph glyph-name="B" unicode="B" horiz-adv-x="795" 
d="M510 0h-474v30h112v646h-112v30h418q41 0 75.5 -12.5t60 -34t40 -51t14.5 -62.5q0 -42 -23.5 -77.5t-64.5 -57.5q41 -7 78 -26t64.5 -46.5t44 -61t16.5 -69.5q0 -44 -19.5 -81.5t-53 -66t-79 -44.5t-97.5 -16zM522 618q0 27 -18 42.5t-50 15.5h-156v-260q39 -1 78 -0.5
t78 0.5q29 0 48.5 17t19.5 41v144zM609 307q0 35 -27 57t-71 22h-213v-357h212q51 0 75 20t24 62v196z" />
    <glyph glyph-name="C" unicode="C" horiz-adv-x="679" 
d="M397 0q-84 0 -150.5 31.5t-113.5 81.5t-72 113.5t-25 126.5t25 126.5t71.5 113.5t113 81.5t150.5 31.5q54 0 99.5 -15.5t78 -43t51 -66t18.5 -83.5q0 -26 -22.5 -44.5t-52.5 -18.5q-31 0 -53 18.5t-22 44.5q0 16 9.5 30t24 22t33 10t36.5 -4q-20 58 -71 89t-129 31
q-44 0 -82.5 -14t-67 -38t-45 -56.5t-16.5 -69.5v-290q0 -37 17 -69.5t45.5 -57t67 -38.5t82.5 -14q52 0 92 15t66 40.5t39.5 60.5t13.5 75h35q0 -46 -16 -86t-47.5 -70t-77 -47t-105.5 -17z" />
    <glyph glyph-name="D" unicode="D" horiz-adv-x="795" 
d="M396 0h-360v30l112 -1v647h-112v30h360q85 0 152 -31.5t114 -81.5t72 -113.5t25 -126.5q0 -64 -25 -127t-72 -113.5t-114 -81.5t-152 -31zM609 498q0 40 -15.5 73t-43 56t-66.5 36t-86 13h-100v-646q25 -1 49.5 -1h48.5q44 0 83 14t68 38t45.5 56.5t16.5 70.5v290z" />
    <glyph glyph-name="E" unicode="E" horiz-adv-x="675" 
d="M508 0h-472v29h111v647h-111v29h472q58 0 94.5 -32.5t36.5 -90.5h-33q-5 45 -29.5 69.5t-66.5 24.5h-214v-309h226v-29h-226v-309h212q40 0 66 20q-34 -4 -59 15t-25 47q0 26 22 44.5t53 18.5t52.5 -18.5t21.5 -44.5q0 -24 -10 -44.5t-27 -35t-41.5 -23t-52.5 -8.5z" />
    <glyph glyph-name="F" unicode="F" horiz-adv-x="675" 
d="M565 531q-31 0 -53 18.5t-22 44.5q0 29 25 47.5t59 15.5q-25 19 -67 19h-211v-308h226v-30h-226v-309h112v-29h-372v29h111v647h-111v30h472q58 0 94.5 -31.5t36.5 -80.5q0 -26 -22 -44.5t-52 -18.5z" />
    <glyph glyph-name="G" unicode="G" horiz-adv-x="799" 
d="M399 0q-85 0 -152 31t-114 81.5t-72 113.5t-25 127q0 63 25 126t72 113.5t114.5 81.5t151.5 31q55 0 100.5 -16t78.5 -43.5t51 -65.5t18 -82q0 -26 -21.5 -44.5t-53.5 -18.5q-31 0 -53 18.5t-22 44.5q0 17 9.5 30.5t24.5 21.5t33.5 10t36.5 -4q-21 57 -72 88.5t-130 31.5
q-46 0 -85 -13.5t-67.5 -37.5t-44.5 -56.5t-16 -70.5v-290q0 -37 16.5 -69.5t45.5 -57t68 -38.5t83 -14t83 14t68 38.5t45.5 57t16.5 69.5v130h-227v29h378q0 -68 -24.5 -134t-71.5 -118t-114.5 -83.5t-153.5 -31.5z" />
    <glyph glyph-name="H" unicode="H" horiz-adv-x="912" 
d="M763 676v-646h113v-30h-377v30h113v308h-312v-308h113v-30h-377v30h113v646h-113v30h377v-30h-113v-308h312v308h-113v30h377v-30h-113z" />
    <glyph glyph-name="I" unicode="I" horiz-adv-x="432" 
d="M36 0v29h108v647h-108v30h360v-30h-108v-647h108v-29h-360z" />
    <glyph glyph-name="J" unicode="J" horiz-adv-x="675" 
d="M528 676v-420q0 -55 -23 -101.5t-63.5 -81t-96 -54t-120.5 -19.5q-41 0 -76 12t-60 33t-39 50t-14 64q0 26 21.5 45t53.5 19q31 0 52.5 -18.5t21.5 -44.5q0 -16 -8.5 -29.5t-22.5 -22t-31.5 -11t-35.5 2.5q17 -34 50.5 -52.5t83.5 -18.5q33 0 62 10t50 27.5t33.5 41.5
t12.5 52v516h-111v30h371v-30h-111z" />
    <glyph glyph-name="K" unicode="K" horiz-adv-x="912" 
d="M499 0v29h95l-239 267l-55 -92v-175h113v-29h-377v29h113v647h-113v30h377v-30h-113v-406l198 331q9 16 25 34t36.5 34t44.5 26.5t50 10.5q31 0 52 -10t33.5 -26t18 -36t5.5 -40q0 -26 -22 -44.5t-53 -18.5q-32 0 -54 18.5t-22 44.5q0 16 8.5 29.5t22.5 22t31 11t35 -1.5
q-19 21 -55 21q-18 0 -36 -8.5t-35 -21.5t-30.5 -28.5t-22.5 -29.5l-111 -185l336 -374h121v-29h-377z" />
    <glyph glyph-name="L" unicode="L" horiz-adv-x="675" 
d="M508 0h-472v29h111v647h-111v29h260v-676h212q40 0 66 20q-34 -4 -59 15t-25 47q0 26 22 44.5t53 18.5t52.5 -18.5t21.5 -44.5q0 -49 -36.5 -80t-94.5 -31z" />
    <glyph glyph-name="M" unicode="M" horiz-adv-x="1152" 
d="M1002 676v-646h114v-30h-379v30h113v598q-91 -149 -180.5 -297.5t-180.5 -298.5l-304 587v-589h114v-30h-263v30h114v646h-114v30h260l259 -500l302 500h259v-30h-114z" />
    <glyph glyph-name="N" unicode="N" horiz-adv-x="912" 
d="M499 0v29h100l-415 606v-606h113v-29h-261v29h113v647h-113v30h256l436 -636v606h-113v30h261v-30h-113v-647h113v-29h-377z" />
    <glyph glyph-name="O" unicode="O" horiz-adv-x="799" 
d="M399 0q-84 0 -151.5 31t-114.5 81.5t-72 113.5t-25 127q0 63 25 126.5t72 113.5t114.5 81.5t151.5 31.5q85 0 152.5 -31.5t114.5 -81.5t72 -113.5t25 -126.5q0 -64 -25 -127t-72 -113.5t-114.5 -81.5t-152.5 -31zM612 498q0 37 -16.5 69.5t-45.5 56.5t-68 38t-83 14
t-82.5 -14t-67.5 -38t-46 -56.5t-17 -69.5v-290q0 -37 16.5 -69.5t45.5 -56.5t68 -38t83 -14t83 14t68 38t45.5 56.5t16.5 69.5v290z" />
    <glyph glyph-name="P" unicode="P" horiz-adv-x="795" 
d="M511 290h-213v-260h112v-30h-374v30h112v646h-112v30h475q52 0 97 -16.5t78.5 -44.5t53 -66t19.5 -81t-19.5 -81t-53 -66t-79 -44.5t-96.5 -16.5zM511 676h-213v-357h213q45 0 71.5 22t26.5 60v193q0 34 -28.5 58t-69.5 24z" />
    <glyph glyph-name="Q" unicode="Q" horiz-adv-x="799" 
d="M559 36q-37 -21 -60.5 -51t-23.5 -67q0 -36 26.5 -59t70.5 -23q40 0 67 19q-34 -3 -59 16t-25 47q0 26 21.5 45t53.5 19t53.5 -18.5t21.5 -45.5q0 -49 -36.5 -80.5t-96.5 -31.5q-64 0 -98.5 33t-34.5 85q0 26 9 46t25 37q-18 -3 -36.5 -5t-37.5 -2q-84 0 -151.5 31.5
t-114.5 82t-72 114t-25 127.5t25 127.5t72 114.5t114.5 82.5t151.5 31.5q85 0 152.5 -31.5t114.5 -82.5t72 -114.5t25 -127.5q0 -106 -51.5 -183t-152.5 -136zM612 501q0 37 -16.5 70t-45.5 57.5t-68 38.5t-83 14t-82.5 -14t-67.5 -38.5t-46 -57.5t-17 -70v-292
q0 -37 16.5 -69.5t45.5 -57t68 -38.5t83 -14t83 14t68 38.5t45.5 57t16.5 69.5v292z" />
    <glyph glyph-name="R" unicode="R" horiz-adv-x="1035" 
d="M546 706q46 0 86 -15t70 -39.5t47.5 -58t17.5 -71.5q0 -54 -33.5 -98t-89.5 -67q66 -18 106 -64.5t42 -105.5q1 -25 0.5 -50t-0.5 -50q0 -24 22 -40.5t51 -16.5q41 0 67 19q-17 -2 -32 2.5t-27 13t-19 20.5t-7 26q0 26 22.5 44.5t53.5 18.5t53.5 -19t22.5 -44
q0 -49 -38 -80t-96 -31q-45 0 -86 14.5t-72 39.5t-49 58.5t-18 71.5v96q0 24 -19.5 41t-48.5 17h-271v-308h113v-30h-378v30h113v646h-113v29q128 1 255 1h255zM615 618q0 25 -20 41t-49 17q-61 2 -122.5 1t-122.5 -1v-309l244 1q13 0 25.5 5t22.5 13t16 18t6 21v193z" />
    <glyph glyph-name="S" unicode="S" horiz-adv-x="679" 
d="M339 0q-69 0 -125 19t-95.5 53t-61 81t-21.5 103q0 26 22 44.5t53 18.5t52.5 -18.5t21.5 -44.5q0 -17 -9.5 -30.5t-24.5 -22t-34 -10t-37 5.5q23 -80 88.5 -124.5t170.5 -44.5q32 0 60 10t49 28t33 41.5t12 50.5v193q0 60 -42 94.5t-112 35.5q-58 1 -94.5 31t-36.5 80
q0 51 36.5 81.5t94.5 30.5q60 0 96 -30t36 -82q0 -26 -21.5 -44.5t-52.5 -18.5q-32 0 -53.5 18.5t-21.5 44.5q0 28 24.5 47t57.5 16q-29 19 -65 19q-43 0 -69.5 -22.5t-26.5 -59.5q0 -36 26.5 -59t69.5 -23q63 0 118.5 -20t96.5 -54.5t65 -81.5t24 -100t-24 -99.5t-65 -81.5
t-96.5 -55t-118.5 -20z" />
    <glyph glyph-name="T" unicode="T" horiz-adv-x="915" 
d="M167 676q-40 0 -65 -19q34 3 59.5 -15.5t25.5 -47.5q0 -26 -22 -44.5t-53 -18.5q-32 0 -54 18t-22 45q0 49 37.5 80t96.5 31h709v-29h-344v-647h113v-29h-377v29h113v647q-54 0 -108.5 -0.5t-108.5 0.5z" />
    <glyph glyph-name="U" unicode="U" horiz-adv-x="1032" 
d="M883 676v-326q0 -65 -25.5 -127.5t-72.5 -112t-115.5 -80t-153.5 -30.5q-87 0 -155.5 31t-115.5 81t-71.5 113t-24.5 127v324h-113v30h378v-30h-113v-468q0 -37 17 -69.5t46 -57t68 -38.5t84 -14t84 14t68 38.5t46 57t17 69.5v468h-113v30h378v-30h-113z" />
    <glyph glyph-name="V" unicode="V" horiz-adv-x="1032" 
d="M877 676l-361 -698l-361 698h-119v30h378v-30h-104l264 -511l264 511h-104v30h262v-30h-119z" />
    <glyph glyph-name="W" unicode="W" horiz-adv-x="1512" 
d="M1356 676l-365 -698l-235 450l-235 -450l-365 698h-120v30h382v-30h-105l267 -511l156 300l-109 211h-121v30h500v-30h-121l-51 -98l216 -413l267 511h-105v30h264v-30h-120zM783 676l32 -60l31 60h-63z" />
    <glyph glyph-name="X" unicode="X" horiz-adv-x="792" 
d="M382 0v29h103l-137 268q-37 -29 -67 -58t-51 -61.5t-33 -69t-13 -79.5h111v-29h-259v29h112q2 49 16 89.5t38 76t57 67.5t74 64l-179 350h-118v30h374v-30h-103l137 -267q37 29 67 58t51 61t32.5 68.5t13.5 79.5h-111v30h259v-30h-112q-2 -49 -16 -89.5t-38 -76
t-57 -67.5t-74 -63l179 -351h118v-29h-374z" />
    <glyph glyph-name="Y" unicode="Y" horiz-adv-x="792" 
d="M637 676l-166 -278v-368h112v-30h-374v30h112v368l-166 278h-119v30h374v-30h-101l145 -242l144 242h-101v30h259v-30h-119z" />
    <glyph glyph-name="Z" unicode="Z" horiz-adv-x="684" 
d="M200 29h313q41 0 67 20q-34 -4 -59 15t-25 47q0 26 21.5 44.5t53.5 18.5q31 0 52.5 -18t21.5 -44q0 -51 -36 -81.5t-96 -30.5h-487l457 676h-313q-43 0 -66 -19q16 2 31.5 -2.5t27 -13t18.5 -21t7 -26.5q0 -26 -22 -44.5t-53 -18.5t-53 18.5t-22 44.5q0 49 37 80.5
t95 31.5l488 -1z" />
    <glyph glyph-name="bracketleft" unicode="[" horiz-adv-x="315" 
d="M36 0v706h243v-30h-104v-646h104v-30h-243z" />
    <glyph glyph-name="backslash" unicode="\" horiz-adv-x="438" 
d="M375 -1l-343 697l31 12l343 -698z" />
    <glyph glyph-name="bracketright" unicode="]" horiz-adv-x="315" 
d="M36 0v30h104v646h-104v30h243v-706h-243z" />
    <glyph glyph-name="asciicircum" unicode="^" horiz-adv-x="317" 
d="M263 597l-105 79q-42 -32 -62 -47.5t-28 -21.5t-9.5 -7t-5.5 -4q-5 4 -7 6l-3.5 3.5t-3.5 3t-8 5.5l127 97l128 -97z" />
    <glyph glyph-name="underscore" unicode="_" horiz-adv-x="552" 
d="M36 -99v28h480v-28h-480z" />
    <glyph glyph-name="grave" unicode="`" 
d="M92 594q11 -9 26.5 -13.5t41.5 -4.5v-26q-58 0 -91 28t-33 71q0 23 18.5 40t45.5 17q26 0 44.5 -17t18.5 -40q0 -12 -5.5 -23t-15.5 -18.5t-22.5 -11.5t-27.5 -2z" />
    <glyph glyph-name="a" unicode="a" horiz-adv-x="639" 
d="M361 0v17q-46 -17 -97 -17t-96 16t-78 43.5t-52.5 64.5t-19.5 79t19.5 79t52.5 64.5t78 43.5t96 16q49 0 97 -17v17h149v-377h111v-29h-260zM361 297q0 16 -7.5 31t-21 25.5t-31 17t-37.5 6.5t-37.5 -6.5t-31 -17t-21 -25.5t-7.5 -31v-189q0 -38 25.5 -59t71.5 -21
q20 0 37.5 6.5t31 17t21 25t7.5 31.5v189z" />
    <glyph glyph-name="b" unicode="b" horiz-adv-x="639" 
d="M375 0h-357v30h111v646h-111v30h260v-290q28 0 56.5 -1t54.5 0q49 1 91 -15t73.5 -45t49.5 -67t18 -80q0 -43 -19 -81t-52.5 -66t-78.5 -44.5t-96 -16.5zM472 305q0 38 -25.5 59.5t-71.5 21.5h-97v-357q25 0 49 0.5t48 0.5q41 0 69 23.5t28 57.5v194z" />
    <glyph glyph-name="c" unicode="c" horiz-adv-x="403" 
d="M307 36q-14 5 -22 16t-8 25q0 19 15.5 32.5t38.5 13.5q22 0 38 -14t16 -32q0 -25 -13.5 -40t-33 -23.5t-41.5 -11t-40 -2.5q-50 0 -93.5 16t-75.5 43.5t-51 64.5t-19 79q0 99 64 151t177 52q18 0 39.5 -4t41 -13t32.5 -24t13 -37q0 -19 -16 -32t-38 -13q-23 0 -38.5 13
t-15.5 32q0 14 8 25t22 17q-11 3 -23.5 5t-24.5 2q-40 0 -68 -23t-28 -57v-188q0 -33 27.5 -56.5t66.5 -23.5q12 0 25 1.5t25 5.5z" />
    <glyph glyph-name="d" unicode="d" horiz-adv-x="639" 
d="M264 0q-51 0 -96 16.5t-78 44.5t-52.5 66t-19.5 81q0 44 19 82t52 66t78 44t97 16h97v260h-111v29h260v-675h111v-30h-357zM361 386h-97q-18 0 -35.5 -7t-31 -18.5t-22 -26.5t-8.5 -30v-193q0 -34 28.5 -58t69.5 -24q24 0 48 0.5t48 0.5v356z" />
    <glyph glyph-name="e" unicode="e" horiz-adv-x="523" 
d="M313 36q-14 5 -22.5 16t-8.5 25q0 19 16 32.5t39 13.5t39 -13.5t16 -32.5q0 -23 -14 -38t-34 -23.5t-42.5 -12t-40.5 -3.5q-52 0 -96.5 15.5t-77 42.5t-51 64t-18.5 81q0 42 19.5 78.5t52.5 64t77 43.5t94 16q56 0 101 -17.5t77 -47t49 -69t17 -83.5h-339v-79
q0 -33 28 -56.5t67 -23.5q28 0 52 7zM357 297q0 35 -27 57.5t-69 22.5t-68.5 -22.5t-26.5 -57.5v-80h191v80z" />
    <glyph glyph-name="f" unicode="f" horiz-adv-x="519" 
d="M428 531q-31 0 -52.5 18.5t-21.5 44.5q0 14 6.5 26t18 21t26 13.5t31.5 2.5q-23 19 -65 19q-96 0 -96 -82v-178h223v-30h-223v-356h110v-30h-367v30h110v356h-110v30h110v84q0 98 64 152t179 54q57 0 93.5 -31.5t36.5 -80.5q0 -26 -21.5 -44.5t-51.5 -18.5z" />
    <glyph glyph-name="g" unicode="g" horiz-adv-x="638" 
d="M509 386v-469q0 -44 -18 -81.5t-50.5 -65t-77.5 -43t-99 -15.5q-29 0 -53 8.5t-41.5 23t-27.5 35t-10 44.5q0 26 22 44.5t53 18.5t52.5 -18.5t21.5 -44.5q0 -28 -24.5 -46.5t-57.5 -15.5q25 -20 62 -20q43 0 71 23.5t28 58.5v177h-96q-52 0 -97 16t-78 44.5t-52 66
t-19 81.5q0 43 19.5 80.5t52.5 65.5t78 44.5t96 16.5h356v-29h-111zM167 111q0 -27 8 -43t21.5 -24.5t31 -11.5t38.5 -3h19h28t28 0.5t19 0.5v356h-96q-41 0 -69 -24t-28 -58q0 -48 -0.5 -96t0.5 -97z" />
    <glyph glyph-name="h" unicode="h" horiz-adv-x="756" 
d="M364 0v30h112v355q-26 -2 -52.5 -10.5t-52 -20.5t-49 -26.5t-42.5 -29.5v-298h-262v30h112v646h-112v30h262v-369q44 30 100 54.5t113 24.5q58 0 95.5 -31.5t37.5 -80.5v-274h112v-30h-374z" />
    <glyph glyph-name="i" unicode="i" horiz-adv-x="396" 
d="M198 480q-30 0 -51 18.5t-21 44.5t21 44.5t51 18.5t51 -18.5t21 -44.5t-21 -44.5t-51 -18.5zM18 0v29h108v355h-108v30l252 -1v-384h108v-29h-360z" />
    <glyph glyph-name="j" unicode="j" horiz-adv-x="342" 
d="M192 478q-30 0 -51.5 19t-21.5 45t21.5 44.5t51.5 18.5q29 0 50.5 -18.5t21.5 -44.5t-21.5 -45t-50.5 -19zM26 -297q-56 0 -91.5 31.5t-35.5 80.5q0 26 21.5 44.5t50.5 18.5t50.5 -18.5t21.5 -44.5q0 -14 -6.5 -26t-17 -21t-25 -13.5t-30.5 -2.5q23 -20 59 -20
q42 0 69 23.5t27 59.5v566h-107v30h252v-502q0 -44 -17 -81.5t-48 -65t-75 -43.5t-98 -16z" />
    <glyph glyph-name="k" unicode="k" horiz-adv-x="636" 
d="M361 0v30h110q-5 36 -30.5 60.5t-60.5 47.5q-27 17 -54.5 35.5t-47.5 41.5v-215h-260v30h111v646h-111v29l260 1v-323q36 33 97 33q29 0 53 -8.5t41.5 -23t27.5 -35t10 -44.5q0 -26 -22 -45t-53 -19t-52.5 19t-21.5 45q0 14 7 26t18 20.5t26 13t32 2.5q-23 19 -66 19
t-70 -22.5t-27 -58.5q0 -24 9 -43t24 -34.5t34 -29t40 -26.5q21 -14 41.5 -28t37 -31t28 -37.5t14.5 -45.5h112v-30h-257z" />
    <glyph glyph-name="l" unicode="l" horiz-adv-x="396" 
d="M18 0v29h108v647h-108v30l252 -1v-676h108v-29h-360z" />
    <glyph glyph-name="m" unicode="m" horiz-adv-x="1116" 
d="M719 0v29h113v347q-26 -2 -53 -10t-53 -20t-49.5 -26t-42.5 -29v-291h-266v29h114v347q-26 -2 -53 -10t-53 -20t-49.5 -26t-42.5 -29v-291h-266v29h114v348h-114v29h266v-77q45 31 101 54t119 23q46 0 80 -23t45 -57q47 32 102.5 56t121.5 24q62 0 96.5 -30t34.5 -79
q2 -134 0 -268h114v-29h-379z" />
    <glyph glyph-name="n" unicode="n" horiz-adv-x="756" 
d="M364 0v29h112v347q-26 -2 -52.5 -10t-52 -20t-49 -26t-42.5 -29v-137v-154h-262v29h112v348h-112v29h262v-77q22 15 47.5 28.5t53 24.5t56 17.5t56.5 6.5q29 0 53.5 -8t42 -22.5t27.5 -34.5t10 -44v-268h112v-29h-374z" />
    <glyph glyph-name="o" unicode="o" horiz-adv-x="523" 
d="M261 0q-49 0 -93 16.5t-77.5 44t-53 64.5t-19.5 78q0 42 19 79t52 64.5t77.5 43.5t94.5 16q51 0 95.5 -16t77.5 -43.5t52 -64.5t19 -79t-19.5 -78.5t-52.5 -64.5t-77.5 -44t-94.5 -16zM357 297q0 33 -28 56.5t-68 23.5q-39 0 -67 -23.5t-28 -56.5v-188q0 -33 27.5 -56.5
t67.5 -23.5t68 23.5t28 56.5v188z" />
    <glyph glyph-name="p" unicode="p" horiz-adv-x="638" 
d="M374 0h-96v-288h-260v30h111v643h-111v30h356q53 0 98 -14.5t77.5 -40.5t51 -63.5t18.5 -83.5q0 -44 -18 -83t-50 -68t-77.5 -45.5t-99.5 -16.5zM471 304q0 34 -28 57.5t-69 23.5h-96v-355h96q45 0 71 21.5t26 59.5v193z" />
    <glyph glyph-name="q" unicode="q" horiz-adv-x="638" 
d="M509 385v-673h-260v29h111v259h-98q-56 0 -101.5 14t-77 41t-48.5 65.5t-17 86.5q0 43 19.5 81t52.5 66t78 44.5t96 16.5h356v-30h-111zM360 385q-24 1 -48 0.5t-48 -0.5q-41 0 -69 -23.5t-28 -57.5v-183q0 -30 9 -48t23.5 -27.5t32.5 -13t37 -3.5h91v356z" />
    <glyph glyph-name="r" unicode="r" horiz-adv-x="519" 
d="M428 235q-31 0 -52.5 18t-21.5 44q0 14 7 26t18 20.5t26 12.5t32 2q-25 19 -66 19q-43 0 -69.5 -22.5t-26.5 -57.5v-268h108v-29h-365v29h110v348h-110v29h127.5t129.5 -1v-32q34 33 96 33q28 0 52 -8t41.5 -22.5t27 -34.5t9.5 -44q0 -26 -21.5 -44t-51.5 -18z" />
    <glyph glyph-name="s" unicode="s" horiz-adv-x="403" 
d="M206 377h-5q-17 0 -27.5 -9t-10.5 -24q0 -30 40 -33t73.5 -13t57.5 -29t37.5 -47t13.5 -66q0 -35 -14.5 -63.5t-39.5 -48.5t-59.5 -31.5t-73.5 -11.5q-40 0 -73 11.5t-57 32t-37 49t-13 62.5q0 26 21.5 43.5t50.5 17.5q30 0 51.5 -17.5t21.5 -43.5q0 -16 -8.5 -29
t-22 -21t-30.5 -10.5t-35 2.5q35 -69 134 -69q16 0 27.5 9.5t11.5 23.5v188q0 14 -11 23.5t-28 9.5q-32 0 -52 17.5t-20 43.5q0 27 20 44.5t52 17.5q31 0 52 -18t21 -44q0 -16 -13 -27t-32 -11q-18 0 -31.5 11t-13.5 27q0 11 6 19.5t16 13.5z" />
    <glyph glyph-name="t" unicode="t" horiz-adv-x="516" 
d="M275 386v-356h110v-30h-367v30h110v356h-110v30h110v260h-110v30h257v-290h223v-30h-223z" />
    <glyph glyph-name="u" unicode="u" horiz-adv-x="636" 
d="M472 377h-111v28h257v-28h-111v-237q0 -34 -15.5 -60t-42 -44t-60.5 -27t-71 -9q-35 0 -69 10t-60.5 28t-43 44t-16.5 58v237h-111v28h260v-348q0 -28 40 -28q67 0 110.5 30t43.5 89v229z" />
    <glyph glyph-name="v" unicode="v" horiz-adv-x="756" 
d="M619 377q-57 -94 -115.5 -189.5t-125.5 -204.5l-241 394h-119v29h374v-29h-101l145 -236l144 236h-101v29h259v-29h-119z" />
    <glyph glyph-name="w" unicode="w" horiz-adv-x="1116" 
d="M978 377l-245 -394l-175 282l-175 -282l-245 394h-120v29h730v-29h-103l147 -236l146 236h-103v29h263v-29h-120zM489 377h-194l146 -236l97 156z" />
    <glyph glyph-name="x" unicode="x" horiz-adv-x="636" 
d="M364 0l-95 157q-42 -26 -70.5 -56t-33.5 -72h110v-29h-257v29h112q2 27 13 49t27.5 40.5t37.5 34.5t45 30l-117 194h-118v29h254l95 -158q42 26 70.5 56.5t33.5 72.5h-110v29h257v-29h-112q-2 -27 -13 -49t-27.5 -41t-37.5 -35t-45 -30l117 -193h118v-29h-254z" />
    <glyph glyph-name="y" unicode="y" horiz-adv-x="758" 
d="M621 376l-340 -569q-9 -16 -25 -34t-36.5 -33.5t-44.5 -26t-49 -10.5q-31 0 -51.5 10t-33 25.5t-18 35.5t-5.5 40q0 26 22 44.5t53 18.5t53 -18.5t22 -44.5q0 -16 -8.5 -29t-22 -21.5t-30.5 -11.5t-35 2q19 -22 54 -22q18 0 36 8.5t35 21.5t30.5 28.5t22.5 29.5l111 185
l-221 371h-119v30h374v-30h-101l144 -241l144 241h-101v30h259v-30h-119z" />
    <glyph glyph-name="z" unicode="z" horiz-adv-x="467" 
d="M127 370q14 -6 22.5 -17t8.5 -25q0 -19 -15.5 -32t-38.5 -13t-38.5 13t-15.5 32q0 24 13.5 39t33 23.5t41.5 12t40 3.5h249l-222 -377h83q27 0 51 7q-14 6 -22 16.5t-8 24.5q0 19 15.5 32.5t38.5 13.5q24 0 39 -13t15 -33q0 -22 -13.5 -37t-33 -24t-41.5 -12.5t-39 -3.5
h-251l223 377h-84q-12 0 -25.5 -2t-25.5 -5z" />
    <glyph glyph-name="braceleft" unicode="{" horiz-adv-x="372" 
d="M115 181v99q0 25 -20.5 41.5t-58.5 16.5v30q38 0 58.5 16.5t20.5 40.5v100q0 40 15.5 73.5t44.5 57.5t70 37t91 13v-30q-38 0 -58.5 -17t-20.5 -41q0 -27 0.5 -54t-0.5 -55q-2 -57 -36.5 -97t-88.5 -60q56 -21 89.5 -65t35.5 -100q1 -25 0.5 -50t-0.5 -50
q0 -24 20.5 -40.5t58.5 -16.5v-30q-50 0 -91 13t-70 37t-44.5 57t-15.5 74z" />
    <glyph glyph-name="bar" unicode="|" horiz-adv-x="247" 
d="M111 0v702h24v-702h-24z" />
    <glyph glyph-name="braceright" unicode="}" horiz-adv-x="372" 
d="M257 280v-96q0 -41 -15.5 -75t-44 -58t-69.5 -37.5t-92 -13.5v30q38 0 58.5 16.5t20.5 40.5v99q0 61 32.5 104t90.5 63q-58 20 -90.5 63t-32.5 103v99q0 24 -20.5 41t-58.5 17v30q51 0 92 -13.5t69.5 -37.5t44 -58t15.5 -75v-97q0 -24 20.5 -40.5t58.5 -16.5v-31
q-18 1 -32.5 -3.5t-25 -12.5t-16 -19t-5.5 -22z" />
    <glyph glyph-name="asciitilde" unicode="~" horiz-adv-x="558" 
d="M392 200q-25 0 -43.5 4t-33 10t-26.5 14t-22 16q-25 18 -45.5 27.5t-55.5 9.5q-28 0 -57 -10.5t-50 -33.5l-29 15q58 54 136 54q49 0 76.5 -14t48.5 -30q12 -9 23 -16t22.5 -11.5t24.5 -7t31 -2.5q30 0 55.5 10t51.5 33l28 -14q-28 -28 -63.5 -41t-71.5 -13z" />
    <glyph glyph-name="Euro" unicode="&#x20ac;" horiz-adv-x="795" 
d="M511 0q-73 0 -134 24.5t-107 65t-76 92.5t-40 108h-118v29h114q-1 8 -1.5 17t-0.5 17t0.5 16.5t1.5 16.5h-114v30h118q10 55 40 107.5t76 93t107 65t134 24.5q57 0 103 -14.5t78.5 -42t49.5 -66t17 -86.5q0 -26 -22 -44t-53 -18t-53 18.5t-22 44.5q0 17 9.5 30.5t24 21.5
t33 10t36.5 -4q-20 56 -68.5 88t-121.5 32q-46 0 -87 -13t-71.5 -37t-48 -56.5t-17.5 -71.5v-82h228v-30h-228v-67h228v-29h-228v-82q0 -37 17 -69.5t46 -56.5t67.5 -38t82.5 -14q78 0 129.5 31t71.5 89q-18 -6 -36.5 -4.5t-33 10t-24 22t-9.5 30.5q0 26 22 44.5t53 18.5
q32 0 53.5 -18.5t21.5 -44.5q0 -48 -17 -86.5t-49.5 -65.5t-78.5 -41.5t-103 -14.5z" />
    <glyph glyph-name="quotesinglbase" unicode="&#x201a;" 
d="M39 -49v26q44 0 67 17q-29 -2 -49.5 15t-20.5 40t18.5 40t44.5 17t45 -17t19 -40q0 -42 -33 -70t-91 -28z" />
    <glyph glyph-name="florin" unicode="&#x192;" horiz-adv-x="877" 
 />
    <glyph glyph-name="quotedblbase" unicode="&#x201e;" horiz-adv-x="439" 
d="M261 -49v26q51 0 77 17q-15 -1 -29.5 2.5t-25.5 11t-18 18t-7 23.5q0 23 21 40t51 17t51.5 -17t21.5 -40q0 -42 -38 -70t-104 -28zM39 -49v26q51 0 77 17q-15 -1 -29.5 2.5t-25.5 11t-18 18t-7 23.5q0 23 21.5 40t50.5 17q30 0 51.5 -17t21.5 -40q0 -42 -38 -70t-104 -28
z" />
    <glyph glyph-name="ellipsis" unicode="&#x2026;" horiz-adv-x="679" 
d="M568 0q-31 0 -53 15.5t-22 37.5t22 37.5t53 15.5t53 -15.5t22 -37.5t-22 -37.5t-53 -15.5zM339 0q-31 0 -52.5 15.5t-21.5 37.5t21.5 37.5t52.5 15.5t53 -15.5t22 -37.5t-22 -37.5t-53 -15.5zM111 0q-31 0 -53 15.5t-22 37.5t22 37.5t53 15.5t52.5 -15.5t21.5 -37.5
t-21.5 -37.5t-52.5 -15.5z" />
    <glyph glyph-name="circumflex" unicode="&#x2c6;" horiz-adv-x="317" 
d="M263 597l-105 79l-104 -79l-24 17l128 97l128 -97z" />
    <glyph glyph-name="perthousand" unicode="&#x2030;" horiz-adv-x="679" 
 />
    <glyph glyph-name="Scaron" unicode="&#x160;" horiz-adv-x="679" 
d="M337 771l-136 116l24 21l112 -95l112 95l25 -21zM339 0q-69 0 -125 19t-95.5 53.5t-61 81.5t-21.5 104q0 26 22 45t53 19t52.5 -19t21.5 -45t-21.5 -44.5t-52.5 -18.5q-14 0 -31 5q23 -80 88.5 -125t170.5 -45q32 0 60 10.5t49 28t33 41.5t12 51v195q0 60 -42 95t-112 36
q-58 0 -94.5 30.5t-36.5 81.5t36.5 81.5t94.5 30.5q59 0 95.5 -30.5t36.5 -81.5q0 -26 -21.5 -45t-52.5 -19q-32 0 -53.5 19t-21.5 45q0 28 24.5 47t58.5 16q-29 19 -66 19q-43 0 -69.5 -22t-26.5 -60q0 -37 26.5 -60t69.5 -23q63 0 118.5 -20t96.5 -55t65 -82t24 -101
q0 -53 -24 -100t-65 -82t-96.5 -55.5t-118.5 -20.5z" />
    <glyph glyph-name="guilsinglleft" unicode="&#x2039;" 
d="M147 96l-116 107l116 107l21 -20l-95 -87l95 -87z" />
    <glyph glyph-name="OE" unicode="&#x152;" horiz-adv-x="1159" 
d="M988 0h-482v14v16h45h69v37q-46 -32 -101 -49.5t-115 -17.5q-86 0 -154 31t-115.5 81.5t-73 113.5t-25.5 127q0 63 25.5 126.5t73 113.5t115.5 81.5t154 31.5q60 0 115 -17.5t101 -49.5v37h-69h-45v16v14h483q60 0 97 -33t37 -91h-36q1 46 -26.5 70t-72.5 24h-216v-308
h231v-30h-231v-308h216q43 0 68 19q-17 -2 -32.5 2t-27.5 12.5t-19 21t-7 26.5q0 26 22 44.5t54 18.5t54.5 -18.5t22.5 -44.5q0 -24 -10 -44.5t-28 -35t-42.5 -23t-54.5 -8.5zM620 498q0 37 -17 69.5t-46.5 56.5t-68.5 38t-84 14t-84 -14t-68.5 -38t-46.5 -56.5t-17 -69.5
v-290q0 -37 17 -69.5t46.5 -56.5t68.5 -38t84 -14t84 14t68.5 38t46.5 56.5t17 69.5v290z" />
    <glyph glyph-name="Zcaron" unicode="&#x17d;" horiz-adv-x="684" 
d="M341 771l-136 116l24 21l112 -95q45 39 66.5 57t30 25t9.5 8t5 4q7 -5 12 -9t8 -6q4 -3 6 -5zM200 30h313q42 0 67 19q-17 -2 -32 2.5t-26.5 13.5t-18.5 21t-7 26q0 26 21.5 45t53.5 19q15 0 28 -5t23.5 -14t16.5 -20.5t6 -24.5q0 -51 -36 -81.5t-96 -30.5h-487l457 681
h-313q-41 0 -66 -19q34 3 59 -16t25 -47q0 -26 -22 -45t-53 -19t-53 19t-22 45q0 49 37 80.5t95 31.5h488z" />
    <glyph glyph-name="quoteleft" unicode="&#x2018;" 
d="M99 550q-26 0 -44.5 16.5t-18.5 39.5q0 44 33 72t91 28v-27q-46 0 -67 -17q29 3 49.5 -14.5t20.5 -41.5q0 -23 -19 -39.5t-45 -16.5z" />
    <glyph glyph-name="quoteright" unicode="&#x2019;" 
d="M39 550v26q44 0 67 17q-29 -2 -49.5 15.5t-20.5 40.5t18.5 40t44.5 17t45 -17t19 -40q0 -44 -33 -71.5t-91 -27.5z" />
    <glyph glyph-name="quotedblleft" unicode="&#x201c;" horiz-adv-x="439" 
d="M330 550q-30 0 -51 16.5t-21 39.5q0 44 37.5 72t104.5 28v-27q-53 0 -77 -17q30 3 55 -13t25 -43q0 -23 -21.5 -39.5t-51.5 -16.5zM108 550q-30 0 -51 17t-21 40q0 45 36.5 72t105.5 27v-27q-53 0 -77 -17q30 3 55 -13t25 -43q0 -23 -21.5 -39.5t-51.5 -16.5z" />
    <glyph glyph-name="quotedblright" unicode="&#x201d;" horiz-adv-x="439" 
d="M261 550v26q51 0 77 17q-15 -1 -29.5 2.5t-25.5 11t-18 18.5t-7 24q0 23 21 40t51 17q31 0 52 -16.5t21 -42.5q0 -42 -38 -69.5t-104 -27.5zM39 550v26q51 0 77 17q-15 -1 -29.5 2.5t-25.5 11t-18 18.5t-7 24q0 23 21.5 40t50.5 17q30 0 51.5 -17t21.5 -40
q0 -43 -37.5 -71t-104.5 -28z" />
    <glyph glyph-name="bullet" unicode="&#x2022;" horiz-adv-x="319" 
d="M159 100q-26 0 -48 8t-39 22t-26.5 33t-9.5 40t9.5 40t26.5 33t39 22t48 8q25 0 48 -8t39.5 -22t26.5 -33t10 -40t-10 -40t-26.5 -33t-39.5 -22t-48 -8z" />
    <glyph glyph-name="endash" unicode="&#x2013;" horiz-adv-x="552" 
d="M36 200v27h480v-27h-480z" />
    <glyph glyph-name="emdash" unicode="&#x2014;" horiz-adv-x="792" 
d="M36 200v28h720v-28h-720z" />
    <glyph glyph-name="tilde" unicode="&#x2dc;" horiz-adv-x="318" 
d="M212 798q-24 0 -39.5 14t-27.5 32q-6 10 -15.5 22.5t-23.5 12.5q-8 0 -15 -4.5t-12.5 -11t-9.5 -13.5t-7 -12l-32 8q7 10 13.5 20t15 18t19.5 13.5t28 5.5q26 0 41 -14t26 -32q6 -9 15.5 -21.5t24.5 -12.5q14 0 24 13.5t19 27.5l29 -7q-9 -21 -26.5 -40t-46.5 -19z" />
    <glyph glyph-name="trademark" unicode="&#x2122;" horiz-adv-x="624" 
d="M100 678q8 -13 -2 -25.5t-28 -12.5q-14 0 -24 8t-10 19q0 17 13.5 28t36.5 11h272l64 -119l76 119h90v-28h-29v-151h29v-27h-126v27h29v107q-19 -29 -39.5 -61t-49.5 -78l-71 131v-99h29v-27h-93v27h29v151h-95v-151h29v-27h-126v27h30v151h-34z" />
    <glyph glyph-name="scaron" unicode="&#x161;" horiz-adv-x="403" 
d="M200 474l-133 115l24 21l109 -94l109 94l23 -21zM206 384h-5q-17 0 -27.5 -9t-10.5 -24q0 -19 12.5 -26.5t32.5 -7.5q47 0 80.5 -12.5t55 -34t31.5 -50t10 -61.5t-14.5 -62t-39.5 -50.5t-58.5 -34t-71.5 -12.5q-40 0 -73.5 12t-58 33t-38 50t-13.5 64q0 26 21.5 44
t50.5 18q30 0 51.5 -18t21.5 -44q0 -16 -8.5 -29t-22 -21.5t-30.5 -11.5t-35 2q17 -34 51 -52t83 -18q16 0 27.5 10t11.5 24v192q0 14 -11 23.5t-28 9.5q-32 0 -52 18t-20 45t20 45t52 18q33 0 53 -17t20 -46q0 -16 -13 -27.5t-32 -11.5q-18 0 -31.5 11t-13.5 28
q0 11 6 19.5t16 13.5z" />
    <glyph glyph-name="guilsinglright" unicode="&#x203a;" 
d="M52 96l-21 19l95 88l-95 87l21 19l116 -106z" />
    <glyph glyph-name="oe" unicode="&#x153;" horiz-adv-x="883" 
d="M668 36q-14 6 -23 16.5t-9 24.5q0 19 16.5 32.5t39.5 13.5q22 0 41.5 -13t19.5 -33q0 -24 -14.5 -39.5t-35.5 -23.5t-45 -11t-43 -3q-49 0 -94 15t-80 43q-35 -27 -80 -42.5t-94 -15.5q-51 0 -96.5 16t-79 44t-53.5 64.5t-20 78.5t19.5 79t53.5 64.5t79.5 43.5t96.5 16
q50 0 94.5 -15t79.5 -43q35 27 80.5 42.5t93.5 15.5q52 0 98 -16.5t79.5 -45.5t53 -69t19.5 -87h-348v-79q0 -17 7.5 -31.5t21 -25t31.5 -17t38 -6.5q13 0 26.5 1.5t26.5 5.5zM713 297q0 16 -7.5 31t-21 25.5t-31.5 17t-38 6.5t-38 -6.5t-31.5 -17t-21 -25.5t-7.5 -31v-80
h196v80zM267 377q-20 0 -38 -6.5t-31.5 -17t-21 -25.5t-7.5 -31v-188q0 -35 27.5 -57.5t70.5 -22.5q19 0 37 6t31.5 16.5t22 24.5t8.5 30v191q0 16 -7.5 31t-21 25.5t-31.5 17t-39 6.5z" />
    <glyph glyph-name="zcaron" unicode="&#x17e;" horiz-adv-x="467" 
d="M232 474l-133 115l24 21l109 -94l109 94l24 -21zM127 377q14 -5 22.5 -16.5t8.5 -25.5q0 -20 -15.5 -33.5t-38.5 -13.5t-38.5 13.5t-15.5 33.5q0 22 10 37t26 24.5t36.5 13.5t42.5 4q66 0 131 -0.5t131 -0.5l-222 -384h61q34 0 48 2t26 5q-14 6 -22.5 17.5t-8.5 25.5
q0 19 15.5 32.5t38.5 13.5t38.5 -13.5t15.5 -32.5q0 -24 -13.5 -39.5t-33 -24t-41.5 -12t-40 -3.5h-250l223 384h-84q-13 0 -26 -1.5t-25 -5.5z" />
    <glyph glyph-name="Ydieresis" unicode="&#x178;" horiz-adv-x="792" 
d="M472 809q-23 0 -39.5 13.5t-16.5 33.5t16.5 33.5t39.5 13.5t39.5 -13.5t16.5 -33.5t-16.5 -33.5t-39.5 -13.5zM319 809q-23 0 -39.5 13.5t-16.5 33.5t16.5 33.5t39.5 13.5t39 -13.5t16 -33.5t-16 -33.5t-39 -13.5zM637 681l-166 -280v-371h112v-30h-374v30h112v371
l-166 280h-119v30h374v-30h-101l145 -244l144 244h-101v30h259v-30h-119z" />
    <glyph glyph-name="exclamdown" unicode="&#xa1;" 
d="M99 280q-26 0 -44.5 18.5t-18.5 44.5t18.5 44.5t44.5 18.5t45 -18.5t19 -44.5t-19 -44.5t-45 -18.5zM85 -296v506h29v-506h-29z" />
    <glyph glyph-name="cent" unicode="&#xa2;" horiz-adv-x="403" 
d="M308 36q-14 5 -22.5 16t-8.5 25q0 19 15.5 32.5t38.5 13.5t38 -13.5t15 -32.5q0 -22 -13 -37t-32 -24t-41 -12.5t-39 -3.5q-48 0 -90 14t-76 42l-53 -59l-27 17l56 63q-51 56 -51 126q0 40 19.5 77t52 65t76 44.5t91.5 16.5q20 0 43 -4.5t43 -14.5l20 22l26 -17l-20 -24
q16 -18 16 -39q0 -14 -8 -25t-21 -16.5t-28 -5t-28 8.5l-137 -156v-26q0 -35 28 -57.5t69 -22.5q12 0 24.5 1.5t23.5 5.5zM307 370q-12 3 -25 5t-25 2q-41 0 -67.5 -22t-26.5 -57v-115l116 132q-6 16 2 31.5t26 23.5z" />
    <glyph glyph-name="sterling" unicode="&#xa3;" horiz-adv-x="679" 
d="M151 504q3 45 21 82t49.5 63.5t76 41t98.5 14.5q58 0 95 -31t37 -80q0 -26 -21 -44.5t-53 -18.5q-31 0 -53 18.5t-22 44.5q0 14 7 26.5t18.5 21t26.5 13t32 2.5q-25 19 -66 19q-43 0 -70 -23t-27 -59v-178h225v-30h-225v-226q0 -60 41 -95.5t113 -35.5q101 0 138 71
q-18 -5 -35.5 -2.5t-32 11t-23 22t-8.5 29.5q0 26 22 44.5t53 18.5q32 0 53.5 -18.5t21.5 -45.5q0 -35 -13 -64t-38 -50t-60 -33t-78 -12q-56 0 -97.5 19t-64.5 56q-12 -34 -43 -54.5t-82 -20.5h-128v29l111 1v162q-49 -6 -68 -42q19 0 32.5 -11t13.5 -28q0 -16 -13.5 -27.5
t-32.5 -11.5t-32.5 11t-13.5 28q0 45 31.5 75.5t82.5 35.5v164h-111v30h111v49.5t0.5 26t0.5 10v2.5z" />
    <glyph glyph-name="brokenbar" unicode="&#xa6;" horiz-adv-x="247" 
d="M110 0v702h25v-702h-25z" />
    <glyph glyph-name="section" unicode="&#xa7;" horiz-adv-x="558" 
d="M279 -298q-57 0 -93.5 31.5t-36.5 80.5q0 27 20.5 45.5t52.5 18.5q31 0 52.5 -19t21.5 -45q0 -14 -6.5 -26t-18 -21t-26.5 -13.5t-32 -2.5q26 -20 66 -20q41 0 72 17t53 45.5t36.5 65.5t23.5 77t13.5 80.5t6.5 74.5q-33 -45 -87.5 -71t-117.5 -26q-50 0 -94 16.5
t-77 44.5t-52.5 66t-19.5 81q0 34 2.5 84.5t10.5 106.5t24 111.5t43 100t67 72t96 27.5q57 0 93.5 -31.5t36.5 -80.5q0 -26 -21.5 -45t-52.5 -19q-30 0 -51.5 19t-21.5 45q0 28 24 47.5t58 15.5q-23 19 -65 19q-41 0 -72 -17t-53 -45.5t-36.5 -65.5t-23.5 -77t-13.5 -80
t-6.5 -75q32 45 86.5 71.5t118.5 26.5q53 0 97.5 -16t76.5 -44t50 -67t18 -84q0 -32 -2 -81t-10 -104.5t-23.5 -111.5t-42 -101t-67 -73t-97.5 -28zM374 300q0 17 -7.5 32t-20.5 26t-30.5 17.5t-36.5 6.5q-40 0 -68 -24t-28 -58v-195q0 -38 26 -60t70 -22q42 0 68.5 23
t26.5 59v195z" />
    <glyph glyph-name="dieresis" unicode="&#xa8;" horiz-adv-x="318" 
d="M230 831q-21 0 -36.5 11t-15.5 25q0 16 14.5 26t37.5 10q22 0 37 -10.5t15 -25.5q0 -14 -15 -25t-37 -11zM88 831q-22 0 -37 11t-15 25q0 15 15 25.5t37 10.5t37 -10.5t15 -25.5q0 -14 -15.5 -25t-36.5 -11z" />
    <glyph glyph-name="copyright" unicode="&#xa9;" horiz-adv-x="799" 
d="M399 0q-75 0 -141 24t-115.5 65t-78 96t-28.5 118t28.5 118t78 96t115.5 65t141 24t141.5 -24t116 -65t78 -96t28.5 -118t-28.5 -118t-78 -96t-116 -65t-141.5 -24zM399 576q-68 0 -127.5 -21.5t-104 -58.5t-70.5 -86.5t-26 -106.5t26 -106.5t70.5 -87t104 -59
t127.5 -21.5t127.5 21.5t104 59t70.5 87t26 106.5t-26 106.5t-70.5 86.5t-104 58.5t-127.5 21.5zM478 133q-14 5 -23 16.5t-9 25.5q0 20 16.5 33.5t39.5 13.5q25 0 41 -14.5t16 -34.5q0 -23 -14.5 -37.5t-34.5 -23.5t-43 -12.5t-39 -3.5q-51 0 -96.5 16.5t-80 44.5
t-54.5 65.5t-20 80.5q0 42 19.5 80t53.5 66t79 44.5t96 16.5q18 0 41 -4t43.5 -13t34.5 -24.5t14 -37.5q0 -19 -16.5 -33t-39.5 -14t-39.5 13.5t-16.5 33.5q0 14 8.5 25t22.5 17q-12 4 -25.5 5.5t-26.5 1.5q-98 0 -98 -81v-192q0 -35 29.5 -58t71.5 -23q11 0 24.5 1.5
t25.5 5.5z" />
    <glyph glyph-name="ordfeminine" unicode="&#xaa;" horiz-adv-x="375" 
d="M200 701v5h88v-179h51v-27h-139v5q-20 -5 -38 -5q-26 0 -49 8t-40 22t-27 33t-10 40t10 40t27 33t40 22t49 8q18 0 38 -5zM200 648q0 13 -11 21.5t-27 8.5t-27 -9t-11 -22v-88q0 -14 10.5 -23t27.5 -9q14 0 26 9.5t12 21.5v90z" />
    <glyph glyph-name="guillemotleft" unicode="&#xab;" horiz-adv-x="319" 
d="M265 96l-128 107l128 107l3 -3q5 -5 21 -17l-105 -87l105 -88zM158 96l-128 107l128 107q5 -4 6 -5l2 -2t4 -3.5t12 -9.5l-105 -87l105 -88z" />
    <glyph glyph-name="logicalnot" unicode="&#xac;" horiz-adv-x="555" 
d="M372 100v81h-336v25h483v-106h-147z" />
    <glyph glyph-name="uni00AD" unicode="&#xad;" horiz-adv-x="552" 
d="M36 200v27h480v-27h-480z" />
    <glyph glyph-name="registered" unicode="&#xae;" horiz-adv-x="799" 
d="M399 0q-75 0 -141 24t-115.5 65t-78 96t-28.5 118t28.5 118t78 96t115.5 65t141 24t141.5 -24t116 -65t78 -96t28.5 -118t-28.5 -118t-78 -96t-116 -65t-141.5 -24zM399 576q-68 0 -127.5 -21.5t-104 -58.5t-70.5 -86.5t-26 -106.5t26 -106.5t70.5 -87t104 -59
t127.5 -21.5t127.5 21.5t104 59t70.5 87t26 106.5t-26 106.5t-70.5 86.5t-104 58.5t-127.5 21.5zM564 174q-14 10 -14 26q0 14 12.5 24.5t29.5 10.5q18 0 30.5 -10.5t12.5 -24.5q0 -24 -19 -40t-48 -16q-44 0 -74 25.5t-32 60.5v32q0 9 -2.5 17.5t-16.5 8.5h-105v-115h46
v-29h-177v29h47v259h-47v30h225q22 0 41 -7t33 -18.5t22 -27.5t8 -34q0 -21 -11 -39t-30 -30q24 -11 38 -31t14 -44q0 -11 -1 -21t1 -21q3 -15 17 -15zM451 416q0 16 -19 16h-94v-115l94 1q19 0 19 16v82z" />
    <glyph glyph-name="macron" unicode="&#xaf;" horiz-adv-x="552" 
d="M36 779v27h480v-27h-480z" />
    <glyph glyph-name="degree" unicode="&#xb0;" horiz-adv-x="319" 
d="M159 500q-25 0 -47 8t-39 22.5t-27 33t-10 39.5t9.5 40t26.5 33t39 22t48 8q25 0 48 -8t39.5 -22t26.5 -33t10 -40t-10 -40t-26.5 -33t-39.5 -22t-48 -8zM196 647q0 13 -10.5 22t-26.5 9q-15 0 -26 -9t-11 -22v-89q0 -2 1 -7t4.5 -10t11 -9.5t20.5 -4.5q16 0 26.5 9
t10.5 22v89z" />
    <glyph glyph-name="plusminus" unicode="&#xb1;" horiz-adv-x="552" 
d="M293 386v-188h-34v188h-223v29h223v188h34v-188h223v-29h-223zM36 100v29h480v-29h-480z" />
    <glyph glyph-name="twosuperior" unicode="&#xb2;" horiz-adv-x="216" 
d="M75 666q20 -7 20 -25q0 -11 -8.5 -18.5t-21.5 -7.5q-12 0 -20.5 7.5t-8.5 18.5q0 29 20 47t52 18q30 0 51 -19.5t21 -45.5q0 -18 -7.5 -30.5t-19.5 -22t-26.5 -17t-28.5 -16.5q-9 -5 -17 -12t-12 -16h55q-7 12 1 25.5t26 13.5q12 0 20.5 -8t8.5 -19q0 -17 -12.5 -28
t-31.5 -11h-100q0 19 4 31.5t12.5 22t20 17.5t26.5 18q8 5 15 11.5t7 15.5v50q0 12 -13 12q-21 0 -33 -12z" />
    <glyph glyph-name="threesuperior" unicode="&#xb3;" horiz-adv-x="216" 
d="M76 540q10 -13 32 -13q5 0 9 3.5t4 8.5v51q0 12 -14 12q-3 0 -7.5 -1.5t-4.5 -13.5h-31q1 26 11.5 32.5t24.5 8.5q4 1 9 1.5t5 5.5v38q0 6 -6 6q-1 0 -1.5 -0.5t-1.5 -0.5q4 -6 4 -12q0 -8 -6.5 -13.5t-15.5 -5.5t-16 5.5t-7 13.5q0 18 12 29t32 11q23 0 40.5 -15.5
t17.5 -36.5q0 -20 -17 -37q31 -19 31 -54q0 -30 -20 -46.5t-52 -16.5t-52 18t-20 47q0 11 8.5 18.5t20.5 7.5q13 0 21.5 -7.5t8.5 -18.5q0 -18 -19 -25z" />
    <glyph glyph-name="acute" unicode="&#xb4;" 
d="M39 550v26q44 0 67 17q-29 -2 -49.5 15.5t-20.5 40.5t18.5 40t44.5 17t45 -17t19 -40q0 -43 -33 -71t-91 -28z" />
    <glyph glyph-name="mu" unicode="&#xb5;" horiz-adv-x="636" 
d="M507 376v-239q0 -34 -16 -60.5t-42 -44.5t-60 -27t-71 -9q-10 0 -20 1t-20 3v-99h-260v29h111v446h-111v30h260v-354q0 -11 11.5 -19.5t28.5 -8.5q31 0 59 7.5t49 22t33.5 35.5t12.5 48v239h-111v30h257v-30h-111z" />
    <glyph glyph-name="paragraph" unicode="&#xb6;" horiz-adv-x="206" 
 />
    <glyph glyph-name="guillemotright" unicode="&#xbb;" horiz-adv-x="283" 
d="M143 96l-24 19l105 88l-104 87l23 19l128 -106zM36 96l-24 19l105 88l-105 87l24 19l128 -106z" />
    <glyph glyph-name="questiondown" unicode="&#xbf;" horiz-adv-x="557" 
d="M279 279q-31 0 -52.5 18.5t-21.5 44.5t21.5 44.5t52.5 18.5q30 0 51.5 -18.5t21.5 -44.5t-21.5 -44.5t-51.5 -18.5zM284 -300q-53 0 -98.5 15.5t-78.5 43.5t-52 66.5t-19 84.5q0 42 17 78t47.5 63.5t71.5 44t89 19.5v94h35v-123q-53 0 -83 -23.5t-30 -58.5v-199
q0 -15 8 -28.5t21.5 -23.5t31 -16t35.5 -6q76 0 126 31t70 89q-18 -6 -36 -4t-32.5 10t-23.5 21.5t-9 30.5q0 26 21.5 44.5t52.5 18.5q30 0 51.5 -18.5t21.5 -44.5q0 -45 -17 -83.5t-48 -66t-74.5 -43.5t-97.5 -16z" />
    <glyph glyph-name="Agrave" unicode="&#xc0;" horiz-adv-x="1032" 
d="M470 756q-49 15 -69 48t-20 72q0 20 16.5 33.5t40.5 13.5q23 0 39.5 -13.5t16.5 -33.5q0 -11 -5.5 -20.5t-15 -16t-22 -9t-25.5 -0.5q11 -23 36 -37.5t67 -14.5v-30q-22 0 -35.5 2.5t-23.5 5.5zM618 0v30h104l-135 262h-259l-134 -262h104v-30h-262v30h119
q87 169 176.5 341.5t184.5 362.5l361 -704h119v-30h-378zM458 545l-115 -223h229z" />
    <glyph glyph-name="Aacute" unicode="&#xc1;" horiz-adv-x="1032" 
d="M500 748v30q40 0 66 14.5t37 37.5q-26 -5 -46.5 9t-20.5 37q0 20 16.5 33.5t39.5 13.5q25 0 41 -13.5t16 -33.5q0 -61 -39.5 -94.5t-109.5 -33.5zM618 0v30h104l-135 262h-259l-134 -262h104v-30h-262v30h119q87 169 176.5 341.5t184.5 362.5l361 -704h119v-30h-378z
M458 545l-115 -223h229z" />
    <glyph glyph-name="Acircumflex" unicode="&#xc2;" horiz-adv-x="1032" 
d="M628 772l-114 95l-113 -95l-25 21l138 116l139 -116zM618 0v30h104l-135 262h-259l-134 -262h104v-30h-262v30h119q87 169 176.5 341.5t184.5 362.5l361 -704h119v-30h-378zM458 545l-115 -223h229z" />
    <glyph glyph-name="Atilde" unicode="&#xc3;" horiz-adv-x="1032" 
d="M573 777q-29 0 -45.5 17t-28.5 38q-3 5 -6.5 12.5t-8.5 14t-11.5 11t-15.5 4.5q-8 0 -15 -4.5t-12.5 -12t-7 -17.5t2.5 -20l-47 13q9 26 28.5 48t50.5 22q29 0 45 -16.5t28 -38.5q3 -5 7 -12.5t9 -14t11.5 -11t15.5 -4.5q11 0 23.5 13.5t22.5 36.5l33 -9
q-9 -26 -28.5 -48t-50.5 -22zM618 0v30h104l-135 262h-259l-134 -262h104v-30h-262v30h119q87 169 176.5 341.5t184.5 362.5l361 -704h119v-30h-378zM458 545l-115 -223h229z" />
    <glyph glyph-name="Adieresis" unicode="&#xc4;" horiz-adv-x="1032" 
d="M592 809q-23 0 -39.5 13.5t-16.5 33.5t16.5 33.5t39.5 13.5q24 0 40.5 -13.5t16.5 -33.5t-17 -33.5t-40 -13.5zM437 809q-23 0 -39.5 13.5t-16.5 33.5t16 33.5t40 13.5t40.5 -13.5t16.5 -33.5t-16.5 -33.5t-40.5 -13.5zM618 0v30h104l-135 262h-259l-134 -262h104v-30
h-262v30h119q87 169 176.5 341.5t184.5 362.5l361 -704h119v-30h-378zM458 545l-115 -223h229z" />
    <glyph glyph-name="Aring" unicode="&#xc5;" horiz-adv-x="1032" 
d="M515 809q-23 0 -40 13.5t-17 33.5t17 33.5t40 13.5t40 -13.5t17 -33.5t-16.5 -33.5t-40.5 -13.5zM618 0v30h104l-135 262h-259l-134 -262h104v-30h-262v30h119q87 169 176.5 341.5t184.5 362.5l361 -704h119v-30h-378zM517 872v1q-1 1 -2 1q-2 0 -2 -2v-32q0 -2 2 -2t2 1
v1v32zM458 545l-115 -223h229z" />
    <glyph glyph-name="AE" unicode="&#xc6;" horiz-adv-x="1275" 
d="M1104 0h-483v29h105l-135 261h-261l-135 -261h104v-29h-263v29h120l363 699l216 -416v364h-114v30h483q60 0 97.5 -33t37.5 -91h-35q-2 45 -29 69.5t-71 24.5h-216v-308h231v-30h-231v-309h216q42 0 68 20q-17 -2 -32.5 2t-27.5 12.5t-19 21t-7 26.5q0 26 22.5 44.5
t54.5 18.5q31 0 54 -18.5t22 -44.5q-1 -48 -37.5 -79.5t-97.5 -31.5zM460 541l-115 -222h230z" />
    <glyph glyph-name="Ccedilla" unicode="&#xc7;" horiz-adv-x="679" 
d="M480 6q24 -14 36 -36t12 -51q0 -25 -10 -45.5t-27 -35.5t-41.5 -23.5t-52.5 -8.5q-32 0 -53.5 19t-21.5 45t21.5 44.5t53.5 18.5q34 0 56 -21.5t18 -49.5q22 21 22 57q0 37 -27 59.5t-69 21.5q-85 -1 -152 31t-113.5 83t-71 114.5t-24.5 126.5q0 64 25 127.5t71.5 114.5
t113.5 82.5t151 31.5q53 0 98 -16t78 -44t51.5 -66.5t18.5 -83.5q0 -26 -22 -44.5t-53 -18.5t-53 18.5t-22 44.5q0 17 9 30.5t24 22t33.5 10.5t36.5 -4q-20 58 -70.5 89.5t-128.5 31.5q-44 0 -82.5 -14t-67.5 -38.5t-45.5 -57.5t-16.5 -70v-291q0 -37 17 -70t45.5 -57.5
t67 -38.5t82.5 -14q101 0 157 47.5t54 131.5h35q0 -35 -10 -68t-30.5 -60t-51 -47t-71.5 -28z" />
    <glyph glyph-name="Egrave" unicode="&#xc8;" horiz-adv-x="675" 
d="M261 856q0 20 16 33.5t39 13.5t39.5 -13.5t16.5 -33.5q0 -11 -5.5 -20.5t-15 -16t-21.5 -9t-25 -0.5q11 -23 35.5 -37.5t66.5 -14.5v-30q-70 0 -108 34t-38 94zM508 0h-472v30h111v651h-111v30h472q58 0 94.5 -33t36.5 -92h-33q-5 45 -29.5 70t-66.5 25h-214v-311h226
v-29h-226v-311h212q41 0 66 19q-17 -2 -32 2.5t-26.5 13.5t-18.5 21t-7 26q0 26 22 45t53 19t52.5 -19t21.5 -45q0 -24 -10 -44.5t-27 -35.5t-41.5 -23.5t-52.5 -8.5z" />
    <glyph glyph-name="Eacute" unicode="&#xc9;" horiz-adv-x="675" 
d="M378 728v30q39 0 64.5 14.5t36.5 37.5q-26 -5 -46 9.5t-20 36.5q0 20 16 33.5t39 13.5t39.5 -13.5t16.5 -33.5q0 -60 -38 -94t-108 -34zM508 0h-472v30h111v651h-111v30h472q58 0 94.5 -33t36.5 -92h-33q-5 45 -29.5 70t-66.5 25h-214v-311h226v-29h-226v-311h212
q41 0 66 19q-17 -2 -32 2.5t-26.5 13.5t-18.5 21t-7 26q0 26 22 45t53 19t52.5 -19t21.5 -45q0 -24 -10 -44.5t-27 -35.5t-41.5 -23.5t-52.5 -8.5z" />
    <glyph glyph-name="Ecircumflex" unicode="&#xca;" horiz-adv-x="675" 
d="M504 772l-112 95l-112 -95l-24 21l136 116l136 -116zM508 0h-472v30h111v651h-111v30h472q58 0 94.5 -33t36.5 -92h-33q-5 45 -29.5 70t-66.5 25h-214v-311h226v-29h-226v-311h212q41 0 66 19q-17 -2 -32 2.5t-26.5 13.5t-18.5 21t-7 26q0 26 22 45t53 19t52.5 -19
t21.5 -45q0 -24 -10 -44.5t-27 -35.5t-41.5 -23.5t-52.5 -8.5z" />
    <glyph glyph-name="Edieresis" unicode="&#xcb;" horiz-adv-x="675" 
d="M469 809q-23 0 -39.5 13.5t-16.5 33.5q0 21 15.5 34t40.5 13q23 0 39 -13.5t16 -33.5t-16 -33.5t-39 -13.5zM316 809q-23 0 -39 13.5t-16 33.5t16 33.5t39 13.5t39.5 -13.5t16.5 -33.5t-16.5 -33.5t-39.5 -13.5zM508 0h-472v30h111v651h-111v30h472q58 0 94.5 -33
t36.5 -92h-33q-5 45 -29.5 70t-66.5 25h-214v-311h226v-29h-226v-311h212q41 0 66 19q-17 -2 -32 2.5t-26.5 13.5t-18.5 21t-7 26q0 26 22 45t53 19t52.5 -19t21.5 -45q0 -24 -10 -44.5t-27 -35.5t-41.5 -23.5t-52.5 -8.5z" />
    <glyph glyph-name="Igrave" unicode="&#xcc;" horiz-adv-x="432" 
d="M285 728q-36 0 -61.5 9t-42 25.5t-25.5 40t-12 52.5q0 20 15.5 34t37.5 14q23 0 38.5 -13.5t15.5 -33.5q0 -21 -19 -36t-45 -10q11 -23 34.5 -37.5t63.5 -14.5v-30zM36 0v30h108v651h-108v30h360v-30h-108v-651h108v-30h-360z" />
    <glyph glyph-name="Iacute" unicode="&#xcd;" horiz-adv-x="432" 
d="M146 728v30q36 0 60 14.5t36 37.5q-26 -4 -44 11t-18 35t15.5 34t38.5 14t38.5 -14.5t15.5 -34.5q0 -22 -9.5 -44.5t-27.5 -41t-44.5 -30t-60.5 -11.5zM36 0v30h108v651h-108v30h360v-30h-108v-651h108v-30h-360z" />
    <glyph glyph-name="Icircumflex" unicode="&#xce;" horiz-adv-x="432" 
d="M268 820l-53 47l-53 -47l-23 21l76 68l77 -68zM36 0v30h108v651h-108v30h360v-30h-108v-651h108v-30h-360z" />
    <glyph glyph-name="Idieresis" unicode="&#xcf;" horiz-adv-x="432" 
d="M289 809q-22 0 -37.5 13.5t-15.5 33.5t15.5 33.5t37.5 13.5q23 0 38.5 -13.5t15.5 -33.5t-15.5 -33.5t-38.5 -13.5zM142 809q-23 0 -38.5 13.5t-15.5 33.5t15.5 33.5t38.5 13.5t38.5 -13.5t15.5 -33.5t-15.5 -33.5t-38.5 -13.5zM36 0v30h108v651h-108v30h360v-30h-108
v-651h108v-30h-360z" />
    <glyph glyph-name="Eth" unicode="&#xd0;" horiz-adv-x="795" 
d="M396 0h-360v30h112v306h-112v30h112v310h-112v30h361q84 0 151.5 -31.5t114 -82t71.5 -113.5t25 -126t-25 -126.5t-72 -113.5t-114 -81.5t-152 -31.5zM609 498q0 37 -16.5 69.5t-45 56.5t-67.5 38t-83 14h-99v-310h112v-30h-112v-306h98q44 0 83 14t68 38t45.5 56.5
t16.5 69.5v290z" />
    <glyph glyph-name="Ntilde" unicode="&#xd1;" horiz-adv-x="912" 
d="M512 777q-29 0 -45.5 17t-28.5 38q-6 11 -15.5 26.5t-26.5 15.5q-11 0 -23.5 -13.5t-22.5 -36.5l-33 9q10 26 29 48t50 22q29 0 45 -16.5t28 -38.5q3 -5 7 -12.5t9 -14t11.5 -11t15.5 -4.5q11 0 23.5 13.5t21.5 36.5l34 -9q-10 -26 -29 -48t-50 -22zM499 0v30h100
l-415 610v-610h113v-30h-261v30h113v651h-113v30h256l436 -640v610h-113v30h261v-30h-113v-651h113v-30h-377z" />
    <glyph glyph-name="Ograve" unicode="&#xd2;" horiz-adv-x="799" 
d="M266 856q0 20 16 33.5t40 13.5q23 0 39.5 -13.5t16.5 -33.5q0 -22 -20.5 -36.5t-46.5 -9.5q11 -23 35.5 -37.5t66.5 -14.5v-31q-72 -2 -109.5 33.5t-37.5 95.5zM399 0q-84 0 -151.5 31.5t-114.5 82t-72 114t-25 127.5t25 127.5t72 114.5t114.5 82.5t151.5 31.5
q85 0 152.5 -31.5t114.5 -82.5t72 -114.5t25 -127.5t-25 -127.5t-72 -114t-114.5 -82t-152.5 -31.5zM612 501q0 37 -16.5 70t-45.5 57.5t-68 38.5t-83 14t-82.5 -14t-67.5 -38.5t-46 -57.5t-17 -70v-291q0 -38 16.5 -70.5t45.5 -57t68 -38.5t83 -14t83 14t68 38.5t45.5 57
t16.5 70.5v291z" />
    <glyph glyph-name="Oacute" unicode="&#xd3;" horiz-adv-x="799" 
d="M384 728v30q39 0 65 14.5t37 37.5q-26 -5 -46.5 9.5t-20.5 36.5q0 20 16.5 33.5t39.5 13.5q24 0 40 -13.5t16 -33.5q0 -60 -38.5 -94t-108.5 -34zM399 0q-84 0 -151.5 31.5t-114.5 82t-72 114t-25 127.5t25 127.5t72 114.5t114.5 82.5t151.5 31.5q85 0 152.5 -31.5
t114.5 -82.5t72 -114.5t25 -127.5t-25 -127.5t-72 -114t-114.5 -82t-152.5 -31.5zM612 501q0 37 -16.5 70t-45.5 57.5t-68 38.5t-83 14t-82.5 -14t-67.5 -38.5t-46 -57.5t-17 -70v-291q0 -38 16.5 -70.5t45.5 -57t68 -38.5t83 -14t83 14t68 38.5t45.5 57t16.5 70.5v291z" />
    <glyph glyph-name="Ocircumflex" unicode="&#xd4;" horiz-adv-x="799" 
d="M511 772l-113 95l-112 -95l-25 21l137 116l138 -116zM399 0q-84 0 -151.5 31.5t-114.5 82t-72 114t-25 127.5t25 127.5t72 114.5t114.5 82.5t151.5 31.5q85 0 152.5 -31.5t114.5 -82.5t72 -114.5t25 -127.5t-25 -127.5t-72 -114t-114.5 -82t-152.5 -31.5zM612 501
q0 37 -16.5 70t-45.5 57.5t-68 38.5t-83 14t-82.5 -14t-67.5 -38.5t-46 -57.5t-17 -70v-291q0 -38 16.5 -70.5t45.5 -57t68 -38.5t83 -14t83 14t68 38.5t45.5 57t16.5 70.5v291z" />
    <glyph glyph-name="Otilde" unicode="&#xd5;" horiz-adv-x="799" 
d="M456 777q-29 0 -45 17t-28 38q-6 11 -15.5 26.5t-26.5 15.5q-11 0 -23.5 -13.5t-22.5 -36.5l-32 9q9 26 28 48t50 22q29 0 45 -16.5t28 -38.5q3 -5 6.5 -12.5t8.5 -14t11.5 -11t15.5 -4.5q11 0 23.5 13.5t22.5 36.5l33 -9q-10 -26 -29 -48t-50 -22zM399 0
q-84 0 -151.5 31.5t-114.5 82t-72 114t-25 127.5t25 127.5t72 114.5t114.5 82.5t151.5 31.5q85 0 152.5 -31.5t114.5 -82.5t72 -114.5t25 -127.5t-25 -127.5t-72 -114t-114.5 -82t-152.5 -31.5zM612 501q0 37 -16.5 70t-45.5 57.5t-68 38.5t-83 14t-82.5 -14t-67.5 -38.5
t-46 -57.5t-17 -70v-291q0 -38 16.5 -70.5t45.5 -57t68 -38.5t83 -14t83 14t68 38.5t45.5 57t16.5 70.5v291z" />
    <glyph glyph-name="Odieresis" unicode="&#xd6;" horiz-adv-x="799" 
d="M475 809q-23 0 -39.5 13.5t-16.5 33.5t16.5 33.5t39.5 13.5t39.5 -13.5t16.5 -33.5t-16.5 -33.5t-39.5 -13.5zM322 809q-23 0 -39.5 13.5t-16.5 33.5t16.5 33.5t39.5 13.5t39.5 -13.5t16.5 -33.5t-16.5 -33.5t-39.5 -13.5zM399 0q-84 0 -151.5 31.5t-114.5 82t-72 114
t-25 127.5t25 127.5t72 114.5t114.5 82.5t151.5 31.5q85 0 152.5 -31.5t114.5 -82.5t72 -114.5t25 -127.5t-25 -127.5t-72 -114t-114.5 -82t-152.5 -31.5zM612 501q0 37 -16.5 70t-45.5 57.5t-68 38.5t-83 14t-82.5 -14t-67.5 -38.5t-46 -57.5t-17 -70v-291
q0 -38 16.5 -70.5t45.5 -57t68 -38.5t83 -14t83 14t68 38.5t45.5 57t16.5 70.5v291z" />
    <glyph glyph-name="Oslash" unicode="&#xd8;" horiz-adv-x="799" 
d="M399 0q-71 0 -133.5 24.5t-110.5 67.5l-97 -95l-27 18l101 99q-48 51 -72 112.5t-24 126.5q0 63 25 126.5t72 113.5t114.5 81.5t151.5 31.5q72 0 134 -25t110 -67l98 96l27 -20l-101 -98q48 -51 72 -113t24 -126q0 -63 -25 -126.5t-72 -113.5t-114.5 -81.5t-152.5 -31.5z
M399 676q-44 0 -82.5 -14t-67.5 -38t-46 -56.5t-17 -69.5v-290q0 -16 5 -36l404 395q-25 50 -78 79.5t-118 29.5zM612 498q0 20 -4 36l-404 -395q25 -50 78 -79.5t117 -29.5q44 0 83 14t68 38t45.5 56.5t16.5 69.5v290z" />
    <glyph glyph-name="Ugrave" unicode="&#xd9;" horiz-adv-x="1032" 
d="M381 856q0 20 16.5 33.5t40.5 13.5q23 0 39.5 -13.5t16.5 -33.5q0 -11 -5.5 -20.5t-15 -16t-22 -9t-25.5 -0.5q11 -23 36 -37.5t67 -14.5v-30q-69 1 -108.5 34.5t-39.5 93.5zM883 681v-329q0 -64 -25 -127t-72.5 -113t-115.5 -81t-154 -31q-87 0 -155.5 31.5t-115.5 82
t-71.5 114t-24.5 127.5v326h-113v30h378v-30h-113v-472q0 -37 17 -69.5t46 -57t68 -38.5t84 -14t84 14t68 38.5t46 57t17 69.5v472h-113v30h378v-30h-113z" />
    <glyph glyph-name="Uacute" unicode="&#xda;" horiz-adv-x="1032" 
d="M501 728l-1 30q40 0 66 14.5t37 37.5q-26 -5 -46.5 9t-20.5 37q0 20 16.5 33.5t39.5 13.5t40 -13.5t17 -33.5q0 -60 -39.5 -94t-108.5 -34zM883 681v-329q0 -64 -25 -127t-72.5 -113t-115.5 -81t-154 -31q-87 0 -155.5 31.5t-115.5 82t-71.5 114t-24.5 127.5v326h-113v30
h378v-30h-113v-472q0 -37 17 -69.5t46 -57t68 -38.5t84 -14t84 14t68 38.5t46 57t17 69.5v472h-113v30h378v-30h-113z" />
    <glyph glyph-name="Ucircumflex" unicode="&#xdb;" horiz-adv-x="1032" 
d="M628 772l-114 95l-113 -95l-25 21l138 116l139 -116zM883 681v-329q0 -64 -25 -127t-72.5 -113t-115.5 -81t-154 -31q-87 0 -155 31.5t-115 82t-71.5 114t-25.5 127.5v88.5v91v82.5v64h-113v30h378v-30h-113v-472q0 -37 17 -69.5t46 -57t68 -38.5t84 -14t84 14t68 38.5
t46 57t17 69.5v472h-113v30h378v-30h-113z" />
    <glyph glyph-name="Udieresis" unicode="&#xdc;" horiz-adv-x="1032" 
d="M592 809q-23 0 -39.5 13.5t-16.5 33.5q0 21 16 34t40 13q23 0 40 -13.5t17 -33.5t-17 -33.5t-40 -13.5zM438 809q-24 0 -40.5 13.5t-16.5 33.5t16.5 33.5t40.5 13.5q23 0 39.5 -13.5t16.5 -33.5t-16.5 -33.5t-39.5 -13.5zM883 681v-329q0 -64 -25 -127t-72.5 -113
t-115.5 -81t-154 -31q-87 0 -155 31.5t-114.5 82t-71.5 114t-26 127.5v74.5v89v89v73.5h-113v30h378v-30h-113v-472q0 -37 17 -69.5t46 -57t68 -38.5t84 -14t84 14t68 38.5t46 57t17 69.5v472h-113v30h378v-30h-113z" />
    <glyph glyph-name="Yacute" unicode="&#xdd;" horiz-adv-x="792" 
d="M381 728v30q39 0 64.5 14.5t37.5 37.5q-13 -2 -25 0.5t-21.5 9t-15 16t-5.5 20.5q0 20 16.5 33.5t39.5 13.5t39.5 -13.5t16.5 -33.5q0 -60 -39 -94t-108 -34zM637 681l-166 -280v-371h112v-30h-374v30h112v371l-166 280h-119v30h374v-30h-101l145 -244l144 244h-101v30
h259v-30h-119z" />
    <glyph glyph-name="agrave" unicode="&#xe0;" horiz-adv-x="639" 
d="M132 557q0 21 16.5 35t39.5 14t39 -13.5t16 -33.5q0 -23 -20 -37t-46 -9q11 -23 35 -37.5t66 -13.5v-30q-37 0 -62.5 8.5t-43 24.5t-27 39t-13.5 53zM361 0v17q-46 -17 -97 -17q-52 0 -97 16.5t-78 44.5t-52 66t-19 80q0 43 19.5 80.5t52.5 65.5t78 44t96 16q52 0 97 -16
v16h149v-384h111v-29h-260zM361 303q0 34 -28.5 57.5t-68.5 23.5t-68.5 -23.5t-28.5 -57.5v-192q0 -82 97 -82q40 0 68.5 23.5t28.5 57.5v193z" />
    <glyph glyph-name="aacute" unicode="&#xe1;" horiz-adv-x="639" 
d="M250 432v30q39 -1 64.5 13.5t36.5 37.5q-26 -5 -46 9t-20 37q0 19 16 32.5t39 13.5t39.5 -13.5t16.5 -33.5q0 -60 -38.5 -93t-107.5 -33zM361 0v17q-46 -17 -97 -17q-52 0 -97 16.5t-78 44.5t-52 66t-19 80q0 43 19.5 80.5t52.5 65.5t78 44t96 16q52 0 97 -16v16h149
v-384h111v-29h-260zM361 303q0 34 -28.5 57.5t-68.5 23.5t-68.5 -23.5t-28.5 -57.5v-192q0 -82 97 -82q40 0 68.5 23.5t28.5 57.5v193z" />
    <glyph glyph-name="acircumflex" unicode="&#xe2;" horiz-adv-x="639" 
d="M376 476l-112 94q-45 -38 -66.5 -56t-30 -25.5t-9.5 -8t-5 -4.5q-5 4 -9.5 8t-8.5 7q-4 4 -8 6l137 115l137 -115zM361 0v17q-46 -17 -97 -17q-52 0 -97 16.5t-78 44.5t-52 66t-19 80q0 43 19.5 80.5t52.5 65.5t78 44.5t96 16.5q49 0 97 -17v16h149v-384h111v-29h-260z
M361 303q0 34 -28.5 57.5t-68.5 23.5t-68.5 -23.5t-28.5 -57.5v-192q0 -37 24.5 -59.5t67.5 -22.5t72.5 23t29.5 58v193z" />
    <glyph glyph-name="atilde" unicode="&#xe3;" horiz-adv-x="639" 
d="M321 480q-29 0 -44.5 17t-27.5 38q-6 11 -15.5 26t-26.5 15q-11 0 -23.5 -13t-21.5 -36l-33 9q9 25 28 47.5t50 22.5q29 0 45 -17t27 -38q3 -5 7 -12t9 -13.5t11.5 -11t14.5 -4.5q12 0 24 13t22 36l32 -9q-9 -26 -28 -48t-50 -22zM361 0v17q-46 -17 -97 -17
q-52 0 -97 16.5t-78 44.5t-52 66t-19 80q0 43 19.5 80.5t52.5 65.5t78 44t96 16q52 0 97 -16v16h149v-384h111v-29h-260zM361 303q0 34 -28.5 57.5t-68.5 23.5t-68.5 -23.5t-28.5 -57.5v-192q0 -37 24.5 -59.5t67.5 -22.5t72.5 23t29.5 58v193z" />
    <glyph glyph-name="adieresis" unicode="&#xe4;" horiz-adv-x="639" 
d="M340 512q-23 0 -39 13.5t-16 33.5t16 33t39 13t39.5 -13.5t16.5 -32.5q0 -20 -16.5 -33.5t-39.5 -13.5zM188 512q-23 0 -39.5 13t-16.5 33t15.5 33.5t40.5 13.5q23 0 39 -13.5t16 -32.5q0 -20 -16 -33.5t-39 -13.5zM361 0v17q-46 -17 -97 -17q-52 0 -97 16.5t-78 44.5
t-52 66t-19 80q0 43 19.5 80.5t52.5 65.5t78 44t96 16q52 0 97 -16v16h149v-384h111v-29h-260zM361 303q0 34 -28.5 57.5t-68.5 23.5t-68.5 -23.5t-28.5 -57.5v-192q0 -36 26 -58.5t69 -22.5q42 0 70.5 22.5t28.5 57.5v193z" />
    <glyph glyph-name="aring" unicode="&#xe5;" horiz-adv-x="639" 
d="M264 512q-23 0 -39.5 13.5t-16.5 33.5t16.5 33.5t39.5 13.5t39.5 -14t16.5 -33q0 -20 -16 -33.5t-40 -13.5zM361 0v17q-46 -17 -97 -17q-52 0 -97 16.5t-78 44.5t-52 66t-19 80q0 43 19.5 80.5t52.5 65.5t78 44t96 16q52 0 97 -16v16h149v-384h111v-29h-260zM266 575
q-1 1 -2 1l-1 -1v-32l1 -2q2 0 2 2v32zM361 303q0 34 -28.5 57.5t-68.5 23.5t-68.5 -23.5t-28.5 -57.5v-192q0 -37 24 -59.5t67 -22.5q21 0 40 6t33 17t22 25.5t8 32.5v193z" />
    <glyph glyph-name="ae" unicode="&#xe6;" horiz-adv-x="883" 
d="M668 36q-14 5 -23 16t-9 25q0 19 16.5 32.5t39.5 13.5t40 -13.5t17 -32.5q0 -23 -14 -37.5t-35 -23.5t-44 -12.5t-41 -3.5q-26 0 -50.5 4t-47.5 12v-16h-151v17q-48 -17 -98 -17q-51 0 -96.5 16t-79.5 44t-54 64.5t-20 78.5t19.5 79t53.5 64.5t79.5 43.5t97.5 16
q50 0 98 -17v17h151v-17q48 17 98 17q52 0 98 -16.5t79.5 -46t53 -69.5t19.5 -86h-348v-79q0 -17 7.5 -31.5t21 -25t31.5 -17t38 -6.5q13 0 26.5 1.5t26.5 5.5zM615 377q-47 0 -72.5 -21.5t-25.5 -58.5v-80h196v80q0 80 -98 80zM366 297q0 16 -8 31t-21.5 25.5t-31 17
t-37.5 6.5q-21 0 -39 -6.5t-31.5 -17t-21 -25.5t-7.5 -31v-188q0 -34 28.5 -57t70.5 -23q20 0 38 6t31.5 17t21 25t7.5 31v189z" />
    <glyph glyph-name="ccedilla" unicode="&#xe7;" horiz-adv-x="403" 
d="M307 36q-14 6 -22 17t-8 25q0 19 15.5 32.5t38.5 13.5q22 0 38 -13.5t16 -32.5q0 -30 -22.5 -46.5t-49.5 -24.5q16 -13 16 -39q0 -28 -19.5 -45t-52.5 -17q-19 0 -32 10.5t-13 27.5q0 16 13 27t32 11q25 0 38 -18q2 17 -7.5 26.5t-30.5 9.5q-50 0 -93.5 16t-76 43.5
t-51 65t-18.5 80.5q0 45 18 82.5t49.5 64.5t75.5 42.5t96 15.5q17 0 39 -3.5t41.5 -12.5t33 -24t13.5 -37q0 -20 -15 -33.5t-38 -13.5t-38.5 13.5t-15.5 32.5q0 14 8 25t22 17q-13 3 -26 5t-24 2q-44 0 -69 -18t-25 -54v-199q0 -34 27.5 -57.5t66.5 -23.5q12 0 25 1.5
t25 5.5z" />
    <glyph glyph-name="egrave" unicode="&#xe8;" horiz-adv-x="523" 
d="M275 432q-69 0 -106.5 33.5t-37.5 92.5q0 20 16 33.5t39 13.5t39 -13.5t16 -32.5q0 -22 -20 -36.5t-46 -9.5q11 -23 35 -37.5t66 -14.5zM313 37q-31 11 -31 42q0 19 16 32.5t39 13.5t39 -13.5t16 -32.5q0 -23 -14 -38.5t-34 -24.5t-42.5 -12.5t-40.5 -3.5
q-52 0 -96.5 15.5t-77 43.5t-51 65.5t-18.5 82.5q0 42 19.5 79.5t52.5 65.5t77 44.5t94 16.5q57 0 102 -18t76.5 -48.5t48.5 -70.5t17 -84h-339v-81q0 -17 7.5 -32t20.5 -26t30 -17.5t37 -6.5q25 0 52 8zM166 221h191v82q0 35 -27 58t-69 23t-68.5 -23t-26.5 -58v-82z" />
    <glyph glyph-name="eacute" unicode="&#xe9;" horiz-adv-x="523" 
d="M247 432v30q38 -1 63.5 13.5t37.5 37.5q-13 -2 -25 0.5t-21 9t-14.5 16t-5.5 20.5q0 20 16 33.5t39 13.5q24 0 39.5 -14.5t15.5 -34.5q0 -59 -38 -92.5t-107 -32.5zM313 37q-31 11 -31 42q0 19 16 32.5t39 13.5t39 -13.5t16 -32.5q0 -23 -14 -38.5t-34 -24.5t-42.5 -12.5
t-40.5 -3.5q-52 0 -96.5 15.5t-77 43.5t-51 65.5t-18.5 82.5q0 42 19.5 79.5t52.5 65.5t77 44.5t94 16.5q57 0 102 -18t76.5 -48.5t48.5 -70.5t17 -84h-339v-81q0 -17 7.5 -32t20.5 -26t30 -17.5t37 -6.5q25 0 52 8zM357 304q0 35 -26.5 57.5t-69.5 22.5q-42 0 -68.5 -23
t-26.5 -58v-82h191v83z" />
    <glyph glyph-name="ecircumflex" unicode="&#xea;" horiz-adv-x="523" 
d="M372 476l-111 94q-45 -38 -66 -56t-29.5 -25t-9 -8t-3.5 -4q-7 5 -11.5 8t-8.5 6t-7 6l135 115l136 -115zM313 37q-31 11 -31 42q0 19 16 32.5t39 13.5t39 -13.5t16 -32.5q0 -23 -14 -38.5t-34 -24.5t-42.5 -12.5t-40.5 -3.5q-52 0 -96.5 15.5t-77 43.5t-51 65.5
t-18.5 82.5q0 42 19.5 79.5t52.5 65.5t77 44.5t94 16.5q57 0 102 -18t76.5 -48.5t48.5 -70.5t17 -84h-339v-81q0 -17 7.5 -32t20.5 -26t30 -17.5t37 -6.5q25 0 52 8zM357 303q0 36 -26.5 58.5t-69.5 22.5q-42 0 -68.5 -23t-26.5 -59v-81h191v82z" />
    <glyph glyph-name="edieresis" unicode="&#xeb;" horiz-adv-x="523" 
d="M337 512q-23 0 -39 13.5t-16 33.5t15.5 33.5t39.5 13.5q23 0 39 -13.5t16 -33.5t-16 -33.5t-39 -13.5zM186 512q-23 0 -39 13.5t-16 33.5t16 33.5t39 13.5t39 -13.5t16 -33.5t-16 -33.5t-39 -13.5zM313 37q-31 11 -31 42q0 19 16 32.5t39 13.5t39 -13.5t16 -32.5
q0 -23 -14 -38.5t-34 -24.5t-42.5 -12.5t-40.5 -3.5q-52 0 -96.5 15.5t-77 43.5t-51 65.5t-18.5 82.5q0 42 19.5 79.5t52.5 65.5t77 44.5t94 16.5q57 0 102 -18t76.5 -48.5t48.5 -70.5t17 -84h-339v-81q0 -17 7.5 -32t20.5 -26t30 -17.5t37 -6.5q25 0 52 8zM357 303
q0 36 -26.5 58.5t-69.5 22.5q-42 0 -68.5 -23t-26.5 -58v-82h191v82z" />
    <glyph glyph-name="igrave" unicode="&#xec;" horiz-adv-x="396" 
d="M267 432q-69 0 -105 34.5t-36 92.5q0 20 15.5 33.5t38.5 13.5q22 0 37.5 -13.5t15.5 -33.5q0 -22 -19 -36.5t-45 -9.5q11 -23 34.5 -37.5t63.5 -13.5v-30zM18 0v29h108v355h-108v30l252 -1v-384h108v-29h-360z" />
    <glyph glyph-name="iacute" unicode="&#xed;" horiz-adv-x="396" 
d="M129 433v29q38 -1 62.5 13.5t35.5 37.5q-26 -5 -45 9.5t-19 36.5q0 20 15.5 33.5t37.5 13.5q20 0 37 -12.5t17 -32.5q0 -56 -35 -93t-106 -35zM18 0v29h108v355h-108v30l252 -1v-384h108v-29h-360z" />
    <glyph glyph-name="icircumflex" unicode="&#xee;" horiz-adv-x="396" 
d="M251 524l-53 46q-20 -17 -29 -24.5t-13 -11t-5 -5t-5 -4.5q-5 4 -10 7.5t-8 6.5q-4 4 -7 6l77 67l77 -67zM18 0v29h108v355h-108v30h252v-385h108v-29h-360z" />
    <glyph glyph-name="idieresis" unicode="&#xef;" horiz-adv-x="396" 
d="M271 512q-23 0 -38.5 13.5t-15.5 33.5t15.5 33.5t38.5 13.5t38.5 -13.5t15.5 -33.5t-16 -33.5t-38 -13.5zM123 512q-22 0 -38 13.5t-16 33.5t16 33.5t38 13.5q23 0 38.5 -13.5t15.5 -33.5t-15.5 -33.5t-38.5 -13.5zM18 0v29h108v355h-108v30l252 -1v-384h108v-29h-360z
" />
    <glyph glyph-name="ntilde" unicode="&#xf1;" horiz-adv-x="756" 
d="M436 480q-29 0 -45 17t-28 38q-6 11 -16 26t-27 15q-11 0 -23 -13t-22 -36l-33 9q9 25 28 47t50 22q29 0 45.5 -16.5t27.5 -37.5q3 -6 7 -13t9 -13.5t11.5 -11t15.5 -4.5q11 0 23.5 13.5t21.5 36.5l33 -9q-9 -26 -28 -48t-50 -22zM364 0v29h112v354q-26 -2 -52.5 -10
t-52 -20t-49 -26.5t-42.5 -29.5v-297h-262v29h112v355h-112v30l262 -1v-78q44 30 100 54t113 24q29 0 53.5 -8t42 -23t27.5 -35t10 -44v-274h112v-29h-374z" />
    <glyph glyph-name="ograve" unicode="&#xf2;" horiz-adv-x="523" 
d="M131 558q0 20 16 34t39 14t39 -13.5t16 -33.5q0 -22 -20 -36.5t-46 -9.5q11 -23 35 -37.5t65 -13.5v-30q-69 0 -106.5 33.5t-37.5 92.5zM261 0q-49 0 -93 16.5t-77.5 45t-53 66t-19.5 79.5q0 43 19 80.5t52 65.5t77.5 44.5t94.5 16.5q51 0 95.5 -16.5t77.5 -44.5
t52 -65.5t19 -80.5t-19.5 -80.5t-52.5 -65.5t-77.5 -44.5t-94.5 -16.5zM357 303q0 34 -28 57.5t-68 23.5q-39 0 -67 -23.5t-28 -57.5v-192q0 -34 27.5 -58t67.5 -24t68 24t28 58v192z" />
    <glyph glyph-name="oacute" unicode="&#xf3;" horiz-adv-x="523" 
d="M247 432v30q38 -1 63.5 13.5t37.5 37.5q-13 -2 -25 0.5t-21 9t-14.5 16t-5.5 20.5q0 20 16 33.5t39 13.5t39 -14t16 -33q0 -60 -38 -93.5t-107 -33.5zM261 0q-49 0 -93 16.5t-77.5 45t-53 66t-19.5 79.5q0 43 19 80.5t52 65.5t77.5 44.5t94.5 16.5q51 0 95.5 -16.5
t77.5 -44.5t52 -65.5t19 -80.5t-19.5 -80.5t-52.5 -65.5t-77.5 -44.5t-94.5 -16.5zM357 303q0 34 -28 57.5t-68 23.5q-39 0 -67 -23.5t-28 -57.5v-192q0 -34 27.5 -58t67.5 -24t68 24t28 58v192z" />
    <glyph glyph-name="ocircumflex" unicode="&#xf4;" horiz-adv-x="523" 
d="M372 476l-111 94q-45 -38 -66 -56t-29.5 -25t-9 -8t-4.5 -4q-5 4 -9.5 7.5t-8.5 6.5q-4 4 -8 6l135 115l136 -115zM261 0q-49 0 -93 16.5t-77.5 45t-53 66t-19.5 79.5q0 43 19 80.5t52 65.5t77.5 44.5t94.5 16.5q51 0 95.5 -16.5t77.5 -44.5t52 -65.5t19 -80.5
t-19.5 -80.5t-52.5 -65.5t-77.5 -44.5t-94.5 -16.5zM357 303q0 34 -28 57.5t-68 23.5q-39 0 -67 -23.5t-28 -57.5v-192q0 -34 27.5 -58t67.5 -24t68 24t28 58v192z" />
    <glyph glyph-name="otilde" unicode="&#xf5;" horiz-adv-x="523" 
d="M318 480q-29 0 -44.5 17t-27.5 38q-3 5 -6.5 12t-8.5 13.5t-11.5 11t-14.5 4.5q-11 0 -23 -13t-22 -36l-32 9q9 25 28 47.5t49 22.5q28 0 44 -17t27 -38q3 -5 7 -12t9 -13.5t11.5 -11t14.5 -4.5q11 0 23 13t22 36l32 -9q-9 -26 -28 -48t-49 -22zM261 0q-49 0 -93 16.5
t-77.5 45t-53 66t-19.5 79.5q0 43 19 80.5t52 65.5t77.5 44.5t94.5 16.5q51 0 95.5 -16.5t77.5 -44.5t52 -65.5t19 -80.5t-19.5 -80.5t-52.5 -65.5t-77.5 -44.5t-94.5 -16.5zM357 303q0 34 -28 57.5t-68 23.5q-39 0 -67 -23.5t-28 -57.5v-192q0 -34 27.5 -58t67.5 -24t68 24
t28 58v192z" />
    <glyph glyph-name="odieresis" unicode="&#xf6;" horiz-adv-x="523" 
d="M337 512q-23 0 -39 13.5t-16 33.5t15.5 33.5t39.5 13.5q23 0 39 -14t16 -33q0 -20 -16 -33.5t-39 -13.5zM186 512q-23 0 -39 13.5t-16 33.5q0 19 16 33t39 14t39 -14t16 -33q0 -20 -16 -33.5t-39 -13.5zM261 0q-49 0 -93 16.5t-77.5 45t-53 66t-19.5 79.5q0 43 19 80.5
t52 65.5t77.5 44.5t94.5 16.5q51 0 95.5 -16.5t77.5 -44.5t52 -65.5t19 -80.5t-19.5 -80.5t-52.5 -65.5t-77.5 -44.5t-94.5 -16.5zM357 303q0 34 -28 57.5t-68 23.5q-39 0 -67 -23.5t-28 -57.5v-192q0 -34 27.5 -58t67.5 -24t68 24t28 58v192z" />
    <glyph glyph-name="divide" unicode="&#xf7;" horiz-adv-x="552" 
d="M276 283q-31 0 -52.5 17.5t-21.5 43.5t21.5 44t52.5 18t52.5 -18t21.5 -44t-21.5 -43.5t-52.5 -17.5zM36 188v29h480v-29h-480zM276 0q-31 0 -52.5 18t-21.5 43q0 26 21.5 44t52.5 18t52.5 -18t21.5 -44q0 -25 -21.5 -43t-52.5 -18z" />
    <glyph glyph-name="oslash" unicode="&#xf8;" horiz-adv-x="523" 
d="M261 0q-43 0 -84.5 13.5t-74.5 36.5l-65 -53l-24 19l65 54q-60 57 -60 133q0 42 19 79t52 64.5t77.5 43.5t94.5 16q45 0 86 -13t74 -37l64 54l25 -21l-65 -53q29 -28 44.5 -62t15.5 -71q0 -45 -18.5 -82.5t-51 -64t-77.5 -41.5t-97 -15zM261 377q-40 0 -67.5 -23.5
t-27.5 -56.5v-154l191 160q-3 31 -30.5 52.5t-65.5 21.5zM357 262l-191 -159q4 -32 30 -53t65 -21q40 0 68 23t28 57v153z" />
    <glyph glyph-name="ugrave" unicode="&#xf9;" horiz-adv-x="636" 
d="M389 432q-36 0 -63.5 12t-46 30.5t-27.5 41.5t-9 45q0 20 17.5 32.5t38.5 12.5q23 0 39 -13.5t16 -33.5q0 -21 -18.5 -35.5t-43.5 -10.5q13 -22 36.5 -37t61.5 -14zM278 57q0 -11 11.5 -19.5t28.5 -8.5q31 0 59 8t49 22.5t33.5 35.5t12.5 48v241h-111v29h257v-29h-111
v-241q0 -33 -15.5 -59.5t-41 -45t-59.5 -28.5t-70 -10q-35 0 -69.5 10t-61.5 28.5t-44 45t-17 59.5v241h-111v29h260v-356z" />
    <glyph glyph-name="uacute" unicode="&#xfa;" horiz-adv-x="636" 
d="M247 432l-1 30q36 -2 60.5 13t37.5 38q-25 -3 -44 11t-19 35q0 20 16.5 33.5t39.5 13.5q21 0 38.5 -12.5t17.5 -32.5q0 -22 -9 -45t-27.5 -41.5t-46 -30.5t-63.5 -12zM507 384v-241q0 -35 -15.5 -61.5t-42 -44.5t-60.5 -27.5t-71 -9.5q-35 0 -68.5 10t-60.5 29t-43.5 45
t-16.5 59v241h-111v29h260v-356q0 -12 13 -20t30 -8q31 0 58.5 8t48 23t32.5 36t12 47v241h-111v29h257v-29h-111z" />
    <glyph glyph-name="ucircumflex" unicode="&#xfb;" horiz-adv-x="636" 
d="M429 476l-112 94q-45 -38 -66.5 -56t-30 -25t-10 -8t-5.5 -4q-11 7 -17 14q-4 4 -7 6l136 115l137 -115zM507 384v-241q0 -35 -16 -61.5t-42 -44.5t-60 -27.5t-71 -9.5q-35 0 -68.5 10t-60.5 29t-43.5 45t-16.5 59v241h-111v29h260v-356q0 -11 12.5 -19.5t27.5 -8.5
q31 0 59 8t49 22.5t33.5 35.5t12.5 48v241h-111v29h257v-29h-111z" />
    <glyph glyph-name="udieresis" unicode="&#xfc;" horiz-adv-x="636" 
d="M397 512q-23 0 -39 13.5t-16 33.5t16 33t39 13t39.5 -13.5t16.5 -32.5q0 -20 -16.5 -33.5t-39.5 -13.5zM245 512q-23 0 -39.5 13t-16.5 33t15.5 33.5t40.5 13.5q23 0 39.5 -13.5t16.5 -32.5q0 -20 -16.5 -33.5t-39.5 -13.5zM507 384v-241q0 -35 -16 -61.5t-42.5 -44.5
t-60.5 -27.5t-71 -9.5q-35 0 -68.5 10t-60 29t-43 45t-16.5 59v241h-111v29h260v-356q0 -13 12 -20.5t31 -7.5q31 0 58.5 8t48 23t32.5 36t12 47v241h-111v29h257v-29h-111z" />
    <glyph glyph-name="yacute" unicode="&#xfd;" horiz-adv-x="758" 
d="M366 429v29q36 1 60.5 15.5t38.5 36.5q-26 -3 -45 11.5t-19 35.5q0 20 16.5 33.5t39.5 13.5t39.5 -13.5t16.5 -33.5q0 -57 -40.5 -92t-106.5 -36zM621 381l-340 -573q-9 -16 -25 -34.5t-36.5 -34t-44.5 -26t-49 -10.5q-31 0 -51.5 10t-33 26t-18 36t-5.5 40q0 26 22 44.5
t53 18.5t53 -18.5t22 -44.5q0 -16 -8.5 -29t-22 -21.5t-30.5 -12t-35 1.5q19 -22 54 -22q18 0 36 8.5t35 21.5t30.5 28.5t22.5 30.5l111 187l-221 373h-119v30h374v-30h-101l144 -243l144 243h-101v30h259v-30h-119z" />
    <glyph glyph-name="ydieresis" unicode="&#xff;" horiz-adv-x="758" 
d="M457 510q-23 0 -39.5 13.5t-16.5 33.5t16.5 33.5t39.5 13.5t39.5 -13.5t16.5 -33.5t-16.5 -33.5t-39.5 -13.5zM304 510q-23 0 -39.5 13.5t-16.5 33.5t16.5 33.5t39.5 13.5t39.5 -13.5t16.5 -33.5t-16.5 -33.5t-39.5 -13.5zM621 381l-340 -573q-9 -16 -25 -34.5t-36.5 -34
t-44.5 -26t-49 -10.5q-31 0 -51.5 10t-33 26t-18 36t-5.5 40q0 26 22 44.5t53 18.5t53 -18.5t22 -44.5q0 -16 -8.5 -29t-22 -21.5t-30.5 -12t-35 1.5q19 -22 54 -22q18 0 36 8.5t35 21.5t30.5 28.5t22.5 30.5l111 187l-221 373h-119v30h374v-30h-101l144 -243l144 243h-101
v30h259v-30h-119z" />
    </font>
</defs>
</svg>
