<?xml version="1.0" encoding="utf-8"?>
<!-- Generator: Adobe Illustrator 21.1.0, SVG Export Plug-In . SVG Version: 6.00 Build 0)  -->
<svg version="1.1" id="Layer_1" xmlns="http://www.w3.org/2000/svg" xmlns:xlink="http://www.w3.org/1999/xlink" x="0px" y="0px"
	 viewBox="0 0 542 792" style="enable-background:new 0 0 542 792;" xml:space="preserve">
<style type="text/css">
	.st0{fill:none;}
	.st1{fill:#AF995A;}
	.st2{fill:#CCCCCC;}
	.st3{fill:#FFFFFF;}
	.st4{fill:#666666;}
	.st5{fill:none;stroke:#7F7F7F;stroke-linecap:round;stroke-miterlimit:10;}
	.st6{fill:#141414;}
	.st7{fill:#B19C60;}
	.st8{fill:#A5A5A5;}
	.st9{fill:#B0B0B0;}
	.st10{fill:#959595;}
</style>
<rect class="st0" width="44" height="44"/>
<g>
	<g>
		<g>
			<path class="st1" d="M40,19.6L38.8,15c-0.1-0.2-0.2-0.4-0.4-0.5s-0.4,0-0.6,0.1L34,17.5c-0.1,0.1-0.2,0.2-0.2,0.3L32,22.9
				c-0.5-0.4-1-0.8-1.5-1.2l0.6-5.6c1.6-2.2,2.3-4.4,2-6.6c-0.5-3.4-3.2-5.3-3.3-5.4c-0.2-0.2-0.6-0.2-0.8,0
				c-0.2,0.2-0.3,0.5-0.2,0.8l0.3,0.8c0.5,1.3,0,2.9-1.2,3.6C26,10.5,25.3,13,26.4,15l0.3,0.7l-0.3,4.6c-0.4,0-0.7-0.1-1.1-0.1
				c-0.8,0-1.5,0.1-2.2,0.3V20c0.2-0.1,0.3-0.3,0.5-0.5c0.2-0.3,0.3-0.8,0.2-1.2c-0.1-0.4-0.3-0.7-0.7-1c-0.2-0.1-0.4-0.2-0.6-0.2
				l-0.2-0.7c-0.1-0.3-0.1-0.6,0-0.8c0.4-0.9,0.2-2.1-0.5-2.9l-3.6-4.1c-0.2-0.2-0.4-0.3-0.6-0.2s-0.4,0.2-0.5,0.5l-1.5,5.3
				c-0.3,1,0,2.2,0.8,2.8c0.2,0.2,0.3,0.4,0.4,0.7l0.2,0.7c-0.2,0.1-0.3,0.3-0.4,0.4c-0.2,0.3-0.3,0.8-0.2,1.2
				c0.1,0.4,0.3,0.7,0.7,1c0.2,0.1,0.4,0.2,0.6,0.2l0.5,2.4c-0.5,0.5-0.9,1.1-1.2,1.7c-0.2,0-0.4-0.1-0.5-0.1l-3-4.6
				c-0.1-0.1-0.2-0.3-0.4-0.3s-0.4,0-0.5,0.1l-7.1,4.7C5,25.3,4.9,25.7,5.1,26l2.6,4.1C5.6,30.7,4,32.6,4,35c0,2.8,2.2,5,5,5h25.2
				c2.7,0,5-2.2,5-5c0-2-1.2-3.7-2.8-4.5L40,20C40,19.9,40,19.8,40,19.6z M37.8,16.4l0.2,0.7c-0.1,0-0.3,0-0.4-0.1
				c-0.1,0-0.2-0.1-0.4-0.2L37.8,16.4z M34.7,19.2c0.4,0.3,0.7,0.5,1.1,0.6l-1.9,5.5c-0.3-0.5-0.6-0.9-0.9-1.3L34.7,19.2z
				 M28.7,10.5c1.2-0.8,2-2.2,2-3.6c0.5,0.7,1,1.7,1.1,2.8c0.3,1.8-0.3,3.6-1.6,5.5L27.9,15l-0.2-0.5C26.9,13.1,27.4,11.4,28.7,10.5
				z M28,17.3l0.1-1l1.7,0.2l-0.1,1L28,17.3z M29.5,18.8l-0.3,2.3c-0.5-0.2-0.9-0.4-1.4-0.5l0.1-1.9L29.5,18.8z M17.3,16
				c-0.4-0.3-0.5-1-0.4-1.5l0.8-2.8l0.5,2.1c0.1,0.3,0.3,0.5,0.6,0.5h0.1c0.4-0.1,0.6-0.4,0.5-0.8l-0.4-2l1.9,2.2
				c0.3,0.4,0.5,1.1,0.3,1.5c-0.2,0.5-0.2,1.1-0.1,1.6l0.1,0.6l-3,0.7l-0.1-0.6C17.9,16.9,17.7,16.4,17.3,16z M18,19.9L18,19.9h-0.1
				c-0.1,0-0.1,0-0.1,0l-0.1-0.1c0-0.1,0-0.1,0-0.1l0.1-0.1h0.1l0,0l4.3-1l0,0h0.1l0.1,0.1c0,0.1,0,0.1,0,0.1l-0.1,0.1L18,19.9z
				 M21.9,20.9c-0.6,0.2-1.2,0.5-1.7,0.9c-0.3,0.2-0.7,0.5-1,0.7L18.9,21l2.9-0.6L21.9,20.9z M6.6,25.8l6-3.9l2.2,3.4
				c-1.3,0.2-2.5,0.6-3.5,1.4c-1,0.7-1.8,1.7-2.3,2.9L6.6,25.8z M37.8,35c0,2-1.6,3.7-3.6,3.7H9c-2,0-3.6-1.6-3.6-3.7
				c0-2,1.6-3.7,3.6-3.7c0.1,0,0.2,0,0.3,0c0.3,0,0.6-0.2,0.7-0.5c0.8-2.5,3.1-4.3,5.7-4.3c0.5,0,1,0.1,1.4,0.2
				c0.3,0.1,0.6-0.1,0.8-0.4c1.4-2.9,4.3-4.7,7.6-4.7c4.7,0,8.4,3.8,8.4,8.5c0,0.2,0,0.3,0,0.5c0,0.4,0.3,0.7,0.6,0.7
				C36.3,31.5,37.8,33.1,37.8,35z M35.2,29.7c0-0.9-0.2-1.8-0.5-2.6l2.4-6.9c0.4,0.1,0.8,0.2,1.3,0.2L35.2,29.7z M35.5,18.1l0.6-0.4
				c0.3,0.3,0.6,0.5,1,0.6c0.3,0.1,0.7,0.2,1,0.2h0.1l0.2,0.7C37.4,19.1,36.4,18.7,35.5,18.1z"/>
		</g>
	</g>
	<g>
		<g>
			<path class="st1" d="M24.6,30.9L24.6,30.9c-1.1-1.5-2.7-2.4-4.6-2.4c-3.1,0-5.6,2.5-5.6,5.7c0,0.4,0.3,0.7,0.7,0.7
				s0.7-0.3,0.7-0.7c0-2.4,1.9-4.3,4.3-4.3c1.5,0,2.9,0.8,3.7,2.1c0.1,0.2,0.4,0.3,0.6,0.3c0.1,0,0.2,0,0.3,0c1.7,0,3.1,1.4,3.1,3.1
				c0,0.4,0.3,0.7,0.7,0.7c0.4,0,0.7-0.3,0.7-0.7C29.1,32.9,27.1,30.9,24.6,30.9z"/>
		</g>
	</g>
</g>
<rect x="49" class="st0" width="44" height="44"/>
<g>
	<path class="st1" d="M86.1,6.5H55.9c-1.6,0-2.9,1.3-2.9,3V31c0,1.6,1.3,3,2.9,3h7.5v2.4h-2.3v1.2h19.7v-1.2h-2.3V34H86
		c1.6,0,2.9-1.3,2.9-3V9.5C89,7.8,87.7,6.5,86.1,6.5z M77.4,36.3H64.6v-2.4h12.8V36.3z M87.8,30.9c0,1-0.8,1.8-1.7,1.8H55.9
		c-1,0-1.7-0.8-1.7-1.8v-1.6h33.7L87.8,30.9L87.8,30.9z M87.8,28.2H54.2V9.5c0-1,0.8-1.8,1.7-1.8h30.2c1,0,1.7,0.8,1.7,1.8V28.2z"/>
	<rect x="60.5" y="14.5" class="st1" width="21" height="1"/>
	<rect x="60.5" y="17.5" class="st1" width="17" height="1"/>
	<rect x="60.5" y="20.5" class="st1" width="13" height="1"/>
</g>
<path class="st1" d="M85.5,26h-29V10h29V26z M57.5,25h27V11h-27V25z"/>
<rect x="104" class="st0" width="44" height="44"/>
<g>
	<g>
		<path class="st1" d="M143.3,10.3h-5.7V9.2h2.1c0.4,0,0.7-0.3,0.7-0.7V6.2c0-0.4-0.3-0.7-0.7-0.7h-5.6c-0.4,0-0.7,0.3-0.7,0.7v2.3
			c0,0.4,0.3,0.7,0.7,0.7h2.1v1.1h-9.5V9.2h2.1c0.4,0,0.7-0.3,0.7-0.7V6.2c0-0.4-0.3-0.7-0.7-0.7h-5.6c-0.4,0-0.7,0.3-0.7,0.7v2.3
			c0,0.4,0.3,0.7,0.7,0.7h2.1v1.1h-9.5V9.2h2.1c0.4,0,0.7-0.3,0.7-0.7V6.2c0-0.4-0.3-0.7-0.7-0.7h-5.6c-0.4,0-0.7,0.3-0.7,0.7v2.3
			c0,0.4,0.3,0.7,0.7,0.7h2.1v1.1h-5.7c-0.4,0-0.7,0.3-0.7,0.7v18.6c0,0.4,0.3,0.7,0.7,0.7h14.4V32h-9.9c-0.4,0-0.7,0.3-0.7,0.7
			s0.3,0.7,0.7,0.7h9.9v4.3c0,0.4,0.3,0.7,0.7,0.7h4.3c0.4,0,0.7-0.3,0.7-0.7v-4.3h9.9c0.4,0,0.7-0.3,0.7-0.7s-0.3-0.7-0.7-0.7h-9.9
			v-1.7h14.4c0.4,0,0.7-0.3,0.7-0.7V11C144,10.6,143.7,10.3,143.3,10.3z M134.8,7.8V6.9h4.2v0.9H134.8z M123.9,7.8V6.9l0,0h4.2v0.9
			H123.9z M113,7.8V6.9h4.2v0.9H113z M127.4,37.1h-2.9v-3.6h2.9V37.1z M127.4,32.1h-2.9v-1.7h2.9V32.1z M142.6,28.9h-33.1V11.7h33.1
			V28.9L142.6,28.9z"/>
	</g>
</g>
<rect x="158" class="st0" width="44" height="44"/>
<g>
	<g>
		<g>
			<path class="st1" d="M179.2,15.6c0,0.4,0.4,0.6,0.7,0.6h0.1c2.1-0.3,4.2-0.8,6.2-1.5c0.4-0.1,0.6-0.5,0.4-0.9
				c-0.1-0.4-0.5-0.6-0.9-0.4c-1.9,0.7-3.9,1.2-6,1.5C179.4,14.9,179.1,15.2,179.2,15.6z"/>
			<path class="st1" d="M188.4,13.8c0.1,0,0.2,0,0.3-0.1c0.5-0.3,1.1-0.5,1.6-0.8c0.3-0.2,0.5-0.6,0.3-1s-0.6-0.5-1-0.3
				c-0.5,0.3-1,0.5-1.5,0.8c-0.4,0.2-0.5,0.6-0.4,1C187.9,13.6,188.1,13.8,188.4,13.8z"/>
			<path class="st1" d="M194.5,4c-1.3,0-2.4,1.1-2.5,2.4c-3.6,3.1-7.5,4.5-10.2,5.1c-3,0.7-5.1,0.6-5.1,0.6l0,0l0,0h-10.2
				c-0.4,0-0.7,0.3-0.7,0.7v2.1l0,0c-2.6,0-4.7,2.2-4.7,4.8s2.1,4.8,4.7,4.8l0,0v2.1c0,0.4,0.3,0.7,0.7,0.7h1.2l1.6,8.9
				c0.4,2.1,2.2,3.7,4.4,3.7h3.4c0.2,0,0.4-0.1,0.6-0.3c0.1-0.2,0.2-0.4,0.2-0.6l-2.2-11.7h1l0,0l0,0c0,0,2.2-0.1,5.1,0.6
				c2.7,0.6,6.6,2,10.2,5.1c0,1.4,1.1,2.4,2.5,2.4s2.5-1.1,2.5-2.5V6.5C197,5.1,195.9,4,194.5,4z M165.7,23.1L165.7,23.1
				c-1.8,0-3.3-1.5-3.3-3.4c0-1.8,1.5-3.4,3.3-3.4l0,0V23.1z M175.7,35.3h-1.8c-0.4,0-0.7,0.3-0.7,0.7s0.3,0.7,0.7,0.7h2.1l0.3,1.7
				h-2.6c-1.5,0-2.7-1.1-3-2.5l-1.6-8.6h5.1l0.3,1.7h-1.9c-0.4,0-0.7,0.3-0.7,0.7s0.3,0.7,0.7,0.7h2.1l0.3,1.7h-1.9
				c-0.4,0-0.7,0.3-0.7,0.7s0.3,0.7,0.7,0.7h2.1L175.7,35.3z M176,25.9h-8.8V13.6h8.8V25.9L176,25.9z M192,31.2
				c-3.6-2.8-7.3-4.1-9.9-4.7c-2.1-0.5-3.8-0.6-4.7-0.6V13.6c0.9,0,2.6-0.1,4.7-0.6c2.6-0.6,6.3-1.9,9.9-4.7V31.2z M195.6,33
				c0,0.6-0.5,1.1-1.1,1.1s-1.1-0.5-1.1-1.1V6.5c0-0.6,0.5-1.1,1.1-1.1s1.1,0.5,1.1,1.1V33z"/>
		</g>
	</g>
</g>
<rect x="216" class="st0" width="44" height="44"/>
<g>
	<g>
		<path class="st1" d="M227.5,31.3h-4.6c-1.6,0-2.9-1.3-2.9-3V17.1c0-1.6,1.3-3,2.9-3h2.4c0.4,0,0.7,0.3,0.7,0.7s-0.3,0.7-0.7,0.7
			h-2.4c-0.8,0-1.5,0.7-1.5,1.5v11.2c0,0.8,0.7,1.5,1.5,1.5h4.6c0.4,0,0.7,0.3,0.7,0.7S227.9,31.3,227.5,31.3z"/>
	</g>
	<g>
		<path class="st1" d="M253.1,31.3h-4.8c-0.4,0-0.7-0.3-0.7-0.7c0-0.4,0.3-0.7,0.7-0.7h4.8c0.8,0,1.5-0.7,1.5-1.5V17.2
			c0-0.8-0.7-1.5-1.5-1.5h-2.6c-0.4,0-0.7-0.3-0.7-0.7s0.3-0.7,0.7-0.7h2.6c1.6,0,2.9,1.3,2.9,3v11.2C256,30,254.7,31.3,253.1,31.3z
			"/>
	</g>
	<g>
		<path class="st1" d="M251.8,19.1h-27.5c-0.4,0-0.7-0.3-0.7-0.7s0.3-0.7,0.7-0.7h27.5c0.4,0,0.7,0.3,0.7,0.7S252.1,19.1,251.8,19.1
			z"/>
	</g>
	<g>
		<path class="st1" d="M225.7,19c-0.4,0-0.7-0.3-0.7-0.7v-7c0-0.4,0.3-0.7,0.7-0.7h2c0.4,0,0.7,0.3,0.7,0.7s-0.3,0.7-0.7,0.7h-1.3
			v6.3C226.4,18.7,226,19,225.7,19z"/>
	</g>
	<g>
		<path class="st1" d="M250.3,19c-0.4,0-0.7-0.3-0.7-0.7V12h-1.3c-0.4,0-0.7-0.3-0.7-0.7s0.3-0.7,0.7-0.7h2c0.4,0,0.7,0.3,0.7,0.7v7
			C251,18.7,250.7,19,250.3,19z"/>
	</g>
	<g>
		<path class="st1" d="M227.8,19c-0.4,0-0.7-0.3-0.7-0.7V7.7c0-0.4,0.3-0.7,0.7-0.7h20.5c0.4,0,0.7,0.3,0.7,0.7v10
			c0,0.4-0.3,0.7-0.7,0.7s-0.7-0.3-0.7-0.7V8.4h-19.1v9.9C228.5,18.7,228.2,19,227.8,19z"/>
	</g>
	<g>
		<path class="st1" d="M248.2,37h-20.5c-0.4,0-0.7-0.3-0.7-0.7V24.1c0-0.4,0.3-0.7,0.7-0.7h20.5c0.4,0,0.7,0.3,0.7,0.7v12.2
			C248.9,36.7,248.6,37,248.2,37z M228.5,35.6h19.1V24.8h-19.1V35.6z"/>
	</g>
	<g>
		<path class="st1" d="M224.2,22c-0.2,0-0.4-0.1-0.5-0.2s-0.2-0.3-0.2-0.5s0.1-0.4,0.2-0.5s0.3-0.2,0.5-0.2s0.4,0.1,0.5,0.2
			s0.2,0.3,0.2,0.5s-0.1,0.4-0.2,0.5S224.4,22,224.2,22z"/>
	</g>
	<g>
		<path class="st1" d="M250.4,22c-0.2,0-0.4-0.1-0.5-0.2s-0.2-0.3-0.2-0.5s0.1-0.4,0.2-0.5s0.3-0.2,0.5-0.2s0.4,0.1,0.5,0.2
			s0.2,0.3,0.2,0.5s-0.1,0.4-0.2,0.5C250.7,21.9,250.5,22,250.4,22z"/>
	</g>
	<g>
		<path class="st1" d="M244.7,30.6h-13.4c-0.4,0-0.7-0.3-0.7-0.7c0-0.4,0.3-0.7,0.7-0.7h13.4c0.4,0,0.7,0.3,0.7,0.7
			C245.4,30.2,245.1,30.6,244.7,30.6z"/>
	</g>
	<g>
		<path class="st1" d="M244.7,33.4h-1.4c-0.4,0-0.7-0.3-0.7-0.7s0.3-0.7,0.7-0.7h1.4c0.4,0,0.7,0.3,0.7,0.7S245.1,33.4,244.7,33.4z"
			/>
	</g>
	<g>
		<path class="st1" d="M240.5,33.4h-9.2c-0.4,0-0.7-0.3-0.7-0.7s0.3-0.7,0.7-0.7h9.2c0.4,0,0.7,0.3,0.7,0.7S240.8,33.4,240.5,33.4z"
			/>
	</g>
	<g>
		<path class="st1" d="M236.9,27.7h-5.7c-0.4,0-0.7-0.3-0.7-0.7s0.3-0.7,0.7-0.7h5.7c0.4,0,0.7,0.3,0.7,0.7S237.3,27.7,236.9,27.7z"
			/>
	</g>
	<g>
		<path class="st1" d="M244.7,27.7h-4.9c-0.4,0-0.7-0.3-0.7-0.7s0.3-0.7,0.7-0.7h4.9c0.4,0,0.7,0.3,0.7,0.7S245.1,27.7,244.7,27.7z"
			/>
	</g>
	<g>
		<path class="st1" d="M248.2,22h-2.8c-0.4,0-0.7-0.3-0.7-0.7s0.3-0.7,0.7-0.7h2.8c0.4,0,0.7,0.3,0.7,0.7S248.6,22,248.2,22z"/>
	</g>
</g>
<rect x="269" class="st0" width="44" height="44"/>
<g>
	<g>
		<g>
			<path class="st1" d="M279.9,16.4h-2.7c-1.7,0-3.1-1.4-3.1-3.1v-0.1c0-1.7,1.4-3.1,3.1-3.1h2.5c0.4,0,0.7,0.3,0.7,0.8
				s-0.3,0.8-0.7,0.8h-2.5c-0.9,0-1.6,0.7-1.6,1.6v0.1c0,0.9,0.7,1.6,1.6,1.6h2.7c0.4,0,0.7,0.3,0.7,0.8
				C280.6,16,280.3,16.4,279.9,16.4z"/>
		</g>
		<g>
			<path class="st1" d="M304.8,16.4h-2.9c-0.4,0-0.7-0.3-0.7-0.8c0-0.4,0.3-0.8,0.7-0.8h2.9c0.9,0,1.6-0.7,1.6-1.6v-0.1
				c0-0.9-0.7-1.6-1.6-1.6H302c-0.4,0-0.7-0.3-0.7-0.8s0.3-0.8,0.7-0.8h2.8c1.7,0,3.1,1.4,3.1,3.1v0.1
				C307.9,15,306.6,16.4,304.8,16.4z"/>
		</g>
		<g>
			<path class="st1" d="M303.4,11.5h-24.9c-0.4,0-0.7-0.3-0.7-0.8s0.3-0.8,0.7-0.8h24.9c0.4,0,0.7,0.3,0.7,0.8
				S303.9,11.5,303.4,11.5z"/>
		</g>
		<g>
			<path class="st1" d="M303.4,16.4h-24.9c-0.4,0-0.7-0.3-0.7-0.8c0-0.4,0.3-0.8,0.7-0.8h24.9c0.4,0,0.7,0.3,0.7,0.8
				C304.2,16,303.9,16.4,303.4,16.4z"/>
		</g>
	</g>
	<g>
		<g>
			<path class="st1" d="M279.9,24.9h-2.7c-1.7,0-3.1-1.4-3.1-3.1v-0.1c0-1.7,1.4-3.1,3.1-3.1h2.7c0.4,0,0.7,0.3,0.7,0.8
				c0,0.4-0.3,0.8-0.7,0.8h-2.7c-0.9,0-1.6,0.7-1.6,1.6v0.1c0,0.9,0.7,1.6,1.6,1.6h2.7c0.4,0,0.7,0.3,0.7,0.8
				C280.6,24.5,280.3,24.9,279.9,24.9z"/>
		</g>
		<g>
			<path class="st1" d="M304.8,24.9h-2.7c-0.4,0-0.7-0.3-0.7-0.8s0.3-0.8,0.7-0.8h2.7c0.9,0,1.6-0.7,1.6-1.6v-0.1
				c0-0.9-0.7-1.6-1.6-1.6H302c-0.4,0-0.7-0.3-0.7-0.8c0-0.4,0.3-0.8,0.7-0.8h2.8c1.7,0,3.1,1.4,3.1,3.1v0.1
				C307.9,23.5,306.6,24.9,304.8,24.9z"/>
		</g>
	</g>
	<g>
		<g>
			<path class="st1" d="M301.8,36h-21.7c-0.4,0-0.7-0.3-0.7-0.8V15.6c0-0.4,0.3-0.8,0.7-0.8h21.7c0.4,0,0.7,0.3,0.7,0.8v19.6
				C302.6,35.7,302.3,36,301.8,36z M280.9,34.5h20.2V16.4h-20.2V34.5z"/>
		</g>
		<g>
			<path class="st1" d="M298.1,24.4h-14.2c-0.4,0-0.7-0.3-0.7-0.8c0-0.4,0.3-0.8,0.7-0.8h14.2c0.4,0,0.7,0.3,0.7,0.8
				C298.8,24,298.5,24.4,298.1,24.4z"/>
		</g>
		<g>
			<path class="st1" d="M298.1,27.4h-1.5c-0.4,0-0.7-0.3-0.7-0.8s0.3-0.8,0.7-0.8h1.5c0.4,0,0.7,0.3,0.7,0.8S298.5,27.4,298.1,27.4z
				"/>
		</g>
		<g>
			<path class="st1" d="M293.6,27.4h-9.7c-0.4,0-0.7-0.3-0.7-0.8s0.3-0.8,0.7-0.8h9.7c0.4,0,0.7,0.3,0.7,0.8S294,27.4,293.6,27.4z"
				/>
		</g>
		<g>
			<path class="st1" d="M289.9,21.3h-6c-0.4,0-0.7-0.3-0.7-0.8c0-0.4,0.3-0.8,0.7-0.8h6c0.4,0,0.7,0.3,0.7,0.8
				S290.3,21.3,289.9,21.3z"/>
		</g>
		<g>
			<path class="st1" d="M298.1,21.3h-5.2c-0.4,0-0.7-0.3-0.7-0.8c0-0.4,0.3-0.8,0.7-0.8h5.2c0.4,0,0.7,0.3,0.7,0.8
				C298.8,21,298.5,21.3,298.1,21.3z"/>
		</g>
		<g>
			<path class="st1" d="M289.9,30.2h-6c-0.4,0-0.7-0.3-0.7-0.8c0-0.4,0.3-0.8,0.7-0.8h6c0.4,0,0.7,0.3,0.7,0.8
				C290.6,29.8,290.3,30.2,289.9,30.2z"/>
		</g>
	</g>
	<g>
		<path class="st1" d="M274.6,13.9h-0.9c-0.4,0-0.7-0.3-0.7-0.8s0.3-0.8,0.7-0.8h0.9c0.4,0,0.7,0.3,0.7,0.8S275,13.9,274.6,13.9z"/>
	</g>
	<g>
		<path class="st1" d="M308.3,13.9h-0.9c-0.4,0-0.7-0.3-0.7-0.8s0.3-0.8,0.7-0.8h0.9c0.4,0,0.7,0.3,0.7,0.8S308.7,13.9,308.3,13.9z"
			/>
	</g>
	<g>
		<path class="st1" d="M274.6,22.5h-0.9c-0.4,0-0.7-0.3-0.7-0.8s0.3-0.8,0.7-0.8h0.9c0.4,0,0.7,0.3,0.7,0.8S275,22.5,274.6,22.5z"/>
	</g>
	<g>
		<path class="st1" d="M308.3,22.5h-0.9c-0.4,0-0.7-0.3-0.7-0.8s0.3-0.8,0.7-0.8h0.9c0.4,0,0.7,0.3,0.7,0.8S308.7,22.5,308.3,22.5z"
			/>
	</g>
</g>
<rect x="327" class="st0" width="44" height="44"/>
<g>
	<g>
		<g>
			<path class="st1" d="M366.8,12.7L366.8,12.7l-0.1-0.1l-5.5-4.5C361,8,360.9,8,360.7,8h-23.5c-0.1,0-0.3,0-0.4,0.1l-5.5,4.5
				c0,0-0.1,0-0.1,0.1l0,0c-0.2,0.1-0.2,0.3-0.2,0.6v22c0,0.4,0.3,0.7,0.8,0.7h2.2c0.4,0,0.8-0.3,0.8-0.7V20.5h5.3v8.6
				c-1.3,0.3-2.2,1.5-2.2,2.9c0,1.6,1.3,3,3,3h14.7l0,0l0,0c1.6,0,3-1.3,3-3V20.5h4.8v14.7c0,0.4,0.3,0.7,0.8,0.7h2.2
				c0.4,0,0.8-0.3,0.8-0.7v-22C367,13,366.9,12.8,366.8,12.7z M337.6,9.5h22.8l3.4,3h-29.6L337.6,9.5z M333.2,34.5h-0.7v-14h0.7
				V34.5z M352.9,33.4L352.9,33.4h-12.1c-0.8,0-1.5-0.7-1.5-1.5s0.7-1.5,1.5-1.5h12.1c-0.2,0.4-0.4,0.9-0.4,1.5
				C352.5,32.5,352.6,33,352.9,33.4z M355.5,33.5c-0.8,0-1.5-0.7-1.5-1.5s0.7-1.5,1.5-1.5c0.4,0,0.8-0.3,0.8-0.7s-0.3-0.7-0.8-0.7
				h-14v-8.5h15.4V32C356.9,32.8,356.3,33.5,355.5,33.5z M365.5,34.5h-0.7v-14h0.7V34.5z M365.5,19h-33v-5h33V19z"/>
			<path class="st1" d="M335,17.3h7c0.4,0,0.8-0.3,0.8-0.7s-0.3-0.7-0.8-0.7h-7c-0.4,0-0.8,0.3-0.8,0.7
				C334.2,16.9,334.6,17.3,335,17.3z"/>
			<path class="st1" d="M359.6,17.3h3.4c0.4,0,0.8-0.3,0.8-0.7s-0.3-0.7-0.8-0.7h-3.4c-0.4,0-0.8,0.3-0.8,0.7
				C358.9,16.9,359.2,17.3,359.6,17.3z"/>
			<path class="st1" d="M353.9,17.3h2.4c0.4,0,0.8-0.3,0.8-0.7s-0.3-0.7-0.8-0.7h-2.4c-0.4,0-0.8,0.3-0.8,0.7
				C353.1,16.9,353.4,17.3,353.9,17.3z"/>
			<path class="st1" d="M345,24.4h8.3c0.4,0,0.8-0.3,0.8-0.7s-0.3-0.7-0.8-0.7H345c-0.4,0-0.8,0.3-0.8,0.7
				C344.2,24,344.6,24.4,345,24.4z"/>
			<path class="st1" d="M354.7,25.9h-11.1c-0.4,0-0.8,0.3-0.8,0.7s0.3,0.7,0.8,0.7h11.1c0.4,0,0.8-0.3,0.8-0.7
				C355.4,26.2,355.1,25.9,354.7,25.9z"/>
		</g>
	</g>
</g>
<rect x="388" class="st0" width="44" height="44"/>
<g>
	<path class="st1" d="M425.1,9.4h-30.2c-1.6,0-3,1.4-3,3v7.7c0,1.7,1.3,3,3,3h1.2c0.4,7.5,6.4,13.4,13.9,13.4s13.5-5.9,13.9-13.4
		h1.2c1.6,0,3-1.4,3-3v-7.7C428.1,10.8,426.8,9.4,425.1,9.4z M410,35.2c-6.9,0-12.6-5.7-12.6-12.8c0-2.2,0.6-4.4,1.7-6.3h7.1
		c-0.7,0.8-1.1,1.7-1.1,2.7c0,2.4,2.2,4.3,5,4.3c0.9,0,1.9,0.5,1.9,1.1s-1,1.1-1.9,1.1s-1.9-0.5-1.9-1.1c0-0.9-0.7-1.6-1.6-1.6
		s-1.6,0.7-1.6,1.6c0,1,0.4,2,1.1,2.7c0.6,0.6,1.4,1.1,2.3,1.4c0.2,0.7,0.8,1.2,1.5,1.2s1.3-0.5,1.5-1.2c0.9-0.3,1.7-0.7,2.3-1.4
		c0.7-0.8,1.1-1.7,1.1-2.7c0-2.4-2.2-4.3-5-4.3c-0.9,0-1.9-0.5-1.9-1.1s1-1.1,1.9-1.1c0.8,0,1.6,0.4,1.8,0.9c0,0.1,0,0.1,0,0.2
		c0,0.9,0.7,1.6,1.6,1.6s1.6-0.7,1.6-1.6c0-0.4-0.1-0.9-0.2-1.3c-0.2-0.5-0.5-1-0.9-1.4h7c1.1,1.9,1.7,4.1,1.7,6.3
		C422.6,29.5,416.9,35.2,410,35.2z M413.7,18c0.1,0.3,0.2,0.6,0.2,0.9c0,0.2-0.2,0.4-0.4,0.4c-0.2,0-0.4-0.2-0.4-0.4
		c0-0.2,0-0.4-0.1-0.6c-0.4-1-1.6-1.7-2.9-1.7c-1.7,0-3,1-3,2.3s1.4,2.3,3,2.3c2.1,0,3.8,1.4,3.8,3.1c0,1.4-1.2,2.7-2.9,3
		c-0.3,0.1-0.5,0.3-0.5,0.6V28c0,0.2-0.2,0.4-0.4,0.4s-0.4-0.2-0.4-0.4l0,0c0-0.3-0.2-0.5-0.5-0.6c-1.7-0.3-2.9-1.6-2.9-3
		c0-0.2,0.2-0.4,0.4-0.4c0.2,0,0.4,0.2,0.4,0.4c0,1.3,1.4,2.3,3,2.3s3-1,3-2.3s-1.4-2.3-3-2.3c-2.1,0-3.8-1.4-3.8-3.1
		c0-1.1,0.7-2.1,1.8-2.6h4.1C412.8,16.7,413.4,17.3,413.7,18z M395.7,16.6c0-0.3,0.2-0.5,0.5-0.5h1.4c-0.2,0.3-0.3,0.6-0.4,1h-0.9
		C395.9,17.1,395.7,16.9,395.7,16.6z M423.8,16.2c0.3,0,0.5,0.2,0.5,0.5s-0.2,0.5-0.5,0.5h-0.9c-0.1-0.3-0.3-0.7-0.4-1H423.8z
		 M423.8,18.5c1,0,1.8-0.8,1.8-1.9s-0.8-1.9-1.8-1.9h-27.6c-1,0-1.8,0.8-1.8,1.9s0.8,1.9,1.8,1.9h0.5c-0.3,1.1-0.5,2.2-0.5,3.3H395
		c-0.9,0-1.6-0.7-1.6-1.7v-7.7c0-0.9,0.7-1.7,1.6-1.7h30.2c0.9,0,1.6,0.7,1.6,1.7v7.7c0,0.9-0.7,1.7-1.6,1.7H424
		c-0.1-1.1-0.2-2.2-0.5-3.3H423.8z"/>
	<path class="st1" d="M414,31.7c-0.2-0.1-0.3-0.1-0.5,0c-1.1,0.4-2.3,0.7-3.5,0.7c-5.2,0-9.5-4.3-9.5-9.6c0-1.4,0.3-2.8,0.9-4.1
		c0.1-0.3,0-0.7-0.3-0.9c-0.2-0.1-0.3-0.1-0.5,0s-0.3,0.2-0.4,0.3c-0.7,1.4-1,3-1,4.6c0,6,4.8,10.9,10.8,10.9c1.4,0,2.7-0.3,4-0.8
		c0.3-0.1,0.5-0.5,0.4-0.8C414.3,31.9,414.1,31.8,414,31.7z"/>
	<path class="st1" d="M419.4,17.8c-0.2-0.1-0.3,0-0.5,0c-0.3,0.1-0.5,0.5-0.3,0.9c0.6,1.3,0.9,2.6,0.9,4.1c0,3.1-1.5,6.1-4,7.9
		c-0.3,0.2-0.4,0.6-0.1,0.9c0.1,0.2,0.3,0.3,0.5,0.3c0.1,0,0.3,0,0.4-0.1c2.8-2,4.5-5.4,4.5-8.9c0-1.6-0.3-3.2-1-4.6
		C419.7,18,419.6,17.8,419.4,17.8z"/>
</g>
<path class="st1" d="M269.2,73.4l2.7,5.4c0.2,0.4,0.6,0.6,1,0.7l6.1,0.9c1.1,0.2,1.5,1.4,0.7,2.2l-4.4,4.2c-0.3,0.3-0.4,0.7-0.4,1.1
	l1,6c0.2,1-0.9,1.8-1.9,1.3l-5.4-2.8c-0.4-0.2-0.8-0.2-1.2,0l-5.4,2.8c-0.9,0.5-2.1-0.3-1.9-1.3l1-6c0.1-0.4-0.1-0.8-0.4-1.1
	l-4.4-4.2c-0.8-0.7-0.3-2,0.7-2.2l6.1-0.9c0.4-0.1,0.8-0.3,1-0.7l2.7-5.4C267.3,72.4,268.7,72.4,269.2,73.4z"/>
<rect x="253" y="69" class="st0" width="30" height="30"/>
<path class="st2" d="M312.2,73.4l2.7,5.4c0.2,0.4,0.6,0.6,1,0.7l6.1,0.9c1.1,0.2,1.5,1.4,0.7,2.2l-4.4,4.2c-0.3,0.3-0.4,0.7-0.4,1.1
	l1,6c0.2,1-0.9,1.8-1.9,1.3l-5.4-2.8c-0.4-0.2-0.8-0.2-1.2,0l-5.4,2.8c-0.9,0.5-2.1-0.3-1.9-1.3l1-6c0.1-0.4-0.1-0.8-0.4-1.1
	l-4.4-4.2c-0.8-0.7-0.3-2,0.7-2.2l6.1-0.9c0.4-0.1,0.8-0.3,1-0.7l2.7-5.4C310.3,72.4,311.7,72.4,312.2,73.4z"/>
<rect x="296" y="69" class="st0" width="30" height="30"/>
<circle class="st1" cx="27" cy="86" r="25"/>
<path class="st3" d="M38.1,77.1h-5.6V76c0-1.7-1.3-3-3-3h-5.1c-1.7,0-3,1.3-3,3v1.1h-5.6c-2.1,0-3.9,1.7-3.9,3.9v13.1
	c0,2.1,1.7,3.9,3.9,3.9h22.3c2.1,0,3.9-1.7,3.9-3.9V81C42,78.9,40.3,77.1,38.1,77.1z M22.3,76c0-1.2,1-2.2,2.2-2.2h5.1
	c1.2,0,2.2,1,2.2,2.2v1.1h-9.4V76H22.3z M15.9,78h6h10.3h6c1.7,0,3,1.3,3,3v4.4l0,0c0,0-1.6,0.7-4.1,1.5c0-0.7-0.6-1.2-1.3-1.2h-3.4
	c-0.7,0-1.3,0.6-1.3,1.3v1.1c-2.7,0.3-5.3,0.3-8,0V87c0-0.7-0.6-1.3-1.3-1.3h-3.4c-0.7,0-1.2,0.5-1.3,1.2c-2.5-0.7-4.1-1.5-4.1-1.5
	l0,0V81C12.9,79.3,14.2,78,15.9,78z M36.1,87v5.1c0,0.2-0.2,0.4-0.4,0.4h-3.4c-0.2,0-0.4-0.2-0.4-0.4V87c0-0.2,0.2-0.4,0.4-0.4h3.4
	C36,86.6,36.1,86.8,36.1,87z M22.1,87v5.1c0,0.2-0.2,0.4-0.4,0.4h-3.4c-0.2,0-0.4-0.2-0.4-0.4V87c0-0.2,0.2-0.4,0.4-0.4h3.4
	C22,86.6,22.1,86.8,22.1,87z M38.1,97.1H15.9c-1.7,0-3-1.3-3-3v-7.6c0.7,0.3,2.1,0.9,4.1,1.4v4.2c0,0.7,0.6,1.3,1.3,1.3h3.4
	c0.7,0,1.3-0.6,1.3-1.3v-3c1.4,0.2,2.7,0.2,4,0.2s2.6-0.1,4-0.2v3c0,0.7,0.6,1.3,1.3,1.3h3.4c0.7,0,1.3-0.6,1.3-1.3V88
	c2-0.6,3.5-1.1,4.1-1.4v7.6C41.1,95.8,39.8,97.1,38.1,97.1z"/>
<circle class="st1" cx="81" cy="86" r="25"/>
<g>
	<path class="st3" d="M78.2,101.4c-0.5,0-1-0.2-1.4-0.6L66.2,90.2c-0.8-0.8-0.8-2,0-2.8l14.2-14.2c0.5-0.5,1.2-0.7,1.8-0.5l8.9,1.9
		c0.8,0.2,1.4,0.8,1.6,1.6l1.7,8.7l0,0c0.1,0.7-0.1,1.3-0.5,1.8l-14.3,14.1C79.2,101.2,78.7,101.4,78.2,101.4z M81.8,73.6
		c-0.3,0-0.5,0.1-0.7,0.3L66.9,88.1c-0.4,0.4-0.4,1,0,1.4l10.6,10.6c0.4,0.4,1,0.4,1.4,0l14.2-14.2c0.2-0.2,0.3-0.6,0.3-0.9
		l-1.7-8.7c-0.1-0.4-0.4-0.7-0.8-0.8L82,73.6C81.9,73.6,81.8,73.6,81.8,73.6z"/>
	<path class="st3" d="M86.4,83.3c-0.7,0-1.4-0.3-1.9-0.8s-0.8-1.2-0.8-1.9c0-0.7,0.3-1.4,0.8-1.9s1.2-0.8,1.9-0.8l0,0
		c0.7,0,1.4,0.3,1.9,0.8s0.8,1.2,0.8,1.9c0,0.7-0.3,1.4-0.8,1.9C87.8,83.1,87.1,83.3,86.4,83.3z M86.4,78.9c-0.5,0-0.9,0.2-1.2,0.5
		c-0.3,0.3-0.5,0.8-0.5,1.2c0,0.5,0.2,0.9,0.5,1.2c0.7,0.7,1.8,0.7,2.5,0c0.3-0.3,0.5-0.8,0.5-1.2c0-0.5-0.2-0.9-0.5-1.2
		C87.4,79.1,86.8,78.9,86.4,78.9L86.4,78.9z"/>
	<path class="st3" d="M77.5,94.8c-0.1,0-0.1,0-0.2,0c-0.4-0.1-0.7-0.3-0.8-0.7l-0.8-2.7L73,90.6c-0.4-0.1-0.6-0.4-0.7-0.8
		s0.1-0.8,0.4-1l2.4-1.7v-2.9c0-0.4,0.2-0.7,0.6-0.9c0.4-0.2,0.7-0.1,1,0.1l2.3,1.7l2.7-1c0.4-0.1,0.8,0,1,0.2
		c0.3,0.3,0.4,0.7,0.2,1l-1,2.7l1.7,2.3c0.2,0.3,0.3,0.7,0.1,1c0,0.4-0.3,0.7-0.7,0.7h-2.9l-1.7,2.4C78.2,94.7,77.9,94.8,77.5,94.8z
		 M76.3,84.2v2.9c0,0.3-0.2,0.6-0.4,0.8l-2.4,1.7l2.7,0.8c0.3,0.1,0.6,0.4,0.7,0.7l0.8,2.7l1.7-2.4c0.2-0.3,0.5-0.4,0.8-0.4h2.9
		l-1.7-2.3c-0.2-0.3-0.2-0.6-0.1-0.9l1-2.7l0,0l0.5,0.2l-0.5-0.2l-2.7,1c-0.3,0.1-0.7,0.1-0.9-0.1L76.3,84.2z"/>
</g>
<circle class="st1" cx="137" cy="86" r="25"/>
<path class="st3" d="M153.3,85.8l-5-8.9c-0.2-0.4-0.6-0.7-1.1-0.8c-0.4-0.1-0.9,0-1.2,0.2l-1.1,0.7c-0.7,0.5-1,1.6-0.5,2.4l0.2,0.3
	c-1,0.4-2,0.2-3.1-0.1c-1.3-0.3-2.7-0.7-4.7-0.3c-2.6,0.5-3.3,1-3.7,1.2c-0.2,0.1-0.3,0.2-0.5,0.2c-0.7,0-2-0.5-2.9-1l0.1-0.1
	c0.5-0.8,0.2-1.9-0.5-2.4l-1.3-0.9c-0.4-0.2-0.8-0.3-1.2-0.2c-0.4,0.1-0.8,0.4-1.1,0.8l-5,8.9c-0.5,0.8-0.2,1.9,0.5,2.4l1.1,0.7
	c0.3,0.2,0.6,0.3,0.9,0.3c0.1,0,0.2,0,0.4,0c0.4-0.1,0.8-0.4,1.1-0.8l0.2-0.4l1.4,1.6l-0.3,0.2c-0.6,0.7-0.5,1.8,0.2,2.4l0.1,0.1
	l0,0c0.3,0.3,0.7,0.4,1.1,0.4h0.1c-0.1,0.6,0,1.3,0.5,1.7l0.1,0.1l0,0c0.3,0.3,0.7,0.4,1.1,0.4h0.1c0.1,0,0.3-0.1,0.4-0.1
	c0,0.4,0.2,0.9,0.6,1.2l0.1,0.1l0,0c0.3,0.3,0.7,0.4,1.1,0.4h0.1c0.2,0,0.5-0.1,0.7-0.2c0,0.4,0.2,0.9,0.6,1.2l0.1,0.1l0,0
	c0.3,0.3,0.7,0.4,1.1,0.4h0.1c0.4,0,0.9-0.3,1.1-0.6l0.4-0.6c1.3,0.7,2.3,0.9,3,0.9s1.2-0.2,1.6-0.4c0.5-0.3,0.8-0.7,0.9-1.1
	c0.7,0.1,1.2-0.2,1.5-0.5c0.4-0.4,0.6-0.9,0.7-1.4c0.5,0,0.9-0.1,1.3-0.4c0.5-0.4,0.8-1,0.9-1.5c0.6,0.1,1.2-0.1,1.6-0.6
	c0.5-0.6,0.5-1.4,0.1-2.2l2-1.6l0.2,0.3c0.2,0.4,0.6,0.7,1.1,0.8c0.1,0,0.2,0,0.4,0c0.3,0,0.6-0.1,0.9-0.3l1.1-0.7
	C153.5,87.6,153.7,86.6,153.3,85.8z M123.4,88.1c-0.2,0-0.3,0-0.4-0.1l-1.1-0.7c-0.3-0.2-0.4-0.7-0.2-1.1l5-8.9
	c0.1-0.2,0.2-0.3,0.4-0.3h0.1c0.1,0,0.2,0,0.3,0.1l1.1,0.7c0.3,0.2,0.4,0.7,0.2,1.1l-0.3,0.6l0,0l0,0l-4.7,8.4
	C123.7,88,123.5,88.1,123.4,88.1z M127,91.6L127,91.6c-0.4-0.3-0.4-0.8-0.2-1.1l0.8-1.1c0.1-0.1,0.3-0.2,0.4-0.3l0,0
	c0.1,0,0.3,0.1,0.5,0.2c0.3,0.3,0.3,0.8,0.1,1.1l-0.8,1.1c-0.1,0.1-0.3,0.2-0.4,0.3C127.3,91.8,127.1,91.7,127,91.6z M129.2,94
	c-0.2,0-0.3,0-0.4-0.2l-0.1-0.1c-0.3-0.3-0.3-0.8-0.1-1.1l2.3-3.1c0.1-0.1,0.3-0.2,0.4-0.3l0,0c0.1,0,0.3,0.1,0.5,0.2
	c0.3,0.3,0.3,0.8,0.1,1.1l-2.3,3.1C129.5,93.9,129.4,94,129.2,94z M131.5,95.5c-0.2,0-0.3,0-0.4-0.2H131c-0.3-0.3-0.3-0.8-0.1-1.1
	l1.9-2.5c0.1-0.1,0.3-0.2,0.4-0.3l0,0c0.1,0,0.3,0.1,0.5,0.2c0.3,0.3,0.3,0.8,0.1,1.1l-1.9,2.5C131.8,95.4,131.6,95.5,131.5,95.5z
	 M134.4,96.7c-0.1,0.2-0.3,0.3-0.4,0.3c-0.2,0-0.3,0-0.4-0.2l-0.1-0.1c-0.3-0.3-0.3-0.8-0.1-1.1l1.2-1.6c0.1-0.1,0.3-0.2,0.4-0.3
	l0,0c0.1,0,0.3,0.1,0.5,0.2c0.3,0.3,0.3,0.8,0.1,1.1L134.4,96.7z M146.3,91.2c-0.2,0.3-0.6,0.3-1,0.2l-5-3c-0.2-0.1-0.5-0.1-0.7,0.2
	c-0.1,0.2-0.1,0.5,0.2,0.7l4.8,2.9c-0.1,0.3-0.2,0.8-0.5,1c-0.2,0.2-0.6,0.2-1,0.1l-4.2-2.5c-0.2-0.1-0.5-0.1-0.7,0.2
	c-0.1,0.2-0.1,0.5,0.2,0.7l4,2.4c0,0.3-0.1,0.6-0.4,0.9c-0.2,0.2-0.6,0.3-1,0.2l-3-1.6c-0.2-0.1-0.5,0-0.7,0.2
	c-0.1,0.2,0,0.5,0.2,0.7l2.7,1.4c-0.1,0.2-0.3,0.5-0.6,0.6c-0.5,0.3-1.6,0.4-3.3-0.5l0.2-0.2c0.6-0.7,0.5-1.8-0.3-2.5
	c-0.3-0.3-0.8-0.5-1.2-0.4l0,0c0.2-0.7,0-1.4-0.6-2c-0.3-0.3-0.8-0.5-1.2-0.4l0,0c0.1-0.6-0.1-1.3-0.6-1.7c-0.3-0.3-0.8-0.5-1.2-0.4
	c-0.4,0-0.9,0.3-1.1,0.6l-0.4,0.5c-0.1-0.3-0.3-0.7-0.6-1s-0.8-0.5-1.2-0.4c-0.4,0-0.8,0.2-1.1,0.6l-1.6-1.7l3.7-6.6
	c0.7,0.4,2,1,3,1.1l-1.5,2.7c-0.1,0.2-0.4,1,0.1,1.6c0.3,0.4,0.8,0.5,1.5,0.3c1.7-0.4,3.1-2.1,3.4-2.5c0.3-0.2,0.7-0.4,0.9-0.4
	c0.6,0.3,8.7,5,9.7,6.5C146.5,90.4,146.6,90.9,146.3,91.2z M146.6,88.8c-2-2.1-9.4-6.3-9.7-6.5c-0.7-0.3-1.6,0.3-1.9,0.5l-0.1,0.1
	c0,0-1.4,1.9-2.9,2.2c-0.4,0.1-0.5,0-0.5,0c0-0.1,0-0.3,0-0.5l1.9-3.4h0.1c0.4-0.2,1-0.6,3.3-1.1c1.7-0.4,3,0,4.2,0.3
	c1.3,0.3,2.5,0.7,3.9,0.1l3.7,6.6L146.6,88.8z M152.2,87.3l-1.1,0.7c-0.1,0.1-0.3,0.1-0.4,0.1c-0.2,0-0.3-0.2-0.4-0.3l-4.6-8.2l0,0
	l0,0l-0.4-0.7c-0.2-0.4-0.1-0.8,0.2-1.1l1.1-0.7c0.1-0.1,0.2-0.1,0.3-0.1h0.1c0.2,0,0.3,0.2,0.4,0.3l5,8.9
	C152.6,86.6,152.5,87.1,152.2,87.3z"/>
<circle class="st1" cx="194" cy="86" r="25"/>
<g>
	<path class="st3" d="M197.1,88.7c1.7-0.9,2.7-2.8,2.7-5.2c0-3.2-2.6-5.8-5.8-5.8s-5.8,2.6-5.8,5.8c0,2.4,1,4.2,2.7,5.2
		c-2.4,1-3.9,3.4-3.9,6.5V97c0,0.3,0.2,0.5,0.5,0.5s0.5-0.2,0.5-0.5v-1.8c0-3.3,1.9-5.6,4.9-5.9c0.3,0,0.5-0.3,0.5-0.6
		c0-0.3-0.2-0.4-0.5-0.5l0,0c-2.2-0.2-3.7-2.1-3.7-4.7s2.2-4.7,4.8-4.7s4.8,2.1,4.8,4.7s-1.4,4.5-3.7,4.7l0,0
		c-0.2,0-0.4,0.2-0.5,0.5c0,0.3,0.2,0.5,0.5,0.6c2.9,0.3,4.9,2.6,4.9,5.9V97c0,0.3,0.2,0.5,0.5,0.5s0.5-0.2,0.5-0.5v-1.8
		C201,92.1,199.5,89.7,197.1,88.7z"/>
	<path class="st3" d="M205.1,85.4c1.7-0.9,2.7-2.8,2.7-5.2c0-3.2-2.6-5.8-5.8-5.8c-1.6,0-3.1,0.6-4.2,1.8c-0.2,0.2-0.2,0.5,0,0.7
		s0.5,0.2,0.7,0c0.9-0.9,2.1-1.4,3.5-1.4c2.7,0,4.8,2.1,4.8,4.7s-1.4,4.5-3.7,4.7c0,0,0,0-0.1,0h-0.1c0,0-0.1,0-0.1,0.1
		c0,0,0,0-0.1,0.1c0,0,0,0.1-0.1,0.1v0.1v0.1l0,0l0,0c0,0,0,0,0,0.1c0,0,0,0,0,0.1v0.1c0,0,0,0.1,0.1,0.1c0,0,0,0,0,0.1
		c0,0,0.1,0,0.1,0.1c0,0,0,0,0.1,0h0.1c0,0,0,0,0.1,0c2.9,0.3,4.9,2.6,4.9,5.9v0.8c0,0.3,0.2,0.5,0.5,0.5s0.5-0.2,0.5-0.5v-0.8
		C209,88.9,207.5,86.4,205.1,85.4z"/>
	<path class="st3" d="M186,75.5c1.3,0,2.5,0.5,3.5,1.4c0.2,0.2,0.5,0.2,0.7,0s0.2-0.5,0-0.7c-1.1-1.1-2.6-1.8-4.2-1.8
		c-3.2,0-5.8,2.6-5.8,5.8c0,2.4,1,4.2,2.7,5.2c-2.4,1-3.9,3.4-3.9,6.5v0.8c0,0.3,0.2,0.5,0.5,0.5s0.5-0.2,0.5-0.5v-0.8
		c0-3.3,2-5.6,4.9-5.9c0,0,0,0,0.1,0h0.1c0,0,0,0,0.1,0c0,0,0.1,0,0.1-0.1c0,0,0,0,0-0.1c0,0,0-0.1,0.1-0.1v-0.1c0,0,0,0,0-0.1
		c0,0,0,0,0-0.1l0,0l0,0v-0.1v-0.1c0,0,0-0.1-0.1-0.1c0,0,0,0-0.1-0.1c0,0-0.1,0-0.1-0.1H185c0,0,0,0-0.1,0
		c-2.2-0.2-3.7-2.1-3.7-4.7C181.2,77.7,183.4,75.5,186,75.5z"/>
</g>
<circle class="st1" cx="370" cy="100" r="15"/>
<g>
	<path class="st1" d="M377.5,70.9v5.2h-3v-4.9c0-1.2-0.4-2.1-1.5-2.1c-0.8,0-1.3,0.6-1.5,1.1c-0.1,0.2-0.1,0.5-0.1,0.7V76h-3
		c0,0,0-8.3,0-9.1h3v1.3l0,0l0,0l0,0c0.4-0.6,1.1-1.5,2.7-1.5C376,66.8,377.5,68.1,377.5,70.9L377.5,70.9z M365.2,62.6
		c-1,0-1.7,0.7-1.7,1.6c0,0.9,0.7,1.6,1.7,1.6l0,0c1,0,1.7-0.7,1.7-1.6C366.8,63.3,366.2,62.6,365.2,62.6L365.2,62.6z M363.7,76.1h3
		V67h-3V76.1z"/>
</g>
<g>
	<path class="st1" d="M370,57c7.2,0,13,5.8,13,13s-5.8,13-13,13s-13-5.8-13-13S362.8,57,370,57 M370,55c-8.3,0-15,6.7-15,15
		s6.7,15,15,15s15-6.7,15-15S378.3,55,370,55L370,55z"/>
</g>
<g>
	<path class="st3" d="M377.5,100.9v5.2h-3v-4.9c0-1.2-0.4-2.1-1.5-2.1c-0.8,0-1.3,0.6-1.5,1.1c-0.1,0.2-0.1,0.5-0.1,0.7v5.1h-3
		c0,0,0-8.3,0-9.1h3v1.3l0,0l0,0l0,0c0.4-0.6,1.1-1.5,2.7-1.5C376,96.8,377.5,98.1,377.5,100.9L377.5,100.9z M365.2,92.6
		c-1,0-1.7,0.7-1.7,1.6s0.7,1.6,1.7,1.6l0,0c1,0,1.7-0.7,1.7-1.6C366.8,93.3,366.2,92.6,365.2,92.6L365.2,92.6z M363.7,106.1h3V97
		h-3V106.1z"/>
</g>
<g>
	<path class="st1" d="M409,57c7.2,0,13,5.8,13,13s-5.8,13-13,13s-13-5.8-13-13S401.8,57,409,57 M409,55c-8.3,0-15,6.7-15,15
		s6.7,15,15,15s15-6.7,15-15S417.3,55,409,55L409,55z"/>
</g>
<path class="st1" d="M411.3,64.6h1.5V62c-0.3,0-1.2-0.1-2.2-0.1c-2.2,0-3.7,1.4-3.7,3.9V68h-2.5v2.9h2.5v8h3v-8h2.5l0.4-2.9h-2.9v-2
	C409.9,65.2,410.1,64.6,411.3,64.6z"/>
<circle class="st1" cx="409" cy="100" r="15"/>
<path class="st3" d="M411.3,94.6h1.5V92c-0.3,0-1.2-0.1-2.2-0.1c-2.2,0-3.7,1.4-3.7,3.9V98h-2.5v2.9h2.5v8h3v-8h2.5l0.4-2.9h-2.9v-2
	C409.9,95.2,410.1,94.6,411.3,94.6z"/>
<g>
	<path class="st1" d="M447,113c-7.7,0-14-6.3-14-14s6.3-14,14-14s14,6.3,14,14S454.7,113,447,113z"/>
	<path class="st1" d="M447,86c7.2,0,13,5.8,13,13s-5.8,13-13,13s-13-5.8-13-13S439.8,86,447,86 M447,84c-8.3,0-15,6.7-15,15
		s6.7,15,15,15s15-6.7,15-15S455.3,84,447,84L447,84z"/>
</g>
<path class="st3" d="M451.6,91.5h-9.2c-1.6,0-2.9,1.3-2.9,2.9v3.1v6.1c0,1.6,1.3,2.9,2.9,2.9h9.2c1.6,0,2.9-1.3,2.9-2.9v-6.1v-3.1
	C454.5,92.8,453.2,91.5,451.6,91.5z M452.4,93.2h0.3v0.3v2.2h-2.5v-2.5H452.4z M444.9,97.5c0.5-0.7,1.3-1.1,2.1-1.1
	c0.9,0,1.7,0.4,2.1,1.1c0.3,0.4,0.5,1,0.5,1.5c0,1.5-1.2,2.6-2.6,2.6c-1.5,0-2.6-1.2-2.6-2.6C444.4,98.4,444.5,97.9,444.9,97.5z
	 M452.7,103.3c0,0.8-0.6,1.4-1.4,1.4h-8.6c-0.8,0-1.4-0.6-1.4-1.4v-5.8h1.9c-0.2,0.5-0.3,1-0.3,1.5c0,2.3,1.8,4.1,4.1,4.1
	s4.1-1.8,4.1-4.1c0-0.5-0.1-1.1-0.3-1.5h1.9L452.7,103.3L452.7,103.3z"/>
<g>
	<path class="st1" d="M447,56c7.2,0,13,5.8,13,13s-5.8,13-13,13s-13-5.8-13-13S439.8,56,447,56 M447,54c-8.3,0-15,6.7-15,15
		s6.7,15,15,15s15-6.7,15-15S455.3,54,447,54L447,54z"/>
</g>
<g>
	<path class="st1" d="M440.5,66.5v-2.1c0-1,0.9-1.9,1.9-1.9h6.8v3.6c-0.6-0.5-1.4-0.8-2.2-0.8c-1,0-1.9,0.4-2.6,1.1L440.5,66.5
		L440.5,66.5z"/>
	<path class="st1" d="M448.2,63.5v1c-0.4-0.1-0.8-0.2-1.2-0.2c-1.1,0-2.2,0.4-3,1.1h-0.8h-1.7v-1.1c0-0.5,0.4-0.9,0.9-0.9
		L448.2,63.5 M451.6,61.5h-9.2c-1.6,0-2.9,1.3-2.9,2.9v3.1v6.1c0,1.6,1.3,2.9,2.9,2.9h9.2c1.6,0,2.9-1.3,2.9-2.9v-6.1v-3.1
		C454.5,62.8,453.2,61.5,451.6,61.5L451.6,61.5z M450.2,65.8v-2.5h2.2h0.3v0.3v2.2H450.2L450.2,65.8z M447,71.6
		c-1.5,0-2.6-1.2-2.6-2.6c0-0.6,0.2-1.1,0.5-1.5c0.5-0.7,1.3-1.1,2.1-1.1c0.9,0,1.7,0.4,2.1,1.1c0.3,0.4,0.5,1,0.5,1.5
		C449.6,70.5,448.5,71.6,447,71.6L447,71.6z M447,73.1c2.3,0,4.1-1.8,4.1-4.1c0-0.5-0.1-1.1-0.3-1.5h1.9v5.8c0,0.8-0.6,1.4-1.4,1.4
		h-8.6c-0.8,0-1.4-0.6-1.4-1.4v-5.8h1.9c-0.2,0.5-0.3,1-0.3,1.5C442.9,71.3,444.7,73.1,447,73.1L447,73.1z"/>
</g>
<g>
	<path class="st4" d="M28,178c-13.2,0-24-10.8-24-24s10.8-24,24-24s24,10.8,24,24S41.2,178,28,178z M28,131c-12.7,0-23,10.3-23,23
		s10.3,23,23,23s23-10.3,23-23S40.7,131,28,131z"/>
	<g>
		<path class="st3" d="M34.1,142.9c1.5,0,2.9,0.6,4,1.7c1.1,1,1.7,2.5,1.7,4v3c0,1.5-0.6,2.9-1.7,3.9c-1,1-2.5,1.6-4,1.6h-6v6.7h2.3
			c0.4,0,0.7,0.3,0.7,0.7s-0.3,0.7-0.7,0.7H20.2c-0.4,0-0.7-0.3-0.7-0.7s0.3-0.7,0.7-0.7h2.2v-6.7h-2.2c-0.4,0-0.7-0.3-0.7-0.7
			s0.3-0.7,0.7-0.7h2.2v-11.4h-2.8v2.1c0,0.4-0.3,0.7-0.7,0.7s-0.7-0.3-0.7-0.7v-2.8c0-0.4,0.3-0.7,0.7-0.7L34.1,142.9L34.1,142.9z
			 M26.8,155.7v-11.4h-3.1v11.5h3.1V155.7z M23.7,157.1v6.7h3.1v-6.7C26.8,157.1,23.7,157.1,23.7,157.1z M29.7,155.7
			c1.1,0,2.2-0.4,3-1.2s1.2-1.8,1.2-3v-3c0-1.1-0.4-2.2-1.3-3c-0.8-0.8-1.8-1.3-3-1.3h-1.5v11.5H29.7z M38.4,148.5
			c0-1.1-0.4-2.2-1.3-3c-0.8-0.8-1.9-1.3-3-1.3h-0.9c1.2,1,2,2.5,2,4.3v3c0,1.5-0.6,2.9-1.7,3.9l-0.3,0.3H34c2.4,0,4.3-1.9,4.3-4.2
			L38.4,148.5L38.4,148.5z"/>
	</g>
	<g>
		<path class="st3" d="M63.4,159.9h1.9v-12h-1.9v-1.2H70c0.9,0,1.8,0.1,2.5,0.4c1.4,0.6,2.3,2,2.3,3.9c0,2-1,3.5-2.6,4.1
			c-0.7,0.2-1.3,0.3-2.1,0.3h-3.3v4.5h1.9v1.2h-5.2v-1.2H63.4z M69.8,154.2c0.7,0,1.3-0.1,1.7-0.3c1.1-0.4,1.7-1.5,1.7-2.9
			c0-1.3-0.5-2.3-1.5-2.7c-0.5-0.2-1.2-0.3-1.9-0.3h-3.1v6.2H69.8z"/>
		<path class="st3" d="M78.1,159.9H80v-12h-1.9v-1.2h5.2v1.2h-1.9v11.9h5.8v-2.4h1.3v3.6H78.1V159.9z"/>
		<path class="st3" d="M90.8,159.9h1.5l4.9-13.2h1.6l4.9,13.2h1.5v1.2h-4.6v-1.2h1.7l-1.4-3.7h-5.6l-1.4,3.7h1.7v1.2H91v-1.2H90.8z
			 M100.4,155l-2.2-5.9c-0.1-0.2-0.1-0.5-0.2-0.6v-0.3h-0.1c0,0.1,0,0.2,0,0.3c-0.1,0.2-0.1,0.4-0.2,0.6l-2.2,5.9H100.4z"/>
		<path class="st3" d="M109.8,159.9h1.9v-12h-4v2.3h-1.3v-3.6h12.1v3.6h-1.3v-2.3h-4v12h1.9v1.2h-5.2L109.8,159.9L109.8,159.9z"/>
		<path class="st3" d="M121.8,159.9h1.9v-12h-1.9v-1.2h5.2v1.2h-1.9v12h1.9v1.2h-5.2V159.9z"/>
		<path class="st3" d="M130.7,159.9h1.9v-12h-1.9v-1.2h3.3l8,11.3c0.1,0.1,0.2,0.3,0.3,0.6c0.1,0.1,0.1,0.2,0.1,0.3l0,0v-0.3
			c0-0.2,0-0.5,0-0.7v-10h-1.9v-1.2h5.2v1.2h-1.9v13.2h-1.4l-8.1-11.4c-0.1-0.2-0.2-0.4-0.3-0.6c-0.1-0.1-0.1-0.2-0.1-0.3l0,0v0.3
			c0,0.2,0,0.4,0,0.6v10.1h1.9v1.2h-5.2L130.7,159.9L130.7,159.9z"/>
		<path class="st3" d="M150.7,147.9h-1.9v-1.2h5.2v1.2h-1.9v7.9c0,1,0.2,2,0.6,2.6c0.7,1,1.9,1.6,3.5,1.6s2.8-0.6,3.5-1.7
			c0.4-0.7,0.6-1.6,0.6-2.6v-7.8h-1.9v-1.2h5.2v1.2h-1.9v7.9c0,1.3-0.3,2.5-0.9,3.4c-1,1.4-2.6,2.2-4.6,2.2s-3.7-0.8-4.6-2.2
			c-0.6-0.9-0.9-2-0.9-3.4L150.7,147.9L150.7,147.9z"/>
		<path class="st3" d="M166.6,159.9h1.9l1-12h-1.9v-1.2h3.5l4.2,9.4c0.1,0.2,0.1,0.5,0.2,0.6l0.1,0.2l0,0c0-0.1,0-0.2,0.1-0.2
			c0.1-0.1,0.1-0.4,0.2-0.6l4.2-9.4h3.4v1.2h-1.9l0.9,12h1.9v1.2h-5.1v-1.2h1.8l-0.8-9.9c0-0.2,0-0.4,0-0.7c0-0.1,0-0.2,0-0.4l0,0
			l-0.1,0.3c-0.1,0.2-0.1,0.4-0.2,0.6l-3.8,8.4h-1.3l-3.9-8.4c-0.1-0.2-0.1-0.4-0.2-0.6c0-0.1-0.1-0.2-0.1-0.3h-0.1
			c0,0.1,0,0.2,0,0.4s0,0.5,0,0.7l-0.8,9.9h1.8v1.2h-5.1v-1.2H166.6z"/>
		<path class="st3" d="M194.5,159.9h1.9v-12h-1.9v-1.2h5.2v1.2h-1.9v12h1.9v1.2h-5.2V159.9z"/>
		<path class="st3" d="M203.4,159.9h1.9v-12h-1.9v-1.2h3.3l8.1,11.4c0.1,0.1,0.2,0.3,0.3,0.6c0.1,0.1,0.1,0.2,0.1,0.3l0,0v-0.3
			c0-0.2,0-0.5,0-0.7v-10.1h-1.9v-1.2h5.2v1.2h-1.9v13.2h-1.4l-8.1-11.4c-0.1-0.2-0.2-0.4-0.3-0.6c-0.1-0.1-0.1-0.2-0.1-0.3l0,0v0.3
			c0,0.2,0,0.4,0,0.6v10.1h1.9v1.2h-5.2L203.4,159.9L203.4,159.9z"/>
		<path class="st3" d="M222,159.9h1.9v-12H222v-1.2h5.1v1.2h-1.8v5.1h2.1l3.5-5.1h-1.4v-1.2h4.5v1.2h-1.5l-4,5.6l0,0l0.2,0.2
			c0.1,0.1,0.3,0.3,0.5,0.7l2.9,5c0.2,0.4,0.5,0.6,1.1,0.6h0.7v1.2h-1.1c-1.2,0-1.5-0.3-2-1.1l-3-5.2c-0.2-0.4-0.5-0.6-1.1-0.6h-1.5
			v5.7h1.9v1.2H222V159.9z"/>
	</g>
</g>
<g>
	<g>
		<path class="st4" d="M178.7,501.4h1.7v1c0,1.4,2,2,3.6,2c1.8,0,3.2-0.7,3.2-2.2c0-1.6-1.8-2.1-3.7-2.9c-2.1-0.8-4.3-1.7-4.3-4.1
			c0-2.5,2.5-3.7,4.8-3.7c1.9,0,4.6,0.8,4.6,2.7v1.6h-1.7v-1c0-1-1.4-1.7-2.8-1.7c-1.5,0-2.9,0.7-2.9,2c0,1.5,1.7,2.1,3.5,2.8
			c2.1,0.7,4.5,1.7,4.5,4.2c0,2.4-2.1,3.9-5.2,3.9c-2.6,0-5.2-1.2-5.2-3.3v-1.3H178.7z"/>
		<path class="st4" d="M193.8,504.1h2.3v-10.8h-2.5v-1.5h4.4v12.3h2.3v1.5h-6.6v-1.5H193.8z M196,486.3h2.1v2.3H196V486.3z"/>
		<path class="st4" d="M204.5,504.1h2.3V494c0-0.4-0.2-0.6-0.6-0.6h-1.9v-1.5h2.6c1.1,0,1.7,0.5,1.7,1.5v0.8c0,0.3,0,0.5-0.1,0.7
			l-0.1,0.3h0.1c0.4-1,2.2-3.7,5.6-3.7c3.4,0,4.6,2,4.6,5.4v7.3h2.3v1.5h-4v-8.3c0-2.2-0.4-4.1-3-4.1c-3.1,0-5.3,2.7-5.3,5.8v5.1
			h2.3v1.5h-6.6L204.5,504.1L204.5,504.1L204.5,504.1z"/>
		<path class="st4" d="M232.3,491.5c1.8,0,5.1,0.7,5.1,3v1.5h-1.7v-1c0-1.2-2.1-1.8-3.4-1.8c-3,0-5.3,2.2-5.3,5.6s2.5,5.6,5.4,5.6
			c2.7,0,4.4-1.7,4.5-1.9l0.8,1.4c-0.3,0.3-2.2,2.1-5.4,2.1c-4,0-7.3-2.8-7.3-7.2C225.1,494.5,228.4,491.5,232.3,491.5z"/>
		<path class="st4" d="M249.2,491.5c3.8,0,5.8,2.9,5.8,6.4c0,0.2,0,0.4,0,0.6l-0.1,0.3h-10.6c0.1,3.6,2.5,5.6,5.4,5.6
			c1.3,0,2.3-0.4,3.1-0.8c0.4-0.2,0.8-0.5,1.2-0.8l0.9,1.4c-0.4,0.4-0.9,0.7-1.4,1c-0.9,0.5-2.2,1-3.7,1c-4.1,0-7.2-3-7.2-7.2
			C242.3,494.2,245.4,491.5,249.2,491.5z M253,497.4c-0.1-2.9-1.9-4.3-3.9-4.3c-2.3,0-4.3,1.5-4.8,4.3H253z"/>
		<path class="st4" d="M268.8,505.7c-0.1-0.4-0.1-0.8-0.1-1.2c0-6.8,10-7.6,10-13c0-2.1-1.6-3.7-4-3.7c-1.4,0-2.5,0.7-3.2,1.3
			c-0.4,0.4-0.8,0.8-1.1,1.3l-1.4-0.9c0.4-0.7,0.8-1.2,1.4-1.8c1-0.9,2.4-1.7,4.5-1.7c3.7,0,5.9,2.4,5.9,5.4c0,6.4-9.9,7.4-9.9,12.6
			h9.1v-2.7h1.8v4.3h-13L268.8,505.7L268.8,505.7z"/>
		<path class="st4" d="M287,496c0-5.6,1.6-10,6.7-10s6.7,4.4,6.7,10s-1.6,10-6.7,10C288.7,506,287,501.6,287,496z M298.4,496
			c0-4.6-1-8.2-4.7-8.2c-3.6,0-4.7,3.6-4.7,8.2c0,4.7,1,8.3,4.7,8.3C297.4,504.2,298.4,500.6,298.4,496z"/>
		<path class="st4" d="M305.6,504h4.3v-14.3c0-0.3,0-0.5,0-0.7v-0.3h-0.1l-0.2,0.3c-0.1,0.2-0.4,0.5-0.8,0.9l-2.1,2l-1.2-1.2
			l4.4-4.4h1.8V504h4.2v1.7h-10.5V504H305.6z"/>
		<path class="st4" d="M320.6,496c0-5.6,1.6-10,6.7-10s6.7,4.4,6.7,10s-1.6,10-6.7,10C322.3,506,320.6,501.6,320.6,496z M332,496
			c0-4.6-1-8.2-4.7-8.2c-3.6,0-4.7,3.6-4.7,8.2c0,4.7,1,8.3,4.7,8.3C331,504.2,332,500.6,332,496z"/>
	</g>
	<g>
		<path class="st3" d="M65.3,349.1h4.2v-27h-4.2v-2.7H80c2,0,4,0.2,5.5,0.9c3.2,1.4,5.2,4.6,5.2,8.8c0,4.5-2.2,7.9-5.9,9.2
			c-1.5,0.5-3,0.6-4.8,0.6h-7.3V349h4.2v2.7H65.3V349.1z M79.7,336.2c1.6,0,2.8-0.2,3.9-0.6c2.4-1,3.8-3.3,3.8-6.4
			c0-2.9-1.2-5.1-3.4-6.2c-1.2-0.5-2.7-0.8-4.4-0.8h-7v14H79.7z"/>
		<path class="st3" d="M98.2,349.1h4.2v-26.9h-4.2v-2.8h11.7v2.8h-4.2V349h12.9v-5.4h2.9v8.1H98.2V349.1z"/>
		<path class="st3" d="M126.8,349.1h3.3l10.9-29.6h3.5l10.9,29.6h3.3v2.7h-10.3v-2.7h3.7l-3.1-8.3h-12.6l-3,8.3h3.7v2.7h-10.3
			C126.8,351.8,126.8,349.1,126.8,349.1z M148.2,338.1l-4.8-13.2c-0.2-0.6-0.2-1.1-0.4-1.4l-0.1-0.6h-0.1c0,0.2,0,0.4-0.1,0.6
			c-0.1,0.4-0.2,0.9-0.4,1.4l-4.9,13.2H148.2z"/>
		<path class="st3" d="M169.4,349.1h4.2v-26.9h-9v5.2h-2.9v-8h27.1v8h-2.9v-5.2h-9v26.9h4.2v2.7h-11.7L169.4,349.1L169.4,349.1z"/>
		<path class="st3" d="M196.1,349.1h4.2v-27h-4.2v-2.7h11.7v2.7h-4.2v27h4.2v2.7h-11.7V349.1z"/>
		<path class="st3" d="M216.2,349.1h4.2v-27h-4.2v-2.7h7.3l18.1,25.5c0.2,0.3,0.4,0.7,0.6,1.2c0.1,0.2,0.2,0.5,0.3,0.7h0.1l-0.1-0.8
			c0-0.5,0-1.1,0-1.5V322h-4.3v-2.7H250v2.7h-4.2v29.6h-3.1l-18.1-25.5c-0.2-0.4-0.5-0.9-0.6-1.3c-0.1-0.2-0.2-0.5-0.3-0.7h-0.1
			l0.1,0.8c0,0.5,0.1,1,0,1.4v22.6h4.3v2.7h-11.7L216.2,349.1L216.2,349.1z"/>
		<path class="st3" d="M261.1,322.1h-4.2v-2.7h11.7v2.7h-4.2v17.7c0,2.3,0.5,4.4,1.4,5.9c1.5,2.3,4.3,3.6,7.8,3.6s6.3-1.3,7.8-3.8
			c1-1.6,1.4-3.6,1.4-5.9V322h-4.2v-2.7h11.7v2.7h-4.2v17.7c0,3-0.7,5.6-2.1,7.6c-2.2,3.1-5.9,4.8-10.3,4.8c-4.5,0-8.4-1.7-10.4-4.9
			c-1.4-2-2-4.5-2-7.6v-17.5H261.1z"/>
		<path class="st3" d="M296.8,349.1h4.2l2.2-27h-4.3v-2.7h7.8l9.4,21.1c0.2,0.5,0.3,1,0.5,1.3l0.2,0.6h0.1c0-0.2,0.1-0.4,0.2-0.6
			c0.1-0.3,0.3-0.8,0.5-1.3l9.4-21.1h7.7v2.7h-4.2l2.1,27h4.2v2.7h-11.5v-2.7h4.1l-1.7-22.3c0-0.4,0-1,0-1.5c0-0.3,0-0.5,0-0.8h-0.1
			l-0.2,0.8c-0.1,0.5-0.3,1-0.5,1.4l-8.6,18.9h-3l-8.6-18.9c-0.1-0.4-0.3-0.9-0.5-1.4c-0.1-0.3-0.1-0.6-0.2-0.8h-0.1
			c0,0.3,0,0.6,0,0.8c0,0.5,0.1,1.1,0,1.5l-1.7,22.3h4.1v2.7h-11.5V349.1z"/>
		<path class="st3" d="M359.2,349.1h4.2v-27h-4.2v-2.7h11.7v2.7h-4.2v27h4.2v2.7h-11.7V349.1z"/>
		<path class="st3" d="M379.2,349.1h4.2v-27h-4.2v-2.7h7.3l18.1,25.5c0.2,0.3,0.4,0.7,0.6,1.2c0.1,0.2,0.2,0.5,0.3,0.7h0.1l-0.1-0.8
			c0-0.5,0-1.1,0-1.5V322h-4.3v-2.7H413v2.7h-4.2v29.6h-3.1l-18.1-25.5c-0.2-0.4-0.5-0.9-0.6-1.3c-0.1-0.2-0.2-0.5-0.3-0.7h-0.1
			l0.1,0.8c0,0.5,0.1,1,0,1.4v22.6h4.3v2.7h-11.7L379.2,349.1L379.2,349.1z"/>
		<path class="st3" d="M420.9,349.1h4.2v-27h-4.2v-2.7h11.4v2.7h-4v11.4h4.7l7.9-11.4h-3.2v-2.7h10v2.7h-3.3l-8.9,12.5v0.1l0.5,0.4
			c0.3,0.3,0.7,0.7,1.1,1.5l6.6,11.2c0.6,0.9,1.1,1.3,2.4,1.3h1.6v2.7h-2.4c-2.7,0-3.4-0.6-4.5-2.4l-6.8-11.6
			c-0.5-1-1.1-1.4-2.6-1.4h-3.3v12.8h4.2v2.7h-11.6v-2.8L420.9,349.1L420.9,349.1z"/>
	</g>
	<g>
		<path class="st4" d="M17,384.8h2.5v-16.2H17V367h8.2c1.7,0,2.8,0.1,4.1,0.5c3.7,1.2,6,4.5,6,9.2c0,4.8-2.3,8-6.2,9.2
			c-1.2,0.4-2.5,0.5-3.9,0.5H17V384.8z M25,384.7c1.3,0,2.4-0.1,3.4-0.5c3-1,4.8-3.6,4.8-7.5s-1.8-6.6-4.7-7.6
			c-1.1-0.4-2.2-0.4-3.6-0.4h-3.4v16H25z"/>
		<path class="st4" d="M47.1,372.2c3.8,0,5.8,2.9,5.8,6.4c0,0.2,0,0.4,0,0.6l-0.1,0.3H42.2c0.1,3.6,2.5,5.6,5.4,5.6
			c1.3,0,2.3-0.4,3.1-0.8c0.4-0.2,0.8-0.5,1.2-0.8l0.9,1.4c-0.4,0.4-0.9,0.7-1.4,1c-0.9,0.5-2.2,1-3.7,1c-4.1,0-7.2-3-7.2-7.2
			C40.2,374.9,43.3,372.2,47.1,372.2z M50.9,378.1c-0.1-2.9-1.9-4.3-3.9-4.3c-2.3,0-4.3,1.5-4.8,4.3H50.9z"/>
		<path class="st4" d="M57.5,382.1h1.7v1c0,1.4,2,2,3.6,2c1.8,0,3.2-0.7,3.2-2.2c0-1.6-1.8-2.1-3.7-2.9c-2.1-0.8-4.3-1.7-4.3-4.1
			c0-2.5,2.5-3.7,4.8-3.7c1.9,0,4.6,0.8,4.6,2.7v1.6h-1.7v-1c0-1-1.4-1.7-2.8-1.7c-1.5,0-2.9,0.7-2.9,2c0,1.5,1.7,2.1,3.5,2.8
			c2.1,0.7,4.5,1.7,4.5,4.2c0,2.4-2.1,3.9-5.2,3.9c-2.6,0-5.2-1.2-5.2-3.3L57.5,382.1L57.5,382.1z"/>
		<path class="st4" d="M72.5,384.8h2.3V374h-2.5v-1.5h4.4v12.3H79v1.5h-6.6L72.5,384.8L72.5,384.8z M74.7,367h2.1v2.3h-2.1V367z"/>
		<path class="st4" d="M85.1,389.5c0.3,0.2,0.7,0.4,1.1,0.5c0.7,0.2,1.6,0.5,2.6,0.5c2.7,0,4.8-1.3,4.8-4.4v-1.4
			c0-0.3,0-0.5,0.1-0.7c0-0.1,0-0.2,0-0.3h-0.1c-0.9,1.5-2.2,2.5-4.4,2.5c-3.7,0-6.2-2.9-6.2-7.1s2.3-7,6-7c2,0,3.9,0.7,4.7,2.5h0.1
			v-0.1c0-0.1,0-0.2,0-0.5c0-1,0.4-1.5,1.6-1.5h2.5v1.5h-1.7c-0.4,0-0.6,0.2-0.6,0.6V386c0,4.4-3.2,6.1-6.7,6.1
			c-1.6,0-3.2-0.4-4.5-1.1L85.1,389.5z M93.8,379.2c0-4-2-5.3-4.4-5.3c-2.7,0-4.3,2-4.3,5.3s1.8,5.5,4.5,5.5
			C91.8,384.6,93.8,383.3,93.8,379.2z"/>
		<path class="st4" d="M102,384.8h2.3v-10.2c0-0.4-0.2-0.6-0.6-0.6h-1.9v-1.5h2.6c1.1,0,1.7,0.5,1.7,1.5v0.8c0,0.3,0,0.5-0.1,0.7
			l-0.1,0.3h0.1c0.4-1,2.2-3.7,5.6-3.7s4.6,2,4.6,5.4v7.3h2.3v1.5h-4.2V378c0-2.2-0.4-4.1-3-4.1c-3.1,0-5.3,2.7-5.3,5.8v5.1h2.3v1.5
			H102V384.8z"/>
	</g>
	<g>
		<path class="st4" d="M164.4,384.8h2l6.5-17.8h2.1l6.5,17.8h2v1.6h-6.2v-1.6h2.2l-1.8-5h-7.5l-1.8,5h2.2v1.6h-6.2V384.8z
			 M177.2,378.2l-2.9-7.9c-0.1-0.3-0.1-0.6-0.2-0.9L174,369h-0.1c0,0.1,0,0.2-0.1,0.4s-0.1,0.5-0.2,0.9l-2.9,7.9L177.2,378.2
			L177.2,378.2z"/>
		<path class="st4" d="M193.3,372.2c1.6,0,2.8,0.7,3.5,1.3c0.4,0.4,0.8,0.9,1,1.3h0.1c0-0.1,0-0.2,0-0.3c0-0.2-0.1-0.5-0.1-0.8v-5.3
			h-2.5V367h4.4v17.2c0,0.4,0.2,0.6,0.6,0.6h1.5v1.5h-2.3c-1.2,0-1.7-0.5-1.7-1.5v-0.2c0-0.2,0-0.4,0.1-0.6l0.1-0.2h-0.1
			c-0.2,0.5-0.6,1-1,1.5c-0.8,0.7-2,1.5-3.8,1.5c-3.7,0-6-3-6-7.2C187,375,189.6,372.2,193.3,372.2z M193.4,385
			c2.3,0,4.5-1.7,4.5-5.6c0-2.8-1.4-5.6-4.4-5.6c-2.5,0-4.5,2-4.5,5.6C189,382.9,190.8,385,193.4,385z"/>
		<path class="st4" d="M204.8,372.5h5.7v1.5h-2l3.5,9.3c0.1,0.2,0.1,0.5,0.2,0.7c0,0.1,0.1,0.2,0.1,0.4h0.1c0-0.1,0-0.2,0.1-0.4
			s0.1-0.5,0.2-0.7l3.5-9.3h-2v-1.5h5.7v1.5h-1.8l-4.7,12.3h-2l-4.7-12.3h-1.8v-1.5H204.8z"/>
		<path class="st4" d="M230.2,372.2c3.8,0,5.8,2.9,5.8,6.4c0,0.2,0,0.4,0,0.6l-0.1,0.3h-10.6c0.1,3.6,2.5,5.6,5.4,5.6
			c1.3,0,2.3-0.4,3.1-0.8c0.4-0.2,0.8-0.5,1.2-0.8l0.9,1.4c-0.4,0.4-0.9,0.7-1.4,1c-0.9,0.5-2.2,1-3.7,1c-4.1,0-7.2-3-7.2-7.2
			C223.3,374.9,226.4,372.2,230.2,372.2z M234,378.1c-0.1-2.9-1.9-4.3-3.9-4.3c-2.3,0-4.3,1.5-4.8,4.3H234z"/>
		<path class="st4" d="M240.7,384.8h2.1v-10.2c0-0.4-0.2-0.6-0.6-0.6h-1.9v-1.5h2.6c1.2,0,1.7,0.5,1.7,1.6v0.9c0,0.3,0,0.6,0,0.7
			s0,0.2,0,0.3h0.1c0.7-2.1,2.2-3.7,4.4-3.7c0.2,0,0.4,0,0.5,0l0.2,0.1v1.8c-0.1,0-0.1,0-0.2,0c-0.1,0-0.2,0-0.5,0
			c-3.1,0-4.4,3.5-4.4,6.2v4.3h2.1v1.5h-6.2L240.7,384.8L240.7,384.8z"/>
		<path class="st4" d="M255.4,374.1h-2.5v-1.5h2.5v-3.8h1.8v3.8h3.5v1.5h-3.5v7.1c0,3.2,2.1,3.7,3.1,3.7c0.2,0,0.4,0,0.5,0
			s0.1,0,0.2,0v1.6c-0.1,0-0.1,0-0.2,0s-0.3,0-0.6,0c-1.6,0-4.8-0.5-4.8-5.1L255.4,374.1L255.4,374.1z"/>
		<path class="st4" d="M265.1,384.8h2.3V374h-2.5v-1.5h4.3v12.3h2.3v1.5h-6.6v-1.5H265.1z M267.3,367h2.1v2.3h-2.1V367z"/>
		<path class="st4" d="M275.7,382.1h1.7v1c0,1.4,2,2,3.6,2c1.8,0,3.2-0.7,3.2-2.2c0-1.6-1.8-2.1-3.7-2.9c-2.1-0.8-4.3-1.7-4.3-4.1
			c0-2.5,2.5-3.7,4.8-3.7c1.9,0,4.6,0.8,4.6,2.7v1.6h-1.7v-1c0-1-1.4-1.7-2.8-1.7c-1.5,0-2.9,0.7-2.9,2c0,1.5,1.7,2.1,3.5,2.8
			c2.1,0.7,4.5,1.7,4.5,4.2c0,2.4-2.1,3.9-5.2,3.9c-2.6,0-5.2-1.2-5.2-3.3v-1.3H275.7z"/>
		<path class="st4" d="M290.8,384.8h2.3V374h-2.5v-1.5h4.4v12.3h2.3v1.5h-6.6v-1.5H290.8z M293,367h2.1v2.3H293V367z"/>
		<path class="st4" d="M301.5,384.8h2.3v-10.2c0-0.4-0.2-0.6-0.6-0.6h-1.9v-1.5h2.6c1.1,0,1.7,0.5,1.7,1.5v0.8c0,0.3,0,0.5-0.1,0.7
			l-0.1,0.3h0.1c0.4-1,2.2-3.7,5.6-3.7s4.6,2,4.6,5.4v7.3h2.3v1.5h-4V378c0-2.2-0.4-4.1-3-4.1c-3.1,0-5.3,2.7-5.3,5.8v5.1h2.3v1.5
			h-6.6v-1.5H301.5z"/>
		<path class="st4" d="M324.2,389.5c0.3,0.2,0.7,0.4,1.1,0.5c0.7,0.2,1.6,0.5,2.6,0.5c2.7,0,4.8-1.3,4.8-4.4v-1.4
			c0-0.3,0-0.5,0.1-0.7c0-0.1,0-0.2,0-0.3h-0.1c-0.9,1.5-2.2,2.5-4.4,2.5c-3.7,0-6.2-2.9-6.2-7.1s2.3-7,6-7c2,0,3.9,0.7,4.7,2.5h0.1
			v-0.1c0-0.1,0-0.2,0-0.5c0-1,0.4-1.5,1.6-1.5h2.5v1.5h-1.7c-0.4,0-0.6,0.2-0.6,0.6V386c0,4.4-3.2,6.1-6.7,6.1
			c-1.6,0-3.2-0.4-4.5-1.1L324.2,389.5z M332.8,379.2c0-4-2-5.3-4.4-5.3c-2.7,0-4.3,2-4.3,5.3s1.8,5.5,4.5,5.5
			C330.9,384.6,332.8,383.3,332.8,379.2z"/>
	</g>
	<g>
		<path class="st4" d="M375.5,384.8h2.5v-16.2h-2.5V367h8.8c1.2,0,2.4,0.1,3.3,0.6c1.9,0.9,3.1,2.8,3.1,5.3c0,2.7-1.3,4.7-3.5,5.5
			c-0.9,0.3-1.8,0.4-2.9,0.4H380v6.1h2.5v1.6h-7V384.8z M384.2,377.1c0.9,0,1.7-0.1,2.3-0.4c1.4-0.6,2.3-2,2.3-3.9
			c0-1.8-0.7-3-2-3.7c-0.7-0.3-1.6-0.5-2.6-0.5H380v8.4h4.2V377.1z"/>
		<path class="st4" d="M395.2,384.8h2.1v-10.2c0-0.4-0.2-0.6-0.6-0.6h-1.9v-1.5h2.6c1.2,0,1.7,0.5,1.7,1.6v0.9c0,0.3,0,0.6,0,0.7
			s0,0.2,0,0.3h0.1c0.7-2.1,2.2-3.7,4.4-3.7c0.2,0,0.4,0,0.5,0l0.2,0.1v1.8c-0.1,0-0.1,0-0.2,0s-0.2,0-0.5,0c-3.1,0-4.4,3.5-4.4,6.2
			v4.3h2.1v1.5h-6.2L395.2,384.8L395.2,384.8z"/>
		<path class="st4" d="M408.1,384.8h2.3V374H408v-1.5h4.4v12.3h2.3v1.5h-6.6L408.1,384.8L408.1,384.8z M410.3,367h2.1v2.3h-2.1V367z
			"/>
		<path class="st4" d="M418.8,384.8h2.3v-10.2c0-0.4-0.2-0.6-0.6-0.6h-1.9v-1.5h2.6c1.1,0,1.7,0.5,1.7,1.5v0.8c0,0.3,0,0.5-0.1,0.7
			l-0.1,0.3h0.1c0.4-1,2.2-3.7,5.6-3.7s4.6,2,4.6,5.4v7.3h2.3v1.5h-4.2V378c0-2.2-0.4-4.1-3-4.1c-3.1,0-5.3,2.7-5.3,5.8v5.1h2.3v1.5
			h-6.6v-1.5H418.8z"/>
		<path class="st4" d="M441.1,374.1h-2.5v-1.5h2.5v-3.8h1.8v3.8h3.5v1.5H443v7.1c0,3.2,2.1,3.7,3.1,3.7c0.2,0,0.4,0,0.5,0
			s0.1,0,0.2,0v1.6c-0.1,0-0.1,0-0.2,0s-0.3,0-0.6,0c-1.6,0-4.8-0.5-4.8-5.1v-7.3L441.1,374.1L441.1,374.1z"/>
		<path class="st4" d="M450.8,384.8h2.3V374h-2.5v-1.5h4.3v12.3h2.3v1.5h-6.6v-1.5H450.8z M453.1,367h2.1v2.3h-2.1V367z"/>
		<path class="st4" d="M461.6,384.8h2.3v-10.2c0-0.4-0.2-0.6-0.6-0.6h-1.9v-1.5h2.6c1.1,0,1.7,0.5,1.7,1.5v0.8c0,0.3,0,0.5-0.1,0.7
			l-0.1,0.3h0.1c0.4-1,2.2-3.7,5.6-3.7s4.6,2,4.6,5.4v7.3h2.3v1.5h-4.2V378c0-2.2-0.4-4.1-3-4.1c-3.1,0-5.3,2.7-5.3,5.8v5.1h2.3v1.5
			h-6.6v-1.5H461.6z"/>
		<path class="st4" d="M484.2,389.5c0.3,0.2,0.7,0.4,1.1,0.5c0.7,0.2,1.6,0.5,2.6,0.5c2.7,0,4.8-1.3,4.8-4.4v-1.4
			c0-0.3,0-0.5,0.1-0.7c0-0.1,0-0.2,0-0.3h-0.1c-0.9,1.5-2.2,2.5-4.4,2.5c-3.7,0-6.2-2.9-6.2-7.1s2.3-7,6-7c2,0,3.9,0.7,4.7,2.5h0.1
			v-0.1c0-0.1,0-0.2,0-0.5c0-1,0.4-1.5,1.6-1.5h2.5v1.5h-1.7c-0.4,0-0.6,0.2-0.6,0.6V386c0,4.4-3.2,6.1-6.7,6.1
			c-1.6,0-3.2-0.4-4.5-1.1L484.2,389.5z M492.8,379.2c0-4-2-5.3-4.4-5.3c-2.7,0-4.3,2-4.3,5.3s1.8,5.5,4.5,5.5
			C490.9,384.6,492.8,383.3,492.8,379.2z"/>
	</g>
	<circle class="st4" cx="141.5" cy="377.7" r="2.3"/>
	<circle class="st4" cx="356.7" cy="377.7" r="2.3"/>
	<g>
		<path class="st4" d="M257.7,299.9c-29.7,0-53.9-24.2-53.9-53.9s24.1-54,53.9-54s53.9,24.2,53.9,53.9S287.4,299.9,257.7,299.9z
			 M257.7,194.3c-28.5,0-51.6,23.2-51.6,51.6s23.2,51.6,51.6,51.6s51.6-23.2,51.6-51.6S286.2,194.3,257.7,194.3z"/>
		<g>
			<path class="st3" d="M271.5,221.1c3.4,0,6.5,1.3,8.9,3.7c2.4,2.3,3.7,5.5,3.7,8.9v6.7c0,3.4-1.3,6.5-3.7,8.8
				c-2.3,2.3-5.5,3.6-8.9,3.6h-13.4v14.9h5.2c0.8,0,1.5,0.7,1.5,1.5s-0.7,1.5-1.5,1.5h-23.2c-0.8,0-1.5-0.7-1.5-1.5s0.7-1.5,1.5-1.5
				h4.9v-14.9h-4.9c-0.8,0-1.5-0.7-1.5-1.5s0.7-1.5,1.5-1.5h4.9v-25.7h-6.2v4.8c0,0.8-0.7,1.5-1.5,1.5s-1.5-0.7-1.5-1.5v-6.3
				c0-0.8,0.7-1.5,1.5-1.5C237.3,221.1,271.5,221.1,271.5,221.1z M255.1,249.8v-25.7h-7v25.7H255.1z M248.1,252.8v14.9h7v-14.9
				L248.1,252.8L248.1,252.8z M261.5,249.8c2.5,0,4.9-1,6.7-2.8c1.8-1.8,2.8-4.1,2.8-6.7v-6.7c0-2.5-1-5-2.8-6.7
				c-1.8-1.9-4.1-2.8-6.7-2.8h-3.3v25.7H261.5z M281.1,233.7c0-2.5-1-5-2.8-6.7c-1.8-1.9-4.2-2.8-6.7-2.8h-1.9
				c2.7,2.3,4.4,5.7,4.4,9.6v6.7c0,3.4-1.3,6.5-3.7,8.8l-0.6,0.6h1.9c5.3,0,9.6-4.2,9.6-9.4v-6.8L281.1,233.7L281.1,233.7z"/>
		</g>
	</g>
	<g>
		<path class="st1" d="M326.7,309h2.6l30.7-53.1c0.2-0.4,0.2-0.8,0-1.1c-0.2-0.4-0.6-0.6-1-0.6h-42.2c-0.1,0.8-0.2,1.5-0.4,2.3H357
			L326.7,309z"/>
		<path class="st1" d="M186,309h2.6l-30.3-52.5H199c-0.1-0.8-0.3-1.5-0.4-2.3h-42.2c-0.4,0-0.8,0.2-1,0.6c-0.2,0.4-0.2,0.8,0,1.1
			L186,309z"/>
		<path class="st1" d="M275,398.5l-17.3,30l-17.3-30h-2.6l19,32.9c0.2,0.4,0.6,0.6,1,0.6s0.8-0.2,1-0.6l19-32.9H275z"/>
	</g>
	<g>
		<path class="st4" d="M165.2,309h2.6l-40.7-70.5h71.3c0.1-0.8,0.2-1.5,0.3-2.3H125c-0.4,0-0.8,0.2-1,0.6c-0.2,0.4-0.2,0.8,0,1.1
			L165.2,309z"/>
		<path class="st4" d="M388.2,238.5L347.5,309h2.6l41-71.1c0.2-0.4,0.2-0.8,0-1.1c-0.2-0.4-0.6-0.6-1-0.6h-73.7
			c0.1,0.8,0.2,1.5,0.3,2.3C316.7,238.5,388.2,238.5,388.2,238.5z"/>
		<path class="st4" d="M295.8,398.5l-38.1,66.1l-38.1-66.1H217l39.8,68.9c0.2,0.4,0.6,0.6,1,0.6s0.8-0.2,1-0.6l39.8-68.9H295.8z"/>
	</g>
</g>
<g>
	<path class="st1" d="M229,541.7v240.6L8.1,662L229,541.7 M230,540L6,662l224,122V540L230,540z"/>
</g>
<rect x="299" y="107" class="st0" width="24" height="24"/>
<g>
	<g>
		<path class="st3" d="M311,112c3.9,0,7,3.1,7,7s-3.1,7-7,7s-7-3.1-7-7S307.1,112,311,112 M311,110c-5,0-9,4-9,9s4,9,9,9s9-4,9-9
			S316,110,311,110L311,110z"/>
	</g>
	<g>
		<circle class="st3" cx="311" cy="119" r="3"/>
	</g>
</g>
<rect x="254" y="106" class="st0" width="24" height="24"/>
<g>
	<g>
		<circle class="st3" cx="266" cy="118" r="5"/>
	</g>
</g>
<g>
	<path class="st1" d="M486.5,72.9v5.2h-3v-4.9c0-1.2-0.4-2.1-1.5-2.1c-0.8,0-1.3,0.6-1.5,1.1c-0.1,0.2-0.1,0.5-0.1,0.7V78h-3
		c0,0,0-8.3,0-9.1h3v1.3l0,0l0,0l0,0c0.4-0.6,1.1-1.5,2.7-1.5C485,68.8,486.5,70.1,486.5,72.9L486.5,72.9z M474.2,64.6
		c-1,0-1.7,0.7-1.7,1.6s0.7,1.6,1.7,1.6l0,0c1,0,1.7-0.7,1.7-1.6C475.8,65.3,475.2,64.6,474.2,64.6L474.2,64.6z M472.7,78.1h3V69h-3
		V78.1z"/>
</g>
<g>
	<path class="st3" d="M486.5,93.9v5.2h-3v-4.9c0-1.2-0.4-2.1-1.5-2.1c-0.8,0-1.3,0.6-1.5,1.1c-0.1,0.2-0.1,0.5-0.1,0.7V99h-3
		c0,0,0-8.3,0-9.1h3v1.3l0,0l0,0l0,0c0.4-0.6,1.1-1.5,2.7-1.5C485,89.8,486.5,91.1,486.5,93.9L486.5,93.9z M474.2,85.6
		c-1,0-1.7,0.7-1.7,1.6s0.7,1.6,1.7,1.6l0,0c1,0,1.7-0.7,1.7-1.6C475.8,86.3,475.2,85.6,474.2,85.6L474.2,85.6z M472.7,99.1h3V90h-3
		V99.1z"/>
</g>
<path class="st1" d="M505.3,66.6h1.5V64c-0.3,0-1.2-0.1-2.2-0.1c-2.2,0-3.7,1.4-3.7,3.9V70h-2.5v2.9h2.5v8h3v-8h2.5l0.4-2.9h-2.9v-2
	C503.9,67.2,504.1,66.6,505.3,66.6z"/>
<path class="st3" d="M505.3,87.6h1.5V85c-0.3,0-1.2-0.1-2.2-0.1c-2.2,0-3.7,1.4-3.7,3.9V91h-2.5v2.9h2.5v8h3v-8h2.5l0.4-2.9h-2.9v-2
	C503.9,88.2,504.1,87.6,505.3,87.6z"/>
<path class="st3" d="M531.6,84.5h-9.2c-1.6,0-2.9,1.3-2.9,2.9v3.1v6.1c0,1.6,1.3,2.9,2.9,2.9h9.2c1.6,0,2.9-1.3,2.9-2.9v-6.1v-3.1
	C534.5,85.8,533.2,84.5,531.6,84.5z M532.4,86.2h0.3v0.3v2.2h-2.5v-2.5H532.4z M524.9,90.5c0.5-0.7,1.3-1.1,2.1-1.1
	c0.9,0,1.7,0.4,2.1,1.1c0.3,0.4,0.5,1,0.5,1.5c0,1.5-1.2,2.6-2.6,2.6c-1.5,0-2.6-1.2-2.6-2.6C524.4,91.4,524.5,90.9,524.9,90.5z
	 M532.7,96.3c0,0.8-0.6,1.4-1.4,1.4h-8.6c-0.8,0-1.4-0.6-1.4-1.4v-5.8h1.9c-0.2,0.5-0.3,1-0.3,1.5c0,2.3,1.8,4.1,4.1,4.1
	s4.1-1.8,4.1-4.1c0-0.5-0.1-1.1-0.3-1.5h1.9V96.3L532.7,96.3z"/>
<g>
	<path class="st1" d="M520.5,68.5v-2.1c0-1,0.9-1.9,1.9-1.9h6.8v3.6c-0.6-0.5-1.4-0.8-2.2-0.8c-1,0-1.9,0.4-2.6,1.1L520.5,68.5
		L520.5,68.5z"/>
	<path class="st1" d="M528.2,65.5v1c-0.4-0.1-0.8-0.2-1.2-0.2c-1.1,0-2.2,0.4-3,1.1h-0.8h-1.7v-1.1c0-0.5,0.4-0.9,0.9-0.9
		L528.2,65.5 M531.6,63.5h-9.2c-1.6,0-2.9,1.3-2.9,2.9v3.1v6.1c0,1.6,1.3,2.9,2.9,2.9h9.2c1.6,0,2.9-1.3,2.9-2.9v-6.1v-3.1
		C534.5,64.8,533.2,63.5,531.6,63.5L531.6,63.5z M530.2,67.8v-2.5h2.2h0.3v0.3v2.2H530.2L530.2,67.8z M527,73.6
		c-1.5,0-2.6-1.2-2.6-2.6c0-0.6,0.2-1.1,0.5-1.5c0.5-0.7,1.3-1.1,2.1-1.1c0.9,0,1.7,0.4,2.1,1.1c0.3,0.4,0.5,1,0.5,1.5
		C529.6,72.5,528.5,73.6,527,73.6L527,73.6z M527,75.1c2.3,0,4.1-1.8,4.1-4.1c0-0.5-0.1-1.1-0.3-1.5h1.9v5.8c0,0.8-0.6,1.4-1.4,1.4
		h-8.6c-0.8,0-1.4-0.6-1.4-1.4v-5.8h1.9c-0.2,0.5-0.3,1-0.3,1.5C522.9,73.3,524.7,75.1,527,75.1L527,75.1z"/>
</g>
<rect x="442" y="15" class="st0" width="14" height="14"/>
<g>
	<line class="st5" x1="445.5" y1="22" x2="452.5" y2="22"/>
	<line class="st5" x1="452.5" y1="22" x2="449.9" y2="19.5"/>
	<line class="st5" x1="452.5" y1="22" x2="449.9" y2="24.5"/>
</g>
<g>
	<rect x="299" y="136" class="st0" width="24" height="24"/>
	<g>
		<path class="st6" d="M311,141c3.9,0,7,3.1,7,7s-3.1,7-7,7s-7-3.1-7-7S307.1,141,311,141 M311,139c-5,0-9,4-9,9s4,9,9,9s9-4,9-9
			S316,139,311,139L311,139z"/>
	</g>
	<g>
		<circle class="st6" cx="311" cy="148" r="3"/>
	</g>
</g>
<rect x="254" y="136" class="st0" width="24" height="24"/>
<g>
	<circle class="st6" cx="266" cy="148" r="5"/>
</g>
<path class="st1" d="M376.4,127c-0.4,0-0.8,0.3-0.8,0.8v16l-2.8-2.8c-0.3-0.3-0.8-0.3-1.1,0c-0.3,0.3-0.3,0.8,0,1.1l4.1,4.1
	c0.1,0.1,0.3,0.2,0.6,0.2c0.2,0,0.4-0.1,0.6-0.2l4.1-4.1c0.3-0.3,0.3-0.8,0-1.1s-0.8-0.3-1.1,0l-2.8,2.8v-16
	C377.2,127.3,376.9,127,376.4,127L376.4,127z M390.2,135.3H382c-0.4,0-0.8,0.3-0.8,0.8c0,0.4,0.3,0.8,0.8,0.8h7.5v10.6
	c0,1-0.7,1.8-1.7,2l-17.5,2.2c-0.9,0.1-1.8-0.4-2.1-1.3l-5-13.4h7.8c0.4,0,0.8-0.3,0.8-0.8c0-0.4-0.3-0.8-0.8-0.8h-8.4l-1.2-3.2
	c-0.5-1.4-1.8-2.3-3.3-2.3h-2.2c-0.4,0-0.8,0.3-0.8,0.8c0,0.4,0.3,0.8,0.8,0.8h2.2c0.8,0,1.6,0.5,1.8,1.3l6.8,18.2
	c0.1,0.4,0.4,0.7,0.6,1l0.2,0.3l-2.4,4l-0.4-0.1c-0.2-0.1-0.5-0.1-0.8-0.1c-1.9,0-3.5,1.6-3.5,3.5s1.6,3.5,3.5,3.5
	c1.5,0,2.9-1,3.3-2.4l0.1-0.3H384l0.1,0.3c0.5,1.4,1.8,2.4,3.3,2.4c1.9,0,3.5-1.6,3.5-3.5s-1.6-3.5-3.5-3.5c-1.5,0-2.9,1-3.3,2.4
	l-0.1,0.3h-16.5l-0.1-0.3c-0.1-0.4-0.4-0.8-0.7-1.2l-0.2-0.3l2.4-3.9l0.4,0.1c0.2,0.1,0.5,0.1,0.8,0.1c0.1,0,0.3,0,0.4,0l17.5-2.2
	c1.8-0.2,3.1-1.7,3.1-3.5V136C391,135.6,390.7,135.3,390.2,135.3L390.2,135.3z M364,161.4c-1.1,0-2-0.9-2-2s0.9-2,2-2s2,0.9,2,2
	C366,160.6,365.1,161.4,364,161.4L364,161.4z M387.5,157.5c1.1,0,2,0.9,2,2s-0.9,2-2,2s-2-0.9-2-2S386.4,157.5,387.5,157.5
	L387.5,157.5z"/>
<path class="st7" d="M450.4,137.7h-17.6c-0.8-2.7-2.3-5.2-4.5-7.1c-3.3-2.9-7.5-4.3-11.9-3.8c-7,0.8-12.7,6.5-13.4,13.5
	c-0.4,3.8,0.7,7.7,3,10.7c2.2,2.9,5.4,5,8.9,5.7l3.7,3.7c0.3,0.3,0.7,0.5,1.2,0.5c0.2,0,0.4,0,0.6-0.1c0.6-0.3,1-0.9,1-1.5v-2.6
	c0.6-0.1,1.2-0.3,1.8-0.5v0.1c0,1.8,1.5,3.3,3.3,3.3h5.6l3,3c0.3,0.3,0.6,0.4,1,0.4c0.2,0,0.4,0,0.5-0.1c0.5-0.2,0.9-0.7,0.9-1.3v-2
	h12.8c1.8,0,3.3-1.5,3.3-3.3V141C453.7,139.2,452.2,137.7,450.4,137.7z M420.6,155.3c-0.4,0.1-0.7,0.4-0.7,0.8v3.3l0,0
	c0,0,0,0-0.1,0l-3.9-3.9c-0.1-0.1-0.3-0.2-0.4-0.2c-3.3-0.7-6.2-2.5-8.2-5.2c-2.1-2.7-3-6.1-2.7-9.6c0.3-3,1.7-5.9,3.9-8.1
	c2.2-2.2,5.1-3.6,8.1-3.9c0.5-0.1,1.1-0.1,1.6-0.1c3.4,0,6.5,1.2,9.1,3.5c2.9,2.6,4.5,6.3,4.5,10.1
	C431.8,148.5,427.1,154.1,420.6,155.3z M452.1,156.3c0,1-0.8,1.7-1.7,1.7h-13.6c-0.4,0-0.8,0.4-0.8,0.8v2.3l-2.9-2.9
	c-0.1-0.1-0.4-0.2-0.6-0.2h-5.9c-1,0-1.7-0.8-1.7-1.7v-0.8c5.1-2.5,8.5-7.7,8.5-13.6c0-0.9-0.1-1.7-0.2-2.6h17.2
	c1,0,1.7,0.8,1.7,1.7V156.3z"/>
<path class="st7" d="M446.4,143.9l-7.9,7.9l-3.7-3.7c-0.3-0.3-0.8-0.3-1.1,0c-0.3,0.3-0.3,0.8,0,1.1l4.2,4.2
	c0.2,0.2,0.4,0.2,0.6,0.2s0.4-0.1,0.6-0.2l8.5-8.5c0.3-0.3,0.3-0.8,0-1.1C447.3,143.5,446.7,143.5,446.4,143.9z"/>
<path class="st7" d="M418.2,147.9L418.2,147.9c-0.4,0-0.8,0.4-0.8,0.8l0,0l0,0c0,0.4,0.4,0.8,0.8,0.8l0,0c0.4,0,0.8-0.4,0.8-0.8l0,0
	l0,0C419,148.2,418.6,147.9,418.2,147.9z"/>
<path class="st7" d="M418.2,134.3c-2.8,0-5,2.3-5,5c0,0.4,0.4,0.8,0.8,0.8s0.8-0.4,0.8-0.8c0-1.9,1.5-3.4,3.4-3.4
	c0.9,0,1.8,0.4,2.4,1c0.7,0.7,1,1.5,1,2.4c0,1.5-1,2.9-2.5,3.3c-1.1,0.3-1.8,1.3-1.8,2.4v0.3c0,0.4,0.4,0.8,0.8,0.8s0.8-0.4,0.8-0.8
	V145c0-0.4,0.3-0.7,0.7-0.9c2.1-0.6,3.6-2.6,3.6-4.8c0-1.3-0.5-2.6-1.5-3.5C420.8,134.8,419.5,134.3,418.2,134.3z"/>
<path class="st8" d="M501.6,153.8c-0.1-0.2-0.3-0.4-0.5-0.4l-4.8-0.7l-2.2-4.2c-0.2-0.4-0.9-0.4-1.1,0l-2.2,4.2l-4.8,0.7
	c-0.2,0-0.4,0.2-0.5,0.4s0,0.5,0.2,0.6l3.5,3.3l-0.8,4.6c0,0.2,0.1,0.5,0.2,0.6c0.2,0.1,0.4,0.2,0.7,0.1l4.3-2.2l4.3,2.2
	c0.1,0,0.2,0.1,0.3,0.1c0.1,0,0.3,0,0.4-0.1c0.2-0.1,0.3-0.4,0.2-0.6l-0.8-4.6l3.5-3.3C501.6,154.2,501.7,154,501.6,153.8
	L501.6,153.8z M496.8,157c-0.2,0.1-0.2,0.4-0.2,0.6l0.7,3.7l-3.5-1.8c-0.1,0-0.2-0.1-0.3-0.1c-0.1,0-0.2,0-0.3,0.1l-3.5,1.8l0.7-3.7
	c0-0.2,0-0.4-0.2-0.6l-2.8-2.6l3.9-0.5c0.2,0,0.4-0.2,0.5-0.3l1.8-3.4l1.7,3.4c0.1,0.2,0.3,0.3,0.5,0.3l3.9,0.5L496.8,157z"/>
<path class="st8" d="M482.1,159.9c-0.4,0-0.8,0-1.2,0c-0.1,0-0.1,0-0.2,0c-0.4,0-0.8-0.1-1.2-0.1h-0.1c-0.8-0.1-1.6-0.3-2.4-0.6
	c0,0,0,0-0.1,0c-0.4-0.1-0.8-0.3-1.2-0.4l0,0c-0.4-0.2-0.7-0.3-1.1-0.5c0,0-0.1,0-0.1-0.1c-0.3-0.2-0.6-0.4-0.9-0.5
	c-0.1-0.1-0.2-0.1-0.3-0.2c-0.3-0.2-0.6-0.4-0.8-0.6c0,0-0.1,0-0.1-0.1h0.1l4.9-2.7c0.8-0.5,1.4-1.3,1.4-2.3v-2.2l-0.1-0.2
	c0,0-1.4-1.6-1.9-3.9l-0.1-0.2l-0.2-0.1c-0.3-0.2-0.5-0.5-0.5-0.9v-2.2c0-0.3,0.1-0.6,0.3-0.8l0.2-0.2v-3.5v-0.1
	c0,0-0.2-1.5,0.9-2.7c0.9-1,2.4-1.5,4.6-1.5c2.1,0,3.7,0.5,4.6,1.5c1.1,1.2,0.9,2.7,0.9,2.7v3.5l0.2,0.2c0.2,0.2,0.3,0.5,0.3,0.8
	v2.2c0,0.4-0.3,0.8-0.7,1c-0.3,0.1-0.5,0.4-0.4,0.8c0.1,0.3,0.4,0.5,0.8,0.4c1-0.3,1.6-1.2,1.6-2.2V142c0-0.5-0.2-1.1-0.5-1.5v-2.9
	c0-0.3,0.1-2.1-1.2-3.6c-1.1-1.3-3-2-5.5-2s-4.4,0.7-5.5,2c-1.3,1.5-1.2,3.3-1.2,3.6v2.9c-0.4,0.4-0.5,0.9-0.5,1.5v2.2
	c0,0.7,0.3,1.3,0.8,1.8c0.5,2,1.5,3.5,1.9,4v1.8c0,0.5-0.3,1-0.7,1.2l-4.9,2.7c-0.2,0.1-0.3,0.2-0.5,0.3c-3.2-2.9-5.3-7.1-5.3-11.8
	c0-8.7,7.1-15.8,15.8-15.8s15.8,7.1,15.8,15.8c0,0.3,0.3,0.6,0.6,0.6c0.3,0,0.6-0.3,0.6-0.6c0-9.4-7.7-17.1-17.1-17.1
	s-17.1,7.7-17.1,17.1c0,5,2.1,9.5,5.5,12.6l0,0l0.6,0.5l0.1,0.1c0.3,0.2,0.6,0.5,0.9,0.7c0.1,0.1,0.2,0.1,0.3,0.2
	c0.3,0.2,0.7,0.4,1,0.6c0.1,0,0.2,0.1,0.2,0.1c0.4,0.2,0.8,0.4,1.2,0.6h0.1c1.3,0.6,2.7,1,4.1,1.3h0.1c0.4,0.1,0.9,0.1,1.4,0.2
	c0.1,0,0.1,0,0.2,0c0.5,0,0.9,0.1,1.4,0.1c0.3,0,0.6-0.3,0.6-0.6C482.7,160.2,482.4,159.9,482.1,159.9L482.1,159.9z"/>
<path class="st9" d="M469.6,164"/>
<g>
	<g>
		<g>
			<path class="st1" d="M322,560.6l-1.8-6.9c-0.1-0.3-0.3-0.6-0.6-0.7c-0.3-0.1-0.6,0-0.9,0.1l-5.7,4.3c-0.1,0.1-0.3,0.3-0.3,0.4
				l-2.7,7.6c-0.7-0.6-1.5-1.2-2.2-1.8l0.9-8.4c2.4-3.3,3.4-6.6,3-9.9c-0.7-5.1-4.8-7.9-4.9-8.1c-0.3-0.3-0.9-0.3-1.2,0
				c-0.3,0.3-0.4,0.7-0.3,1.2l0.4,1.2c0.7,1.9,0,4.3-1.8,5.4c-2.8,1.8-3.9,5.5-2.2,8.5l0.4,1l-0.4,6.9c-0.6,0-1-0.1-1.6-0.1
				c-1.2,0-2.2,0.1-3.3,0.4V561c0.3-0.1,0.4-0.4,0.7-0.7c0.3-0.4,0.4-1.2,0.3-1.8s-0.4-1-1-1.5c-0.3-0.1-0.6-0.3-0.9-0.3l-0.3-1
				c-0.1-0.4-0.1-0.9,0-1.2c0.6-1.3,0.3-3.1-0.7-4.3l-5.4-6.1c-0.3-0.3-0.6-0.4-0.9-0.3c-0.3,0.1-0.6,0.3-0.7,0.7l-2.2,7.9
				c-0.4,1.5,0,3.3,1.2,4.2c0.3,0.3,0.4,0.6,0.6,1l0.3,1c-0.3,0.1-0.4,0.4-0.6,0.6c-0.3,0.4-0.4,1.2-0.3,1.8s0.4,1,1,1.5
				c0.3,0.1,0.6,0.3,0.9,0.3l0.7,3.6c-0.7,0.7-1.3,1.6-1.8,2.5c-0.3,0-0.6-0.1-0.7-0.1l-4.5-6.9c-0.1-0.1-0.3-0.4-0.6-0.4
				s-0.6,0-0.7,0.1l-10.6,7c-0.7,0.3-0.9,0.9-0.6,1.3l3.9,6.1c-3.1,0.9-5.5,3.7-5.5,7.3c0,4.2,3.3,7.5,7.5,7.5h37.7
				c4,0,7.5-3.3,7.5-7.5c0-3-1.8-5.5-4.2-6.7l5.4-15.7C322,561.1,322,560.9,322,560.6z M318.7,555.9l0.3,1c-0.1,0-0.4,0-0.6-0.1
				c-0.1,0-0.3-0.1-0.6-0.3L318.7,555.9z M314.1,560c0.6,0.4,1,0.7,1.6,0.9l-2.8,8.2c-0.4-0.7-0.9-1.3-1.3-1.9L314.1,560z
				 M305.1,547c1.8-1.2,3-3.3,3-5.4c0.7,1,1.5,2.5,1.6,4.2c0.4,2.7-0.4,5.4-2.4,8.2l-3.4-0.3l-0.3-0.7
				C302.4,550.9,303.2,548.4,305.1,547z M304.1,557.2l0.1-1.5l2.5,0.3l-0.1,1.5L304.1,557.2z M306.3,559.4l-0.4,3.4
				c-0.7-0.3-1.3-0.6-2.1-0.7l0.1-2.8L306.3,559.4z M288.1,555.3c-0.6-0.4-0.7-1.5-0.6-2.2l1.2-4.2l0.7,3.1c0.1,0.4,0.4,0.7,0.9,0.7
				h0.1c0.6-0.1,0.9-0.6,0.7-1.2l-0.6-3l2.8,3.3c0.4,0.6,0.7,1.6,0.4,2.2c-0.3,0.7-0.3,1.6-0.1,2.4l0.1,0.9l-4.5,1l-0.1-0.9
				C289,556.6,288.7,555.9,288.1,555.3z M289.1,561.1L289.1,561.1H289c-0.1,0-0.1,0-0.1,0l-0.1-0.1c0-0.1,0-0.1,0-0.1l0.1-0.1h0.1
				l0,0l6.4-1.5l0,0h0.1l0.1,0.1c0,0.1,0,0.1,0,0.1l-0.1,0.1L289.1,561.1z M295,562.6c-0.9,0.3-1.8,0.7-2.5,1.3
				c-0.4,0.3-1,0.7-1.5,1l-0.4-2.2l4.3-0.9L295,562.6z M272.1,569.9l9-5.8l3.3,5.1c-1.9,0.3-3.7,0.9-5.2,2.1c-1.5,1-2.7,2.5-3.4,4.3
				L272.1,569.9z M318.7,583.7c0,3-2.4,5.5-5.4,5.5h-37.7c-3,0-5.4-2.4-5.4-5.5c0-3,2.4-5.5,5.4-5.5c0.1,0,0.3,0,0.4,0
				c0.4,0,0.9-0.3,1-0.7c1.2-3.7,4.6-6.4,8.5-6.4c0.7,0,1.5,0.1,2.1,0.3c0.4,0.1,0.9-0.1,1.2-0.6c2.1-4.3,6.4-7,11.4-7
				c7,0,12.6,5.7,12.6,12.7c0,0.3,0,0.4,0,0.7c0,0.6,0.4,1,0.9,1C316.5,578.4,318.7,580.8,318.7,583.7z M314.9,575.7
				c0-1.3-0.3-2.7-0.7-3.9l3.6-10.3c0.6,0.1,1.2,0.3,1.9,0.3L314.9,575.7z M315.3,558.4l0.9-0.6c0.4,0.4,0.9,0.7,1.5,0.9
				c0.4,0.1,1,0.3,1.5,0.3h0.1l0.3,1C318.1,559.9,316.6,559.3,315.3,558.4z"/>
		</g>
	</g>
	<g>
		<g>
			<path class="st1" d="M299,577.5L299,577.5c-1.6-2.2-4-3.6-6.9-3.6c-4.6,0-8.4,3.7-8.4,8.5c0,0.6,0.4,1,1,1s1-0.4,1-1
				c0-3.6,2.8-6.4,6.4-6.4c2.2,0,4.3,1.2,5.5,3.1c0.1,0.3,0.6,0.4,0.9,0.4c0.1,0,0.3,0,0.4,0c2.5,0,4.6,2.1,4.6,4.6c0,0.6,0.4,1,1,1
				s1-0.4,1-1C305.7,580.5,302.7,577.5,299,577.5z"/>
		</g>
	</g>
</g>
<g>
	<path class="st1" d="M393.9,543.5h-45.5c-2.4,0-4.4,2-4.4,4.5v32.4c0,2.4,2,4.5,4.4,4.5h11.3v3.6h-3.5v1.8h29.7v-1.8h-3.5v-3.6
		h11.3c2.4,0,4.4-2,4.4-4.5V548C398.3,545.5,396.3,543.5,393.9,543.5z M380.8,588.4h-19.3v-3.6h19.3V588.4z M396.5,580.3
		c0,1.5-1.2,2.7-2.6,2.7h-45.5c-1.5,0-2.6-1.2-2.6-2.7v-2.4h50.8L396.5,580.3L396.5,580.3z M396.5,576.2h-50.6V548
		c0-1.5,1.2-2.7,2.6-2.7H394c1.5,0,2.6,1.2,2.6,2.7v28.2H396.5z"/>
	<rect x="355.3" y="555.5" class="st1" width="31.6" height="1.5"/>
	<rect x="355.3" y="560.1" class="st1" width="25.6" height="1.5"/>
	<rect x="355.3" y="564.6" class="st1" width="19.6" height="1.5"/>
</g>
<path class="st1" d="M393,572.9h-43.7v-24.1H393V572.9z M350.8,571.4h40.7v-21.1h-40.7V571.4z"/>
<g>
	<g>
		<path class="st1" d="M472,548.6h-8.6v-1.7h3.2c0.6,0,1.1-0.5,1.1-1.1v-3.5c0-0.6-0.5-1.1-1.1-1.1h-8.5c-0.6,0-1.1,0.5-1.1,1.1v3.5
			c0,0.6,0.5,1.1,1.1,1.1h3.2v1.7h-14.4v-1.7h3.2c0.6,0,1.1-0.5,1.1-1.1v-3.5c0-0.6-0.5-1.1-1.1-1.1h-8.5c-0.6,0-1.1,0.5-1.1,1.1
			v3.5c0,0.6,0.5,1.1,1.1,1.1h3.2v1.7h-14.4v-1.7h3.2c0.6,0,1.1-0.5,1.1-1.1v-3.5c0-0.6-0.5-1.1-1.1-1.1h-8.5
			c-0.6,0-1.1,0.5-1.1,1.1v3.5c0,0.6,0.5,1.1,1.1,1.1h3.2v1.7h-8.6c-0.6,0-1.1,0.5-1.1,1.1v28.2c0,0.6,0.5,1.1,1.1,1.1h21.8v2.6h-15
			c-0.6,0-1.1,0.5-1.1,1.1s0.5,1.1,1.1,1.1h15v6.5c0,0.6,0.5,1.1,1.1,1.1h6.5c0.6,0,1.1-0.5,1.1-1.1v-6.5h15c0.6,0,1.1-0.5,1.1-1.1
			s-0.5-1.1-1.1-1.1h-15V579H472c0.6,0,1.1-0.5,1.1-1.1v-28.2C473.1,549,472.6,548.6,472,548.6z M459.2,544.8v-1.4h6.4v1.4H459.2z
			 M442.7,544.8v-1.4l0,0h6.4v1.4H442.7z M426.2,544.8v-1.4h6.4v1.4H426.2z M448,589.1h-4.4v-5.4h4.4V589.1z M448,581.6h-4.4V579
			h4.4V581.6z M471,576.7h-50.1v-26H471V576.7L471,576.7z"/>
	</g>
</g>
<g>
	<path class="st10" d="M495.8,196.5l-5.6-5.6c-0.2-0.2-0.4-0.2-0.6,0l-0.6,0.6l-0.9-0.9c1.1-1.2,1.8-2.9,1.8-4.6c0-3.8-3.1-7-7-7
		c-3.8,0-7,3.1-7,7s3.1,7,7,7c1.8,0,3.4-0.7,4.6-1.8l0.9,0.9l-0.6,0.6c-0.2,0.2-0.2,0.4,0,0.6l5.6,5.6c0,0,0,0,0,0
		c0.3,0.3,0.7,0.5,1.1,0.5c0.4,0,0.8-0.2,1.1-0.5c0.3-0.3,0.5-0.7,0.5-1.1C496.3,197.2,496.1,196.8,495.8,196.5z M476.8,186
		c0-3.4,2.8-6.2,6.2-6.2s6.2,2.8,6.2,6.2s-2.8,6.2-6.2,6.2S476.8,189.4,476.8,186z M495.3,198.3c-0.3,0.3-0.8,0.3-1.2,0h0l-5.4-5.4
		l1.2-1.2l5.4,5.4c0.2,0.2,0.2,0.4,0.2,0.6C495.5,197.9,495.4,198.1,495.3,198.3z"/>
	<path class="st10" d="M478.3,186.2c0-0.1,0-0.2,0-0.3c0-0.2-0.2-0.4-0.4-0.4c-0.2,0-0.4,0.2-0.4,0.4c0,0.1,0,0.2,0,0.3
		c0,0.2,0.2,0.4,0.4,0.4c0,0,0,0,0,0C478.2,186.6,478.3,186.4,478.3,186.2z"/>
	<path class="st10" d="M483,190.6c-1.8,0-3.3-1-4.1-2.5c-0.1-0.2-0.3-0.3-0.5-0.2c-0.2,0.1-0.3,0.3-0.2,0.5c0.9,1.8,2.8,3,4.9,3
		c0.2,0,0.4-0.2,0.4-0.4C483.4,190.8,483.2,190.6,483,190.6z"/>
</g>
</svg>
