<svg xmlns="http://www.w3.org/2000/svg" viewBox="0 0 46.86 48.27"><defs><style>.cls-1{fill:#fff;}</style></defs><title>Asset 3</title><g id="Layer_2" data-name="Layer 2"><g id="Layer_1-2" data-name="Layer 1"><path class="cls-1" d="M34.63,0a11.93,11.93,0,0,1,8.62,3.61,11.93,11.93,0,0,1,3.61,8.62v6.49a11.77,11.77,0,0,1-3.61,8.56,12.14,12.14,0,0,1-8.62,3.54h-13V45.33h5.08a1.47,1.47,0,1,1,0,2.94H4.21a1.47,1.47,0,1,1,0-2.94H9V30.82H4.21a1.47,1.47,0,0,1,0-2.94H9V2.94h-6V7.56A1.48,1.48,0,0,1,1.47,9,1.48,1.48,0,0,1,0,7.56V1.47A1.48,1.48,0,0,1,1.47,0ZM18.72,27.88V2.94H11.9V27.88ZM11.9,30.82V45.33h6.82V30.82Zm13-2.94a9.31,9.31,0,0,0,6.55-2.67,9,9,0,0,0,2.67-6.48V12.23a9,9,0,0,0-2.74-6.55,8.85,8.85,0,0,0-6.49-2.74H21.66V27.88ZM43.92,12.23a9,9,0,0,0-2.74-6.55,9,9,0,0,0-6.55-2.74H32.76A12.25,12.25,0,0,1,37,12.23v6.49a11.78,11.78,0,0,1-3.61,8.56l-.6.6h1.81a9.2,9.2,0,0,0,9.29-9.16Z"/></g></g></svg>