<svg xmlns="http://www.w3.org/2000/svg" viewBox="0 0 371.4 31.88"><defs><style>.cls-1{fill:#fff;}</style></defs><title>Asset 1</title><g id="Layer_2" data-name="Layer 2"><g id="Layer_1-2" data-name="Layer 1"><path class="cls-1" d="M0,28.75H4.1V2.59H0V0H14.27a12.74,12.74,0,0,1,5.35.89c3.08,1.38,5,4.46,5,8.52,0,4.32-2.18,7.67-5.71,8.92a14.08,14.08,0,0,1-4.64.62H7.22v9.81h4.1v2.59H0ZM14,16.27a10.33,10.33,0,0,0,3.79-.62c2.32-.94,3.7-3.16,3.7-6.24,0-2.85-1.16-4.91-3.25-6A10.88,10.88,0,0,0,14,2.68H7.22V16.27Z"/><path class="cls-1" d="M32,28.75h4.1V2.68H32V0H43.28V2.68h-4.1v26H51.71V23.45h2.85v7.89H32Z"/><path class="cls-1" d="M59.77,28.75H63L73.54,0H77L87.54,28.75h3.21v2.59h-10V28.75h3.61l-3-8.07H69.13l-2.94,8.07H69.8v2.59h-10ZM80.5,18.06,75.82,5.22c-.18-.54-.22-1-.36-1.38l-.13-.62h-.13a2.92,2.92,0,0,1-.09.62c-.13.36-.18.85-.36,1.38L70,18.06Z"/><path class="cls-1" d="M101.09,28.75h4.1V2.68H96.41V7.76H93.6V0h26.3V7.76H117V2.68h-8.74V28.75h4.1v2.59H101.09Z"/><path class="cls-1" d="M127.07,28.75h4.1V2.59h-4.1V0h11.32V2.59h-4.1V28.75h4.1v2.59H127.07Z"/><path class="cls-1" d="M146.54,28.75h4.1V2.59h-4.1V0h7.13l17.56,24.74a7.69,7.69,0,0,1,.62,1.2,5.18,5.18,0,0,1,.31.71h.09l-.09-.76c0-.49,0-1,0-1.43V2.59H168V0h11.37V2.59h-4.1V31.34h-3L154.66,6.6A10.75,10.75,0,0,1,154,5.35a4.41,4.41,0,0,1-.31-.67h-.09l.09.76a7.38,7.38,0,0,1,0,1.38V28.75h4.15v2.59H146.54Z"/><path class="cls-1" d="M190.18,2.59h-4.1V0H197.4V2.59h-4.1V19.75a10.78,10.78,0,0,0,1.38,5.75c1.47,2.27,4.15,3.52,7.53,3.52s6.15-1.29,7.53-3.66a10.92,10.92,0,0,0,1.38-5.71V2.59H207V0h11.32V2.59h-4.1V19.8a13.26,13.26,0,0,1-2,7.4c-2.1,3-5.71,4.68-10,4.68s-8.12-1.7-10.12-4.73a12.32,12.32,0,0,1-1.92-7.35Z"/><path class="cls-1" d="M224.76,28.75h4.1L231,2.59h-4.15V0h7.53l9.09,20.51c.22.49.31,1,.44,1.29l.18.54h.09a2.58,2.58,0,0,1,.18-.54c.13-.31.27-.8.49-1.29L253.92,0h7.49V2.59h-4.1l2.05,26.17h4.1v2.59H252.27V28.75h4L254.59,7.13c0-.4,0-.94,0-1.43a4.7,4.7,0,0,0,0-.8h-.09l-.22.76A9.36,9.36,0,0,1,253.92,7l-8.33,18.37h-2.9L234.3,7c-.13-.4-.31-.85-.44-1.34a5.92,5.92,0,0,1-.18-.76h-.13a4.7,4.7,0,0,0,0,.8,7.87,7.87,0,0,1,0,1.43l-1.69,21.62h4v2.59H224.76Z"/><path class="cls-1" d="M285.33,28.75h4.1V2.59h-4.1V0h11.32V2.59h-4.1V28.75h4.1v2.59H285.33Z"/><path class="cls-1" d="M304.81,28.75h4.1V2.59h-4.1V0h7.13l17.56,24.74a7.69,7.69,0,0,1,.62,1.2,5.18,5.18,0,0,1,.31.71h.09l-.09-.76c0-.49,0-1,0-1.43V2.59h-4.15V0h11.37V2.59h-4.1V31.34h-3L312.92,6.6a10.75,10.75,0,0,1-.62-1.25,4.41,4.41,0,0,1-.31-.67h-.09l.09.76a7.38,7.38,0,0,1,0,1.38V28.75h4.15v2.59H304.81Z"/><path class="cls-1" d="M345.28,28.75h4.1V2.59h-4.1V0h11.1V2.59H352.5V13.64h4.59l7.67-11.06h-3.08V0h9.72V2.59h-3.16l-8.65,12.17v.09l.45.36a5.63,5.63,0,0,1,1.07,1.47l6.42,10.83a2.3,2.3,0,0,0,2.32,1.25h1.56v2.59H369c-2.63,0-3.26-.58-4.32-2.36L358.16,17.7a2.43,2.43,0,0,0-2.5-1.38H352.5V28.75h4.06v2.59H345.28Z"/></g></g></svg>