<svg xmlns="http://www.w3.org/2000/svg" viewBox="0 0 466 24.4"><defs><style>.cls-1{fill:#666;}</style></defs><title>Asset 1</title><g id="Layer_2" data-name="Layer 2"><g id="Layer_1-2" data-name="Layer 1"><path class="cls-1" d="M0,17.24H2.46V1.55H0V0H7.94a12.44,12.44,0,0,1,4,.48c3.55,1.15,5.8,4.38,5.8,8.93s-2.27,7.78-6,8.93a11.42,11.42,0,0,1-3.77.45H0Zm7.78-.05a10.19,10.19,0,0,0,3.34-.45c2.89-.93,4.68-3.5,4.68-7.32S14.06,3,11.25,2A9.65,9.65,0,0,0,7.78,1.6H4.33V17.19Z"/><path class="cls-1" d="M29.2,5c3.71,0,5.64,2.86,5.64,6.2a3.68,3.68,0,0,1,0,.54l-.05.32H24.44a5.13,5.13,0,0,0,5.21,5.4,6,6,0,0,0,3-.8,6.17,6.17,0,0,0,1.12-.8l.83,1.36a8.59,8.59,0,0,1-1.34.94,7.19,7.19,0,0,1-3.63.93,6.81,6.81,0,0,1-7-7C22.57,7.67,25.56,5,29.2,5Zm3.74,5.72c-.08-2.86-1.82-4.2-3.8-4.2a4.61,4.61,0,0,0-4.62,4.2Z"/><path class="cls-1" d="M39.28,14.62h1.66v1c0,1.39,2,2,3.5,2,1.71,0,3.15-.72,3.15-2.11,0-1.55-1.71-2.08-3.63-2.81s-4.17-1.63-4.17-4S42.2,5,44.44,5c1.82,0,4.46.77,4.46,2.62V9.19H47.25v-1c0-1-1.34-1.6-2.75-1.6s-2.83.64-2.83,1.95c0,1.47,1.6,2.08,3.39,2.73,2.08.72,4.38,1.63,4.38,4s-2.08,3.8-5.08,3.8c-2.49,0-5.08-1.15-5.08-3.18Z"/><path class="cls-1" d="M53.88,17.29h2.27V6.84H53.75V5.35H58V17.29h2.27v1.5H53.88ZM56,0h2.06V2.27H56Z"/><path class="cls-1" d="M66.16,21.86a5.63,5.63,0,0,0,1.07.48,7.7,7.7,0,0,0,2.57.45c2.65,0,4.7-1.23,4.7-4.25V17.21a4.27,4.27,0,0,1,.05-.67,1.22,1.22,0,0,0,0-.29h-.05a4.54,4.54,0,0,1-4.28,2.46c-3.61,0-6-2.86-6-6.89S66.48,5,70.09,5c1.92,0,3.8.72,4.52,2.38h.05a.36.36,0,0,0,0-.13,1.69,1.69,0,0,1,0-.45c0-1,.4-1.47,1.55-1.47h2.4v1.5H76.9c-.4,0-.59.19-.59.56V18.47c0,4.28-3.15,5.93-6.47,5.93a9.83,9.83,0,0,1-4.38-1.07Zm8.37-10c0-3.93-1.9-5.16-4.25-5.16-2.65,0-4.14,1.9-4.14,5.13s1.71,5.29,4.38,5.29C72.65,17.08,74.52,15.77,74.52,11.81Z"/><path class="cls-1" d="M82.55,17.29h2.27V7.43a.51.51,0,0,0-.59-.59H82.42V5.35H85c1.1,0,1.63.51,1.63,1.5v.77a4.28,4.28,0,0,1-.05.67l-.05.3h.05A6,6,0,0,1,92,5c3.31,0,4.46,1.9,4.46,5.21v7.06h2.27v1.5H94.68V10.72c0-2.14-.35-4-2.94-4a5.32,5.32,0,0,0-5.1,5.59v5h2.27v1.5H82.55Z"/><path class="cls-1" d="M143.11,17.24H145L151.36,0h2.06l6.34,17.24h1.92v1.55h-6V17.24h2.16L156,12.4h-7.32L147,17.24h2.17v1.55h-6Zm12.43-6.42-2.81-7.7c-.11-.32-.13-.61-.22-.83l-.08-.37h-.08a1.83,1.83,0,0,1-.05.37c-.08.22-.11.51-.21.83l-2.86,7.7Z"/><path class="cls-1" d="M171.15,5a4.8,4.8,0,0,1,3.39,1.31,5.11,5.11,0,0,1,1,1.31h.05a1.22,1.22,0,0,0,0-.29,5.51,5.51,0,0,1-.05-.75V1.5h-2.4V0h4.22V16.7a.51.51,0,0,0,.59.59h1.5v1.5h-2.22c-1.15,0-1.6-.51-1.6-1.47v-.24a4.07,4.07,0,0,1,.05-.61l.05-.22h-.05a4.61,4.61,0,0,1-1,1.42,5.1,5.1,0,0,1-3.71,1.44c-3.61,0-5.83-2.89-5.83-7C165.09,7.78,167.57,5,171.15,5Zm.05,12.45c2.25,0,4.36-1.6,4.36-5.4,0-2.75-1.39-5.4-4.25-5.4-2.4,0-4.36,2-4.36,5.4S168.7,17.48,171.21,17.48Z"/><path class="cls-1" d="M182.36,5.35h5.56v1.5H186l3.37,9c.11.24.13.48.21.69a1.75,1.75,0,0,1,.05.35h.08a1.91,1.91,0,0,1,.05-.35c.08-.21.13-.45.22-.69l3.37-9h-1.92V5.35H197v1.5h-1.76l-4.57,11.95h-2L184.13,6.84h-1.76Z"/><path class="cls-1" d="M207,5c3.71,0,5.64,2.86,5.64,6.2a3.4,3.4,0,0,1,0,.54l-.05.32H202.2a5.13,5.13,0,0,0,5.21,5.4,6.28,6.28,0,0,0,4.09-1.6l.83,1.36a8.69,8.69,0,0,1-1.34.94,7.2,7.2,0,0,1-3.64.93,6.81,6.81,0,0,1-7-7C200.33,7.67,203.33,5,207,5Zm3.74,5.72c-.08-2.86-1.82-4.2-3.8-4.2a4.61,4.61,0,0,0-4.62,4.2Z"/><path class="cls-1" d="M217.21,17.29h2.08V7.43a.51.51,0,0,0-.59-.59h-1.82V5.35h2.54c1.15,0,1.63.45,1.63,1.52v.91a5.31,5.31,0,0,1,0,.72,1.22,1.22,0,0,0,0,.29h.05c.67-2,2.14-3.58,4.25-3.58a3,3,0,0,1,.51,0l.24.05V7.08a.6.6,0,0,1-.21,0,1.94,1.94,0,0,0-.48,0c-3,0-4.25,3.39-4.25,6.07v4.2h2.08v1.5h-6Z"/><path class="cls-1" d="M231.41,6.84H229V5.35h2.43V1.63h1.79V5.35h3.39v1.5h-3.39v6.9c0,3.13,2,3.58,3,3.58a1.7,1.7,0,0,0,.45,0,.47.47,0,0,1,.16,0v1.58a.6.6,0,0,0-.21,0,2.7,2.7,0,0,1-.56,0c-1.55,0-4.7-.51-4.7-5Z"/><path class="cls-1" d="M240.82,17.29h2.27V6.84h-2.4V5.35h4.22V17.29h2.27v1.5h-6.36ZM243,0H245V2.27H243Z"/><path class="cls-1" d="M251.19,14.62h1.66v1c0,1.39,2,2,3.5,2,1.71,0,3.15-.72,3.15-2.11,0-1.55-1.71-2.08-3.63-2.81s-4.17-1.63-4.17-4S254.11,5,256.35,5c1.82,0,4.46.77,4.46,2.62V9.19h-1.66v-1c0-1-1.34-1.6-2.75-1.6s-2.83.64-2.83,1.95c0,1.47,1.6,2.08,3.39,2.73,2.08.72,4.38,1.63,4.38,4s-2.08,3.8-5.08,3.8c-2.49,0-5.08-1.15-5.08-3.18Z"/><path class="cls-1" d="M265.79,17.29h2.27V6.84h-2.41V5.35h4.22V17.29h2.27v1.5h-6.36ZM268,0H270V2.27H268Z"/><path class="cls-1" d="M276.2,17.29h2.27V7.43a.51.51,0,0,0-.59-.59h-1.82V5.35h2.57c1.1,0,1.63.51,1.63,1.5v.77a4.28,4.28,0,0,1-.05.67l-.05.3h.05A6,6,0,0,1,285.69,5c3.31,0,4.46,1.9,4.46,5.21v7.06h2.27v1.5h-4.09V10.72c0-2.14-.35-4-2.94-4a5.32,5.32,0,0,0-5.1,5.59v5h2.27v1.5H276.2Z"/><path class="cls-1" d="M298.21,21.86a5.55,5.55,0,0,0,1.07.48,7.7,7.7,0,0,0,2.57.45c2.65,0,4.7-1.23,4.7-4.25V17.21a4.27,4.27,0,0,1,.05-.67,1.22,1.22,0,0,0,0-.29h-.05a4.54,4.54,0,0,1-4.28,2.46c-3.61,0-6-2.86-6-6.89S298.53,5,302.13,5c1.92,0,3.8.72,4.52,2.38h.05a.36.36,0,0,0,0-.13,1.69,1.69,0,0,1,0-.45c0-1,.4-1.47,1.55-1.47h2.4v1.5h-1.66c-.4,0-.59.19-.59.56V18.47c0,4.28-3.15,5.93-6.47,5.93a9.83,9.83,0,0,1-4.38-1.07Zm8.37-10c0-3.93-1.9-5.16-4.25-5.16-2.65,0-4.14,1.9-4.14,5.13s1.71,5.29,4.38,5.29C304.7,17.08,306.57,15.77,306.57,11.81Z"/><path class="cls-1" d="M348.05,17.24h2.46V1.55h-2.46V0h8.55a7.63,7.63,0,0,1,3.21.54,5.32,5.32,0,0,1,3,5.11A5.35,5.35,0,0,1,359.41,11a8.43,8.43,0,0,1-2.78.37h-4.25v5.88h2.46v1.55h-6.79Zm8.39-7.48a6.18,6.18,0,0,0,2.27-.37,3.74,3.74,0,0,0,2.22-3.74A3.73,3.73,0,0,0,359,2.06a6.53,6.53,0,0,0-2.54-.45h-4.06V9.76Z"/><path class="cls-1" d="M367.15,17.29h2.08V7.43a.51.51,0,0,0-.59-.59h-1.82V5.35h2.54c1.15,0,1.63.45,1.63,1.52v.91a5.75,5.75,0,0,1,0,.72,1.22,1.22,0,0,0,0,.29H371c.67-2,2.14-3.58,4.25-3.58a3,3,0,0,1,.51,0l.24.05V7.08a.61.61,0,0,1-.22,0,1.92,1.92,0,0,0-.48,0c-3,0-4.25,3.39-4.25,6.07v4.2h2.08v1.5h-6Z"/><path class="cls-1" d="M379.69,17.29H382V6.84h-2.41V5.35h4.22V17.29H386v1.5h-6.36ZM381.85,0h2.06V2.27h-2.06Z"/><path class="cls-1" d="M390.09,17.29h2.27V7.43a.51.51,0,0,0-.59-.59H390V5.35h2.57c1.1,0,1.63.51,1.63,1.5v.77a4.28,4.28,0,0,1-.05.67l-.05.3h.05A6,6,0,0,1,399.58,5c3.31,0,4.46,1.9,4.46,5.21v7.06h2.27v1.5h-4.09V10.72c0-2.14-.35-4-2.94-4a5.32,5.32,0,0,0-5.1,5.59v5h2.27v1.5h-6.36Z"/><path class="cls-1" d="M411.78,6.84h-2.41V5.35h2.43V1.63h1.79V5.35H417v1.5h-3.39v6.9c0,3.13,2,3.58,3,3.58a1.7,1.7,0,0,0,.45,0,.47.47,0,0,1,.16,0v1.58a.6.6,0,0,0-.21,0,2.7,2.7,0,0,1-.56,0c-1.55,0-4.7-.51-4.7-5Z"/><path class="cls-1" d="M421.19,17.29h2.27V6.84h-2.4V5.35h4.22V17.29h2.27v1.5h-6.36ZM423.35,0h2.06V2.27h-2.06Z"/><path class="cls-1" d="M431.59,17.29h2.27V7.43a.51.51,0,0,0-.59-.59h-1.82V5.35H434c1.09,0,1.63.51,1.63,1.5v.77a4,4,0,0,1-.05.67l-.05.3h.05A6,6,0,0,1,441.08,5c3.31,0,4.46,1.9,4.46,5.21v7.06h2.27v1.5h-4.09V10.72c0-2.14-.35-4-2.94-4a5.32,5.32,0,0,0-5.11,5.59v5H438v1.5h-6.36Z"/><path class="cls-1" d="M453.6,21.86a5.63,5.63,0,0,0,1.07.48,7.7,7.7,0,0,0,2.57.45c2.65,0,4.7-1.23,4.7-4.25V17.21a4.27,4.27,0,0,1,.05-.67,1.22,1.22,0,0,0,0-.29H462a4.54,4.54,0,0,1-4.28,2.46c-3.61,0-6-2.86-6-6.89S453.92,5,457.53,5c1.92,0,3.8.72,4.52,2.38h.05a.36.36,0,0,0,0-.13,1.69,1.69,0,0,1,0-.45c0-1,.4-1.47,1.55-1.47H466v1.5h-1.66c-.4,0-.59.19-.59.56V18.47c0,4.28-3.15,5.93-6.47,5.93a9.83,9.83,0,0,1-4.38-1.07Zm8.37-10c0-3.93-1.9-5.16-4.25-5.16-2.65,0-4.14,1.9-4.14,5.13s1.71,5.29,4.38,5.29C460.09,17.08,462,15.77,462,11.81Z"/><circle class="cls-1" cx="120.89" cy="10.33" r="2.23"/><circle class="cls-1" cx="329.79" cy="10.33" r="2.23"/></g></g></svg>