<svg xmlns="http://www.w3.org/2000/svg" viewBox="0 0 150.73 19.43"><defs><style>.cls-1{fill:#666;}</style></defs><title>Asset 2</title><g id="Layer_2" data-name="Layer 2"><g id="Layer_1-2" data-name="Layer 1"><path class="cls-1" d="M0,14.94H1.66v1c0,1.39,1.95,2,3.5,2,1.71,0,3.15-.72,3.15-2.11,0-1.55-1.71-2.08-3.63-2.81S.51,11.31.51,8.93s2.4-3.58,4.65-3.58C7,5.34,9.62,6.12,9.62,8V9.51H8v-1c0-1-1.34-1.6-2.75-1.6s-2.83.64-2.83,1.95C2.38,10.34,4,11,5.77,11.6c2.08.72,4.38,1.63,4.38,4s-2.08,3.8-5.08,3.8C2.59,19.43,0,18.28,0,16.25Z"/><path class="cls-1" d="M14.6,17.61h2.27V7.16H14.47V5.67h4.22V17.61H21v1.5H14.6ZM16.77.32h2.06V2.59H16.77Z"/><path class="cls-1" d="M25,17.61h2.27V7.75a.51.51,0,0,0-.59-.59H24.87V5.67h2.57c1.1,0,1.63.51,1.63,1.5v.77A4.28,4.28,0,0,1,29,8.6L29,8.9H29a6,6,0,0,1,5.48-3.56c3.31,0,4.46,1.9,4.46,5.21v7.06h2.27v1.5H37.14V11c0-2.14-.35-4-2.94-4a5.32,5.32,0,0,0-5.1,5.59v5h2.27v1.5H25Z"/><path class="cls-1" d="M52.06,5.34c1.71,0,5,.69,5,2.91V9.73H55.35v-1c0-1.2-2-1.76-3.26-1.76a5.1,5.1,0,0,0-5.18,5.4,5.15,5.15,0,0,0,5.26,5.43A6.39,6.39,0,0,0,56.58,16l.77,1.39a7.55,7.55,0,0,1-5.24,2.08,6.83,6.83,0,0,1-7.08-7A6.9,6.9,0,0,1,52.06,5.34Z"/><path class="cls-1" d="M68.4,5.34c3.71,0,5.64,2.86,5.64,6.2a3.4,3.4,0,0,1,0,.54L74,12.4H63.64a5.13,5.13,0,0,0,5.21,5.4,6.28,6.28,0,0,0,4.09-1.6l.83,1.36a8.69,8.69,0,0,1-1.34.94,7.2,7.2,0,0,1-3.64.93,6.81,6.81,0,0,1-7-7C61.77,8,64.77,5.34,68.4,5.34Zm3.74,5.72c-.08-2.86-1.82-4.2-3.8-4.2a4.61,4.61,0,0,0-4.62,4.2Z"/><path class="cls-1" d="M87.5,19.11a6.26,6.26,0,0,1-.11-1.2c0-6.63,9.7-7.4,9.7-12.59a3.59,3.59,0,0,0-3.9-3.61A4.71,4.71,0,0,0,90,3a5.24,5.24,0,0,0-1.1,1.31L87.6,3.39a6.34,6.34,0,0,1,1.34-1.71A6.25,6.25,0,0,1,93.3,0C96.85,0,99,2.35,99,5.26c0,6.23-9.62,7.16-9.62,12.24h8.79V14.89H99.9v4.22Z"/><path class="cls-1" d="M105.15,9.7c0-5.4,1.58-9.7,6.47-9.7s6.49,4.3,6.49,9.7-1.58,9.73-6.49,9.73S105.15,15.15,105.15,9.7Zm11,0c0-4.49-1-8-4.57-8s-4.54,3.5-4.54,8,1,8,4.54,8S116.18,14.22,116.18,9.7Z"/><path class="cls-1" d="M123.23,17.51h4.2V3.66c0-.29,0-.53,0-.72V2.62h-.05l-.19.3a7.68,7.68,0,0,1-.75.83l-2,2-1.18-1.18L127.53.32h1.74V17.51h4.12v1.6H123.23Z"/><path class="cls-1" d="M137.77,9.7c0-5.4,1.58-9.7,6.47-9.7s6.49,4.3,6.49,9.7-1.58,9.73-6.49,9.73S137.77,15.15,137.77,9.7Zm11,0c0-4.49-1-8-4.57-8s-4.54,3.5-4.54,8,1,8,4.54,8S148.81,14.22,148.81,9.7Z"/></g></g></svg>